<svg width="156" height="156" viewBox="0 0 156 156" fill="none" xmlns="http://www.w3.org/2000/svg">
<g id="Featured Winery Tag" clip-path="url(#clip0_465_24301)">
<path id="Vector" d="M77.99 151.98C118.854 151.98 151.98 118.854 151.98 77.99C151.98 37.1264 118.854 4 77.99 4C37.1264 4 4 37.1264 4 77.99C4 118.854 37.1264 151.98 77.99 151.98Z" fill="#CB220D"/>
<path id="Vector_2" d="M78.0197 155.98H76.4197C55.8589 155.769 36.2181 147.425 21.7912 132.774C7.36434 118.123 -0.675014 98.3559 -0.569283 77.7943C-0.463551 57.2327 7.77867 37.5492 22.3555 23.0472C36.9322 8.54519 56.6578 0.404297 77.2197 0.404297C97.7816 0.404297 117.507 8.54519 132.084 23.0472C146.661 37.5492 154.903 57.2327 155.009 77.7943C155.114 98.3559 147.075 118.123 132.648 132.774C118.221 147.425 98.5805 155.769 78.0197 155.98ZM78.0197 3.98018C58.3937 3.78392 39.4935 11.3921 25.477 25.131C11.4606 38.8699 3.47595 57.6142 3.27969 77.2402C3.08343 96.8662 10.6916 115.766 24.4305 129.783C38.1694 143.799 56.9137 151.784 76.5397 151.98H78.0597C97.6857 152.176 116.586 144.568 130.602 130.829C144.619 117.09 152.603 98.3462 152.8 78.7202C152.996 59.0941 145.388 40.194 131.649 26.1775C117.91 12.1611 99.1657 4.17644 79.5397 3.98018H78.0197Z" fill="#F3E8CF"/>
<path id="Vector_3" d="M77.8402 121.02C86.4169 121.022 94.8015 118.48 101.934 113.717C109.066 108.953 114.625 102.181 117.908 94.2576C121.191 86.3342 122.05 77.6151 120.378 69.2032C118.705 60.7912 114.575 53.0643 108.51 46.9997C102.446 40.9351 94.7188 36.8052 86.3069 35.1325C77.895 33.4598 69.1759 34.3193 61.2525 37.6023C53.329 40.8854 46.5572 46.4445 41.7935 53.5765C37.0298 60.7086 34.4883 69.0932 34.4902 77.6698C34.4902 89.167 39.0575 100.193 47.1872 108.323C55.3169 116.453 66.3431 121.02 77.8402 121.02Z" fill="#F3E8CF"/>
<path id="Vector_4" d="M75.8394 70.8296C75.9148 70.6084 76.0576 70.4164 76.2477 70.2804C76.4378 70.1444 76.6656 70.0713 76.8994 70.0713C77.1331 70.0713 77.3609 70.1444 77.551 70.2804C77.7411 70.4164 77.8839 70.6084 77.9594 70.8296L79.1494 74.4996C79.2241 74.7222 79.3664 74.9159 79.5564 75.0539C79.7463 75.1919 79.9746 75.2673 80.2094 75.2696H84.0194C84.2515 75.2724 84.4769 75.3479 84.6639 75.4854C84.8509 75.623 84.99 75.8157 85.0618 76.0364C85.1335 76.2572 85.1343 76.4949 85.0639 76.7161C84.9935 76.9373 84.8555 77.1309 84.6694 77.2696L81.5594 79.5296C81.3691 79.6691 81.2272 79.8646 81.1537 80.0888C81.0802 80.313 81.0787 80.5545 81.1494 80.7796L82.3394 84.4396C82.412 84.6628 82.412 84.9032 82.3394 85.1263C82.2669 85.3495 82.1254 85.5439 81.9355 85.6817C81.7455 85.8195 81.5167 85.8935 81.2821 85.8931C81.0474 85.8927 80.8189 85.818 80.6294 85.6796L77.5494 83.4496C77.3602 83.313 77.1327 83.2394 76.8994 83.2394C76.666 83.2394 76.4385 83.313 76.2494 83.4496L73.1294 85.7096C72.9385 85.8519 72.707 85.9291 72.469 85.9298C72.231 85.9305 71.999 85.8546 71.8074 85.7134C71.6157 85.5722 71.4746 85.3731 71.4047 85.1456C71.3348 84.918 71.34 84.674 71.4194 84.4496L72.6094 80.7896C72.6801 80.5645 72.6785 80.323 72.605 80.0988C72.5315 79.8746 72.3896 79.6791 72.1994 79.5396L69.0894 77.2796C68.9032 77.1409 68.7652 76.9473 68.6948 76.7261C68.6244 76.5049 68.6252 76.2672 68.6969 76.0464C68.7687 75.8257 68.9078 75.6329 69.0948 75.4954C69.2818 75.3578 69.5072 75.2824 69.7394 75.2796H73.5894C73.8245 75.2788 74.0534 75.204 74.2437 75.0658C74.4339 74.9276 74.5759 74.733 74.6494 74.5096L75.8394 70.8296Z" fill="#2F222B"/>
<path id="Vector_5" d="M94.4596 74.0997C94.2967 74.0998 94.1392 74.0414 94.0158 73.9351C93.8923 73.8289 93.8111 73.6819 93.7869 73.5208C93.7626 73.3598 93.797 73.1954 93.8838 73.0575C93.9705 72.9197 94.1039 72.8176 94.2596 72.7697L96.3996 72.1197C96.4856 72.0935 96.5759 72.0844 96.6654 72.093C96.755 72.1017 96.8419 72.1279 96.9213 72.1701C97.0007 72.2124 97.071 72.2698 97.1282 72.3393C97.1853 72.4087 97.2283 72.4887 97.2546 72.5747C97.2808 72.6607 97.2899 72.7511 97.2812 72.8406C97.2726 72.9301 97.2464 73.017 97.2041 73.0964C97.1619 73.1758 97.1044 73.2461 97.035 73.3033C96.9656 73.3605 96.8856 73.4035 96.7996 73.4297L94.6596 74.0697C94.5947 74.0895 94.5273 74.0996 94.4596 74.0997Z" fill="#2F222B"/>
<path id="Vector_6" d="M58.1392 85.0896C57.9772 85.0873 57.8213 85.0273 57.6996 84.9202C57.578 84.8132 57.4985 84.6663 57.4756 84.5058C57.4527 84.3454 57.4878 84.1821 57.5746 84.0453C57.6615 83.9085 57.7943 83.8071 57.9492 83.7596L60.0792 83.1196C60.1645 83.0919 60.2545 83.0817 60.3439 83.0894C60.4333 83.0972 60.5201 83.1228 60.5994 83.1648C60.6787 83.2067 60.7487 83.2642 60.8054 83.3337C60.862 83.4033 60.9041 83.4835 60.9292 83.5696C60.9553 83.6556 60.9641 83.7459 60.955 83.8353C60.946 83.9248 60.9193 84.0115 60.8765 84.0906C60.8337 84.1696 60.7757 84.2394 60.7058 84.2958C60.6359 84.3523 60.5555 84.3944 60.4692 84.4196L58.3392 85.0596C58.2744 85.0793 58.207 85.0895 58.1392 85.0896Z" fill="#2F222B"/>
<path id="Vector_7" d="M76.9591 99.3595C76.8698 99.3582 76.7817 99.3393 76.6997 99.304C76.6177 99.2686 76.5434 99.2174 76.4812 99.1533C76.419 99.0892 76.37 99.0135 76.3371 98.9305C76.3041 98.8475 76.2878 98.7588 76.2891 98.6695V96.4395C76.3034 96.2632 76.3813 96.0981 76.5082 95.9748C76.6351 95.8516 76.8025 95.7786 76.9791 95.7695C77.0693 95.7708 77.1583 95.79 77.241 95.826C77.3237 95.862 77.3983 95.9141 77.4607 95.9793C77.523 96.0444 77.5718 96.1213 77.6042 96.2055C77.6365 96.2896 77.6518 96.3794 77.6491 96.4695V98.6995C77.6479 98.7884 77.6289 98.8761 77.5934 98.9576C77.5579 99.039 77.5065 99.1126 77.4423 99.174C77.3781 99.2354 77.3023 99.2835 77.2194 99.3153C77.1364 99.3472 77.048 99.3622 76.9591 99.3595Z" fill="#2F222B"/>
<path id="Vector_8" d="M77.7404 61.4503C77.6511 61.4478 77.5631 61.4276 77.4816 61.391C77.4001 61.3544 77.3266 61.3021 77.2653 61.2371C77.204 61.1721 77.1561 61.0957 77.1244 61.0121C77.0927 60.9286 77.0777 60.8396 77.0804 60.7503V58.5204C77.0856 58.3435 77.1595 58.1756 77.2865 58.0524C77.4135 57.9292 77.5834 57.8603 77.7604 57.8604C77.8492 57.8616 77.9369 57.8806 78.0184 57.9161C78.0998 57.9516 78.1734 58.003 78.2349 58.0672C78.2963 58.1314 78.3443 58.2071 78.3762 58.2901C78.408 58.3731 78.423 58.4615 78.4204 58.5504V60.7803C78.4152 60.9581 78.3416 61.1271 78.2149 61.2519C78.0882 61.3768 77.9182 61.4478 77.7404 61.4503Z" fill="#2F222B"/>
<path id="Vector_9" d="M88.8396 95.7495C88.7296 95.7509 88.621 95.7251 88.5234 95.6745C88.4257 95.624 88.342 95.5501 88.2796 95.4595L87.0196 93.6295C86.9607 93.5571 86.9174 93.4734 86.8923 93.3835C86.8672 93.2936 86.8608 93.1996 86.8736 93.1071C86.8864 93.0147 86.9181 92.9259 86.9668 92.8462C87.0154 92.7666 87.0799 92.6978 87.1562 92.6441C87.2326 92.5905 87.3192 92.5531 87.4106 92.5344C87.502 92.5156 87.5963 92.5159 87.6876 92.5352C87.7789 92.5544 87.8653 92.5923 87.9413 92.6464C88.0173 92.7005 88.0814 92.7696 88.1296 92.8495L89.4096 94.6895C89.5105 94.8371 89.5493 95.0185 89.5175 95.1944C89.4856 95.3703 89.3858 95.5266 89.2396 95.6295C89.1213 95.7087 88.982 95.7505 88.8396 95.7495Z" fill="#2F222B"/>
<path id="Vector_10" d="M67.1809 64.6299C67.0714 64.6288 66.9637 64.6019 66.8664 64.5515C66.7692 64.5012 66.6851 64.4287 66.6209 64.3399L65.3509 62.5099C65.2475 62.3614 65.2073 62.1779 65.2392 61.9997C65.2711 61.8216 65.3724 61.6633 65.5209 61.5599C65.6695 61.4565 65.853 61.4163 66.0312 61.4482C66.2093 61.4801 66.3675 61.5814 66.4709 61.7299L67.7409 63.5599C67.8124 63.662 67.8545 63.7818 67.8625 63.9062C67.8705 64.0306 67.8442 64.1548 67.7864 64.2652C67.7286 64.3757 67.6415 64.4681 67.5348 64.5324C67.428 64.5967 67.3056 64.6305 67.1809 64.6299Z" fill="#2F222B"/>
<path id="Vector_11" d="M60.5009 73.4505C60.4279 73.4602 60.3539 73.4602 60.2809 73.4505L58.1709 72.7105C58.081 72.6857 57.9972 72.6426 57.9247 72.584C57.8521 72.5255 57.7924 72.4526 57.7492 72.37C57.706 72.2874 57.6803 72.1968 57.6736 72.1038C57.6669 72.0108 57.6794 71.9174 57.7104 71.8295C57.7413 71.7415 57.79 71.6609 57.8534 71.5925C57.9168 71.5242 57.9935 71.4696 58.0789 71.4322C58.1643 71.3948 58.2565 71.3753 58.3497 71.375C58.443 71.3747 58.5352 71.3936 58.6209 71.4305L60.7309 72.1605C60.9008 72.2216 61.04 72.347 61.1185 72.5097C61.1971 72.6724 61.2087 72.8593 61.1509 73.0305C61.0981 73.1582 61.0076 73.2669 60.8914 73.342C60.7753 73.417 60.6391 73.4549 60.5009 73.4505Z" fill="#2F222B"/>
<path id="Vector_12" d="M96.3495 85.8698C96.2769 85.8841 96.2022 85.8841 96.1295 85.8698L94.0195 85.1398C93.9346 85.1106 93.8563 85.0648 93.7891 85.0052C93.7219 84.9455 93.6672 84.8732 93.6282 84.7923C93.5891 84.7114 93.5665 84.6236 93.5616 84.5339C93.5566 84.4442 93.5696 84.3544 93.5995 84.2698C93.6607 84.0998 93.7861 83.9606 93.9488 83.8821C94.1114 83.8036 94.2984 83.792 94.4695 83.8498L96.5695 84.5898C96.6541 84.6179 96.7322 84.6626 96.7993 84.7213C96.8664 84.78 96.9211 84.8514 96.9602 84.9315C96.9993 85.0116 97.022 85.0987 97.0271 85.1877C97.0321 85.2767 97.0194 85.3658 96.9895 85.4498C96.9362 85.5751 96.847 85.6819 96.7331 85.7566C96.6192 85.8314 96.4858 85.8708 96.3495 85.8698Z" fill="#2F222B"/>
<path id="Vector_13" d="M88.1491 65.0502C88.0022 65.0504 87.859 65.0049 87.7391 64.9202C87.6622 64.8651 87.5975 64.7948 87.549 64.7137C87.5005 64.6325 87.4691 64.5422 87.4569 64.4485C87.4447 64.3547 87.452 64.2594 87.4781 64.1686C87.5043 64.0777 87.5489 63.9932 87.6091 63.9202L88.9591 62.1503C89.0098 62.0715 89.0763 62.0042 89.1544 61.9523C89.2324 61.9005 89.3203 61.8654 89.4126 61.8492C89.5049 61.8329 89.5995 61.8359 89.6905 61.858C89.7816 61.88 89.8671 61.9206 89.9417 61.9773C90.0163 62.0339 90.0784 62.1054 90.1241 62.1872C90.1698 62.2689 90.1981 62.3593 90.2072 62.4525C90.2164 62.5457 90.2062 62.6398 90.1772 62.7289C90.1483 62.818 90.1013 62.9002 90.0391 62.9702L88.6991 64.7403C88.6387 64.832 88.5573 64.9079 88.4616 64.9618C88.3659 65.0158 88.2588 65.0461 88.1491 65.0502Z" fill="#2F222B"/>
<path id="Vector_14" d="M65.2497 95.27C65.1009 95.2724 64.9559 95.2229 64.8397 95.13C64.7679 95.0768 64.7074 95.0098 64.6619 94.933C64.6164 94.8561 64.5867 94.7709 64.5745 94.6824C64.5624 94.5939 64.5681 94.5038 64.5913 94.4175C64.6145 94.3313 64.6548 94.2505 64.7097 94.18L66.0197 92.45C66.0748 92.3732 66.1451 92.3085 66.2262 92.2599C66.3074 92.2114 66.3977 92.1801 66.4914 92.1679C66.5852 92.1557 66.6805 92.1629 66.7713 92.189C66.8622 92.2152 66.9467 92.2598 67.0197 92.32C67.0915 92.3732 67.1519 92.4402 67.1974 92.517C67.243 92.5939 67.2726 92.6791 67.2848 92.7676C67.2969 92.8562 67.2912 92.9462 67.268 93.0325C67.2448 93.1187 67.2045 93.1995 67.1497 93.27L65.7997 95.05C65.731 95.1264 65.6457 95.1859 65.5503 95.2241C65.4549 95.2622 65.3521 95.278 65.2497 95.27Z" fill="#2F222B"/>
<path id="Vector_15" d="M44.9492 25.0403L49.1592 22.5303L49.5392 23.1703L46.0692 25.2503L47.3692 27.4403L50.0192 25.8803L50.3992 26.5203L47.7892 28.0803L49.5392 31.0203L48.8092 31.4603L44.9492 25.0403Z" fill="#F3E8CF"/>
<path id="Vector_16" d="M58.1796 19.45L54.4196 20.92L55.3496 23.3L58.1796 22.19L58.4496 22.89L55.6196 23.99L56.6196 26.49L60.3896 25.01L60.6596 25.71L56.0696 27.45L53.3496 20.5L57.9096 18.71L58.1796 19.45Z" fill="#F3E8CF"/>
<path id="Vector_17" d="M65.6198 17.4496L65.2698 17.5196L64.1798 24.5896L63.3398 24.7596L64.5398 16.8996L66.0498 16.5996L70.1898 23.3796L69.3398 23.5496L65.6198 17.4496ZM64.1098 21.8396L68.3798 20.9796L68.5198 21.7196L64.2598 22.5696L64.1098 21.8396Z" fill="#F3E8CF"/>
<path id="Vector_18" d="M71.9104 15.7803L77.5004 15.5703V16.3203L75.1304 16.4103L75.3904 23.1203H74.5404L74.2804 16.4003L71.9004 16.4903L71.9104 15.7803Z" fill="#F3E8CF"/>
<path id="Vector_19" d="M82.1504 15.7803L83.0004 15.9003L82.3804 20.5703C82.3086 20.9795 82.3466 21.4005 82.4904 21.7903C82.613 22.1019 82.8298 22.3676 83.1104 22.5503C83.4147 22.7376 83.7558 22.857 84.1104 22.9003C84.4456 22.9465 84.7869 22.9192 85.1104 22.8203C85.43 22.7182 85.7097 22.519 85.9104 22.2503C86.1447 21.9083 86.2892 21.5128 86.3304 21.1003L87.0204 16.4503L87.8604 16.5703L87.2504 21.2303C87.2011 21.663 87.0651 22.0813 86.8504 22.4603C86.6686 22.7776 86.4152 23.0481 86.1104 23.2503C85.8045 23.4418 85.4653 23.5741 85.1104 23.6403C84.7496 23.7005 84.3813 23.7005 84.0204 23.6403C83.5335 23.579 83.0658 23.4117 82.6504 23.1503C82.2491 22.8945 81.9325 22.5257 81.7404 22.0903C81.5224 21.5727 81.4598 21.0028 81.5604 20.4503L82.1504 15.7803Z" fill="#F3E8CF"/>
<path id="Vector_20" d="M95.3008 18.4504C95.7757 18.5851 96.2113 18.8321 96.5708 19.1704C96.8547 19.4407 97.0529 19.7884 97.1408 20.1704C97.2136 20.5509 97.186 20.9438 97.0608 21.3104C96.9811 21.5846 96.8524 21.8421 96.6808 22.0704C96.5068 22.2937 96.2846 22.4749 96.0308 22.6004C95.7517 22.7433 95.4442 22.8219 95.1308 22.8304C94.7405 22.8414 94.3512 22.7839 93.9808 22.6604L92.2808 22.1304L91.3608 25.0404L90.5508 24.7804L92.7908 17.6504L95.3008 18.4504ZM96.2408 21.0604C96.3118 20.8786 96.3432 20.6838 96.3329 20.4889C96.3226 20.294 96.2707 20.1036 96.1808 19.9304C95.9271 19.5371 95.528 19.2602 95.0708 19.1604L93.3808 18.6304L92.5008 21.4204L94.2008 21.9604C94.5221 22.0694 94.8634 22.107 95.2008 22.0704C95.4521 22.0366 95.6865 21.9246 95.8708 21.7504C96.0454 21.5556 96.1721 21.3228 96.2408 21.0704V21.0604ZM94.6608 22.5504L95.6608 26.3804L94.7308 26.0904L93.8208 22.2704L94.6608 22.5504Z" fill="#F3E8CF"/>
<path id="Vector_21" d="M106.16 23.9403L102.56 22.1103L101.4 24.3903L104.11 25.7603L103.78 26.4303L101.02 25.0503L99.85 27.4503L103.46 29.2803L103.12 29.9503L98.75 27.7303L102.13 21.0703L106.5 23.2803L106.16 23.9403Z" fill="#F3E8CF"/>
<path id="Vector_22" d="M112.67 27.3203C113.268 27.7445 113.757 28.3027 114.1 28.9503C114.387 29.5254 114.492 30.1742 114.4 30.8103C114.281 31.4926 114.002 32.1372 113.587 32.6915C113.172 33.2458 112.632 33.6942 112.01 34.0003C111.427 34.2504 110.784 34.3234 110.16 34.2103C109.43 34.0722 108.744 33.7601 108.16 33.3003L106.16 31.8203L110.64 25.8203L112.67 27.3203ZM108.67 32.7003C108.986 32.976 109.354 33.1853 109.753 33.3158C110.152 33.4464 110.572 33.4955 110.99 33.4603C111.382 33.3887 111.755 33.2384 112.087 33.0184C112.418 32.7983 112.702 32.5132 112.92 32.1803C113.181 31.8731 113.378 31.5165 113.498 31.1316C113.619 30.7467 113.66 30.3416 113.62 29.9403C113.542 29.5318 113.381 29.1437 113.147 28.7997C112.913 28.4558 112.611 28.1633 112.26 27.9403L110.97 26.9403L107.38 31.7303L108.67 32.7003Z" fill="#F3E8CF"/>
<path id="Vector_23" d="M26.2894 51.6303C26.2303 51.6013 26.1661 51.5842 26.1004 51.5801C26.0347 51.576 25.9689 51.5848 25.9066 51.6062C25.8444 51.6276 25.787 51.661 25.7377 51.7046C25.6884 51.7482 25.6482 51.8011 25.6194 51.8603C24.3979 54.3131 23.3519 56.8495 22.4894 59.4503C22.4484 59.5763 22.4591 59.7134 22.5191 59.8315C22.5791 59.9496 22.6835 60.0391 22.8094 60.0803C22.8622 60.0908 22.9166 60.0908 22.9694 60.0803C23.0737 60.0811 23.1756 60.0485 23.2601 59.9873C23.3447 59.9262 23.4075 59.8396 23.4394 59.7403C24.2871 57.1785 25.313 54.679 26.5094 52.2603C26.5591 52.1469 26.564 52.0189 26.5232 51.9021C26.4824 51.7852 26.3989 51.6881 26.2894 51.6303Z" fill="#F3E8CF"/>
<path id="Vector_24" d="M127.02 47.5299C127.116 47.5315 127.21 47.5035 127.29 47.4499C127.401 47.378 127.479 47.2659 127.509 47.1372C127.539 47.0085 127.518 46.8732 127.45 46.7599C125.985 44.4402 124.361 42.2249 122.59 40.1299C122.5 40.0455 122.383 39.9969 122.26 39.9934C122.138 39.9898 122.018 40.0316 121.924 40.1107C121.83 40.1898 121.769 40.3007 121.751 40.4223C121.734 40.5439 121.762 40.6676 121.83 40.7699C123.571 42.8318 125.165 45.0138 126.6 47.2999C126.644 47.371 126.706 47.4294 126.78 47.4697C126.853 47.51 126.936 47.5307 127.02 47.5299Z" fill="#F3E8CF"/>
<path id="Vector_25" d="M40.94 121.66C38.8817 119.92 36.947 118.038 35.15 116.03C35.1036 115.983 35.0483 115.946 34.9873 115.92C34.9264 115.895 34.861 115.882 34.795 115.882C34.729 115.882 34.6637 115.895 34.6028 115.92C34.5418 115.946 34.4865 115.983 34.44 116.03C34.3935 116.075 34.3565 116.13 34.3312 116.19C34.306 116.25 34.293 116.315 34.293 116.38C34.293 116.445 34.306 116.509 34.3312 116.57C34.3565 116.63 34.3935 116.684 34.44 116.73C36.2556 118.769 38.2103 120.68 40.29 122.45C40.3837 122.524 40.5005 122.563 40.62 122.56C40.6917 122.559 40.7624 122.544 40.8278 122.514C40.8932 122.485 40.9518 122.443 41 122.39C41.045 122.338 41.0793 122.278 41.1007 122.214C41.122 122.149 41.1302 122.08 41.1246 122.012C41.119 121.944 41.0998 121.878 41.0681 121.817C41.0364 121.757 40.9928 121.703 40.94 121.66Z" fill="#F3E8CF"/>
<path id="Vector_26" d="M118.56 118.39C116.884 120.063 115.104 121.63 113.23 123.08L113.63 124.08C115.612 122.557 117.493 120.907 119.26 119.14C119.307 119.093 119.345 119.038 119.37 118.977C119.395 118.916 119.408 118.851 119.408 118.785C119.408 118.719 119.395 118.653 119.37 118.592C119.345 118.531 119.307 118.476 119.26 118.43C119.172 118.333 119.05 118.274 118.919 118.266C118.788 118.259 118.659 118.303 118.56 118.39Z" fill="#F3E8CF"/>
<path id="Vector_27" d="M25.8106 101.82C25.7884 101.753 25.7523 101.692 25.7046 101.64C25.6569 101.588 25.5988 101.546 25.534 101.518C25.4692 101.49 25.3992 101.477 25.3286 101.478C25.258 101.479 25.1885 101.495 25.1245 101.524C25.0605 101.554 25.0036 101.597 24.9575 101.651C24.9114 101.704 24.8771 101.767 24.8569 101.834C24.8367 101.902 24.831 101.973 24.8403 102.043C24.8495 102.113 24.8735 102.18 24.9106 102.24C26.0694 104.733 27.4062 107.139 28.9106 109.44C28.9543 109.512 29.0162 109.571 29.0899 109.611C29.1636 109.652 29.2466 109.672 29.3306 109.67C29.4259 109.667 29.5189 109.64 29.6006 109.59C29.7118 109.519 29.7901 109.406 29.8182 109.276C29.8463 109.147 29.822 109.012 29.7506 108.9C28.2738 106.635 26.9573 104.269 25.8106 101.82Z" fill="#F3E8CF"/>
<path id="Vector_28" d="M36.2297 37.6499C36.1832 37.603 36.1279 37.5658 36.067 37.5404C36.0061 37.515 35.9407 37.502 35.8747 37.502C35.8087 37.502 35.7434 37.515 35.6824 37.5404C35.6215 37.5658 35.5662 37.603 35.5197 37.6499C33.6364 39.6445 31.8923 41.7662 30.2997 43.9999C30.2463 44.0748 30.2147 44.1631 30.2083 44.2549C30.2018 44.3467 30.2208 44.4385 30.2632 44.5202C30.3056 44.6019 30.3697 44.6703 30.4485 44.7179C30.5273 44.7654 30.6177 44.7904 30.7097 44.7899C30.79 44.7911 30.8694 44.7727 30.9409 44.736C31.0124 44.6994 31.0738 44.6458 31.1197 44.5799C32.6848 42.3817 34.3988 40.2934 36.2497 38.3299C36.3351 38.236 36.3807 38.1127 36.377 37.9858C36.3732 37.859 36.3205 37.7386 36.2297 37.6499Z" fill="#F3E8CF"/>
<path id="Vector_29" d="M134.929 88.2897C134.799 88.2658 134.666 88.2931 134.556 88.3658C134.446 88.4385 134.368 88.551 134.339 88.6797C133.837 91.3301 133.141 93.9404 132.259 96.4897C132.237 96.5521 132.228 96.6181 132.231 96.6842C132.235 96.7502 132.252 96.8149 132.28 96.8744C132.309 96.9339 132.35 96.9871 132.399 97.031C132.449 97.0748 132.506 97.1083 132.569 97.1297C132.622 97.1392 132.676 97.1392 132.729 97.1297C132.834 97.1295 132.937 97.0967 133.023 97.0359C133.109 96.975 133.174 96.889 133.209 96.7897C134.1 94.1922 134.808 91.5358 135.329 88.8397C135.344 88.7145 135.311 88.5882 135.237 88.4862C135.163 88.3842 135.053 88.314 134.929 88.2897Z" fill="#F3E8CF"/>
<path id="Vector_30" d="M136.361 76.5196C136.361 74.8696 136.221 73.2096 136.051 71.5896C136.046 71.5233 136.027 71.4587 135.997 71.3997C135.966 71.3407 135.924 71.2886 135.872 71.2465C135.821 71.2044 135.761 71.1732 135.697 71.1548C135.634 71.1364 135.567 71.1313 135.501 71.1396C135.369 71.1547 135.248 71.2206 135.164 71.3233C135.08 71.426 135.039 71.5574 135.051 71.6896C135.221 73.2896 135.331 74.9196 135.361 76.5396C135.361 76.9696 135.361 77.3896 135.361 77.8196C135.361 78.4696 135.361 79.1196 135.361 79.7696C135.358 79.9032 135.408 80.0325 135.499 80.1297C135.591 80.227 135.717 80.2844 135.851 80.2896C135.981 80.2871 136.105 80.235 136.198 80.1439C136.291 80.0528 136.346 79.9297 136.351 79.7996C136.351 79.1396 136.351 78.4796 136.351 77.7996C136.381 77.3796 136.371 76.9496 136.361 76.5196Z" fill="#F3E8CF"/>
<path id="Vector_31" d="M129.359 104.52C129.302 104.488 129.238 104.468 129.173 104.461C129.107 104.454 129.041 104.46 128.978 104.478C128.915 104.497 128.856 104.528 128.805 104.569C128.753 104.611 128.711 104.662 128.679 104.72C127.413 107.102 125.98 109.391 124.389 111.57C124.351 111.623 124.323 111.683 124.307 111.747C124.292 111.811 124.289 111.877 124.299 111.942C124.309 112.008 124.332 112.07 124.367 112.126C124.401 112.182 124.446 112.231 124.499 112.27C124.582 112.335 124.684 112.37 124.789 112.37C124.87 112.371 124.949 112.352 125.021 112.316C125.092 112.279 125.154 112.226 125.199 112.16C126.818 109.933 128.275 107.594 129.559 105.16C129.614 105.047 129.623 104.919 129.586 104.8C129.549 104.681 129.468 104.581 129.359 104.52Z" fill="#F3E8CF"/>
<path id="Vector_32" d="M133.9 63.2399H134.02C134.084 63.2238 134.143 63.195 134.196 63.1553C134.248 63.1156 134.292 63.0658 134.324 63.009C134.357 62.9521 134.378 62.8892 134.386 62.8241C134.394 62.759 134.388 62.693 134.37 62.6299C133.66 59.9802 132.765 57.3838 131.69 54.8599C131.666 54.797 131.63 54.7395 131.583 54.691C131.537 54.6424 131.481 54.6038 131.419 54.5773C131.357 54.5509 131.291 54.5372 131.223 54.5371C131.156 54.537 131.089 54.5505 131.028 54.5768C130.966 54.603 130.91 54.6415 130.863 54.69C130.816 54.7384 130.78 54.7957 130.756 54.8586C130.732 54.9215 130.72 54.9885 130.723 55.0558C130.726 55.123 130.742 55.189 130.77 55.2499C131.824 57.7298 132.706 60.2791 133.41 62.8799C133.439 62.9863 133.504 63.0798 133.593 63.1451C133.682 63.2105 133.79 63.2439 133.9 63.2399Z" fill="#F3E8CF"/>
<path id="Vector_33" d="M21.0697 85.4497C21.0625 85.3845 21.042 85.3215 21.0095 85.2645C20.9769 85.2075 20.9331 85.1578 20.8806 85.1185C20.8281 85.0791 20.7681 85.0509 20.7043 85.0357C20.6405 85.0204 20.5743 85.0183 20.5097 85.0297C20.4442 85.037 20.3808 85.0575 20.3234 85.0899C20.266 85.1223 20.2157 85.1659 20.1756 85.2182C20.1354 85.2705 20.1062 85.3303 20.0898 85.3942C20.0733 85.458 20.0699 85.5245 20.0797 85.5897C20.4504 88.3083 21.0084 90.998 21.7497 93.6397C21.7785 93.7444 21.8413 93.8366 21.9281 93.9017C22.015 93.9669 22.1211 94.0013 22.2297 93.9997C22.2725 94.0092 22.3169 94.0092 22.3597 93.9997C22.4866 93.9646 22.5945 93.8808 22.6601 93.7666C22.7256 93.6524 22.7434 93.517 22.7097 93.3897C21.9765 90.785 21.4284 88.1317 21.0697 85.4497Z" fill="#F3E8CF"/>
<path id="Vector_34" d="M20.5703 76.5395C20.6328 73.859 20.88 71.186 21.3103 68.5395C21.3203 68.4745 21.3173 68.4082 21.3015 68.3443C21.2858 68.2805 21.2576 68.2204 21.2186 68.1674C21.1796 68.1145 21.1305 68.0697 21.0742 68.0358C21.0178 68.0018 20.9554 67.9793 20.8903 67.9695C20.7609 67.9519 20.6296 67.9846 20.5235 68.0608C20.4175 68.1371 20.3447 68.2512 20.3203 68.3795C19.8795 71.0887 19.6289 73.8254 19.5703 76.5695C19.5702 76.7014 19.6212 76.8282 19.7126 76.9233C19.8039 77.0184 19.9286 77.0744 20.0603 77.0795C20.1303 77.0812 20.1999 77.0681 20.2645 77.0411C20.3291 77.0141 20.3874 76.9739 20.4354 76.923C20.4835 76.8721 20.5204 76.8116 20.5436 76.7456C20.5668 76.6795 20.5759 76.6093 20.5703 76.5395Z" fill="#F3E8CF"/>
<path id="Vector_35" d="M52.3203 134.35L51.3203 133.93L52.5203 125.29L53.4503 125.7L52.2703 133.08L57.0603 127.27L58.0603 127.7L57.0603 135.14L61.6803 129.28L62.6003 129.68L57.0703 136.45L56.0703 136.03L56.9703 128.82L52.3203 134.35Z" fill="#F3E8CF"/>
<path id="Vector_36" d="M66.0201 130.31L66.9501 130.53L65.0201 138.71L64.0801 138.5L66.0201 130.31Z" fill="#F3E8CF"/>
<path id="Vector_37" d="M77.4091 131.82L76.7891 140.2L75.7891 140.13L71.7891 132.96L71.2891 139.8L70.2891 139.73L70.8991 131.36L71.8991 131.43L75.8991 138.59L76.3991 131.75L77.4091 131.82Z" fill="#F3E8CF"/>
<path id="Vector_38" d="M87.0192 131.86L82.4992 132.4L82.8392 135.25L86.2392 134.84L86.3392 135.68L82.9392 136.08L83.2992 139.08L87.8192 138.54L87.9192 139.38L82.4492 140.03L81.4492 131.69L86.9192 131.04L87.0192 131.86Z" fill="#F3E8CF"/>
<path id="Vector_39" d="M93.5004 129.32C94.0255 129.133 94.588 129.075 95.1404 129.15C95.5771 129.224 95.9834 129.422 96.3104 129.72C96.6256 130.027 96.8564 130.409 96.9804 130.83C97.0781 131.134 97.122 131.452 97.1104 131.77C97.0897 132.088 97.0047 132.397 96.8604 132.68C96.6917 132.989 96.46 133.258 96.1804 133.47C95.8259 133.734 95.4259 133.931 95.0004 134.05L93.0904 134.66L94.0904 137.93L93.1804 138.22L90.6504 130.22L93.5004 129.32ZM96.0504 131.12C95.9948 130.91 95.8971 130.712 95.763 130.54C95.6289 130.369 95.4613 130.226 95.2704 130.12C94.7835 129.92 94.2373 129.92 93.7504 130.12L91.8504 130.72L92.8504 133.85L94.7604 133.25C95.1318 133.163 95.4756 132.984 95.7604 132.73C95.9763 132.541 96.1209 132.283 96.1704 132C96.2007 131.699 96.1488 131.395 96.0204 131.12H96.0504ZM95.5504 133.5L98.9104 136.42L97.9104 136.75L94.6004 133.81L95.5504 133.5Z" fill="#F3E8CF"/>
<path id="Vector_40" d="M104.33 124.45L105.27 123.94L105.02 129.94L106.56 132.78L105.71 133.23L104.18 130.45L99.0195 127.35L99.9595 126.84L104.17 129.4L104.33 124.45Z" fill="#F3E8CF"/>
</g>
<defs>
<clipPath id="clip0_465_24301">
<rect width="155.98" height="155.98" fill="white"/>
</clipPath>
</defs>
</svg>
