<svg width="24" height="25" viewBox="0 0 24 25" fill="none" xmlns="http://www.w3.org/2000/svg">
<g id="Group">
<g id="Group_2">
<path id="Path" fill-rule="evenodd" clip-rule="evenodd" d="M12.425 3.01086L15.147 2.12986C15.791 1.92086 16.491 2.21186 16.799 2.81386L18.1 5.36186C18.232 5.61986 18.442 5.83086 18.701 5.96286L21.217 7.24786C21.838 7.56486 22.137 8.28686 21.922 8.95086L21.052 11.6389C20.963 11.9149 20.963 12.2119 21.052 12.4879L21.933 15.2099C22.142 15.8539 21.851 16.5539 21.249 16.8619L18.701 18.1629C18.443 18.2949 18.232 18.5049 18.1 18.7639L16.798 21.3119C16.49 21.9149 15.79 22.2049 15.146 21.9959L12.424 21.1149C12.148 21.0259 11.851 21.0259 11.575 21.1149L8.85298 21.9959C8.20898 22.2049 7.50898 21.9139 7.20098 21.3119L5.89998 18.7639C5.76798 18.5059 5.55798 18.2949 5.29898 18.1629L2.75098 16.8609C2.14798 16.5529 1.85798 15.8529 2.06698 15.2089L2.94798 12.4869C3.03698 12.2109 3.03698 11.9139 2.94798 11.6379L2.06698 8.91686C1.85898 8.27286 2.14898 7.57186 2.75198 7.26386L5.29898 5.96286C5.55798 5.83086 5.76798 5.62086 5.89998 5.36186L7.20198 2.81386C7.50898 2.21186 8.20998 1.92186 8.85398 2.12986L11.576 3.01086C11.851 3.10086 12.149 3.10086 12.425 3.01086V3.01086Z" stroke="white" stroke-linecap="round" stroke-linejoin="round"/>
<path id="Path_2" d="M9 15.0625L15 9.0625" stroke="white" stroke-linecap="round" stroke-linejoin="round"/>
<path id="Path_3" d="M9.249 9.0625C9.111 9.0625 8.999 9.1745 9 9.3125C9 9.4505 9.112 9.5625 9.25 9.5625C9.388 9.5625 9.5 9.4505 9.5 9.3125C9.5 9.1745 9.388 9.0625 9.249 9.0625" stroke="white" stroke-linecap="round" stroke-linejoin="round"/>
<path id="Path_4" d="M14.749 14.5625C14.611 14.5625 14.499 14.6745 14.5 14.8125C14.5 14.9505 14.612 15.0625 14.75 15.0625C14.888 15.0625 15 14.9505 15 14.8125C15 14.6745 14.888 14.5625 14.749 14.5625" stroke="white" stroke-linecap="round" stroke-linejoin="round"/>
</g>
</g>
</svg>
