<svg width="16" height="17" viewBox="0 0 16 17" fill="none" xmlns="http://www.w3.org/2000/svg">
<g id="Group">
<g id="Group_2">
<path id="Path" d="M7.99868 6.00065C7.90668 6.00065 7.83202 6.07532 7.83268 6.16732C7.83268 6.25932 7.90735 6.33398 7.99935 6.33398C8.09135 6.33398 8.16602 6.25932 8.16602 6.16732C8.16602 6.07532 8.09135 6.00065 7.99868 6.00065" stroke="#CBACAB" stroke-linecap="round" stroke-linejoin="round"/>
<path id="Path_2" fill-rule="evenodd" clip-rule="evenodd" d="M8 14.667V14.667C4.686 14.667 2 11.981 2 8.66699V8.66699C2 5.35299 4.686 2.66699 8 2.66699V2.66699C11.314 2.66699 14 5.35299 14 8.66699V8.66699C14 11.981 11.314 14.667 8 14.667Z" stroke="#CBACAB" stroke-linecap="round" stroke-linejoin="round"/>
<path id="Path_3" d="M7.99935 8.66699V12.0003" stroke="#CBACAB" stroke-linecap="round" stroke-linejoin="round"/>
</g>
</g>
</svg>
