<svg width="83" height="21" viewBox="0 0 83 21" fill="none" xmlns="http://www.w3.org/2000/svg">
<g clip-path="url(#clip0_473_35293)">
<path d="M28.4824 18.6073L29.6915 14.8924H35.5699L36.779 18.6073H40.4699L34.854 2.31595H30.4153L24.7915 18.6073H28.4824ZM30.5665 12.2037L32.571 6.03878H32.6983L34.7028 12.2037H30.5665Z" fill="#61423D"/>
<path d="M42.0535 18.6073H45.4421V11.273C45.4421 9.9207 46.3012 9.02181 47.4307 9.02181C48.5444 9.02181 49.2921 9.78547 49.2921 10.9866V18.6073H52.5773V11.1457C52.5773 9.88093 53.3012 9.02181 54.5341 9.02181C55.616 9.02181 56.4273 9.69797 56.4273 11.0582V18.6073H59.808V10.39C59.808 7.7411 58.233 6.22969 55.958 6.22969C54.1682 6.22969 52.7762 7.14449 52.275 8.54453H52.1478C51.758 7.12858 50.5091 6.22969 48.8307 6.22969C47.1841 6.22969 45.9353 7.10471 45.4262 8.54453H45.283V6.38879H42.0535V18.6073Z" fill="#61423D"/>
<path d="M67.7393 18.8459C70.762 18.8459 72.7984 17.3743 73.2757 15.1072L70.1416 14.9004C69.7995 15.8311 68.9245 16.3163 67.795 16.3163C66.1006 16.3163 65.0268 15.1947 65.0268 13.3731V13.3651H73.3472V12.4344C73.3472 8.28202 70.8336 6.22969 67.6041 6.22969C64.0086 6.22969 61.6779 8.78317 61.6779 12.5537C61.6779 16.4277 63.9768 18.8459 67.7393 18.8459ZM65.0268 11.2651C65.0984 9.87297 66.1563 8.7593 67.6597 8.7593C69.1313 8.7593 70.1495 9.80933 70.1575 11.2651H65.0268Z" fill="#61423D"/>
<path d="M75.245 18.6073H78.6336V11.6946C78.6336 10.1912 79.7314 9.15704 81.2268 9.15704C81.6961 9.15704 82.3405 9.23659 82.6586 9.34V6.3331C82.3564 6.26151 81.9348 6.21378 81.5927 6.21378C80.2245 6.21378 79.103 7.00926 78.6575 8.52066H78.5302V6.38879H75.245V18.6073Z" fill="#61423D"/>
<path d="M21.5882 1.9379C22.0973 1.73424 22.61 2.22331 22.4306 2.74149L16.9561 18.5577C16.8261 18.9332 16.3891 19.1007 16.0415 18.9084L1.74626 11.0006C1.274 10.7393 1.31725 10.0467 1.81835 9.84629L21.5882 1.9379Z" fill="#61423D"/>
</g>
<defs>
<clipPath id="clip0_473_35293">
<rect width="81.92" height="19.2005" fill="white" transform="translate(0.900391 0.919922)"/>
</clipPath>
</defs>
</svg>
