<svg width="20" height="20" viewBox="0 0 20 20" fill="none" xmlns="http://www.w3.org/2000/svg">
<g clip-path="url(#clip0_877_37024)">
<path d="M17.7338 14.3533C17.444 15.023 17.1009 15.6393 16.7034 16.206C16.1615 16.9786 15.7178 17.5134 15.3759 17.8103C14.8459 18.2978 14.278 18.5474 13.6699 18.5616C13.2334 18.5616 12.7069 18.4374 12.094 18.1854C11.4792 17.9345 10.9141 17.8103 10.3975 17.8103C9.85563 17.8103 9.2745 17.9345 8.6529 18.1854C8.03036 18.4374 7.52884 18.5687 7.1454 18.5817C6.56226 18.6065 5.98101 18.3498 5.40082 17.8103C5.03051 17.4873 4.56733 16.9336 4.01246 16.1493C3.41713 15.3116 2.92768 14.3403 2.54424 13.2329C2.13359 12.0368 1.92773 10.8786 1.92773 9.75726C1.92773 8.47278 2.20529 7.36493 2.76122 6.43656C3.19814 5.69086 3.77939 5.10262 4.50687 4.6708C5.23436 4.23897 6.0204 4.01891 6.86691 4.00483C7.33009 4.00483 7.93749 4.14811 8.6923 4.42968C9.44498 4.7122 9.92827 4.85548 10.1402 4.85548C10.2986 4.85548 10.8355 4.68795 11.7456 4.35396C12.6063 4.04423 13.3327 3.91598 13.9278 3.9665C15.5404 4.09664 16.7519 4.73232 17.5576 5.87755C16.1154 6.75138 15.402 7.97529 15.4162 9.54537C15.4292 10.7683 15.8728 11.786 16.7448 12.5941C17.1399 12.9691 17.5812 13.259 18.0722 13.4648C17.9657 13.7736 17.8533 14.0694 17.7338 14.3533ZM14.0355 -0.199871C14.0355 0.758681 13.6853 1.65368 12.9873 2.48208C12.1449 3.46688 11.126 4.03595 10.0211 3.94615C10.0071 3.83116 9.9989 3.71013 9.9989 3.58294C9.9989 2.66274 10.3995 1.67793 11.1109 0.872719C11.4661 0.465026 11.9178 0.126035 12.4655 -0.144384C13.0121 -0.410769 13.5291 -0.558086 14.0154 -0.583313C14.0296 -0.45517 14.0355 -0.327018 14.0355 -0.199883V-0.199871Z" fill="white"/>
</g>
<defs>
<clipPath id="clip0_877_37024">
<rect width="20" height="20" fill="white"/>
</clipPath>
</defs>
</svg>
