<svg width="18" height="21" viewBox="0 0 18 21" fill="none" xmlns="http://www.w3.org/2000/svg">
<g id="Group">
<g id="Group 1">
<path id="Path" d="M3.44238 5.0625H6.55764" stroke="white" stroke-linecap="round" stroke-linejoin="round"/>
<path id="Path_2" d="M8.76752 11.0625H1.23242" stroke="white" stroke-linecap="round" stroke-linejoin="round"/>
<path id="Path_3" d="M9 16.0625H1" stroke="white" stroke-linecap="round" stroke-linejoin="round"/>
<path id="Path_4" fill-rule="evenodd" clip-rule="evenodd" d="M9 13.0625V18.0625C9 19.1671 8.10457 20.0625 7 20.0625H3C1.89543 20.0625 1 19.1671 1 18.0625V13.0625C0.99981 11.4768 1.43197 9.92096 2.25 8.5625V8.5625C3.06782 7.20395 3.49997 5.64822 3.5 4.0625V2.0625C3.5 1.51022 3.94772 1.0625 4.5 1.0625H5.5C6.05228 1.0625 6.5 1.51022 6.5 2.0625V4.0625C6.49981 5.64825 6.93197 7.20404 7.75 8.5625V8.5625C8.56782 9.92105 8.99997 11.4768 9 13.0625Z" stroke="white" stroke-linecap="round" stroke-linejoin="round"/>
</g>
<g id="Group 2">
<path id="Path_5" d="M11.4424 5.0625H14.5576" stroke="white" stroke-linecap="round" stroke-linejoin="round"/>
<path id="Path_6" d="M16.7675 11.0625H9.23242" stroke="white" stroke-linecap="round" stroke-linejoin="round"/>
<path id="Path_7" d="M17 16.0625H9" stroke="white" stroke-linecap="round" stroke-linejoin="round"/>
<path id="Path_8" fill-rule="evenodd" clip-rule="evenodd" d="M17 13.0625V18.0625C17 19.1671 16.1046 20.0625 15 20.0625H11C9.89543 20.0625 9 19.1671 9 18.0625V13.0625C8.99981 11.4768 9.43197 9.92096 10.25 8.5625V8.5625C11.0678 7.20395 11.5 5.64822 11.5 4.0625V2.0625C11.5 1.51022 11.9477 1.0625 12.5 1.0625H13.5C14.0523 1.0625 14.5 1.51022 14.5 2.0625V4.0625C14.4998 5.64825 14.932 7.20404 15.75 8.5625V8.5625C16.5678 9.92105 17 11.4768 17 13.0625Z" stroke="white" stroke-linecap="round" stroke-linejoin="round"/>
</g>
</g>
</svg>
