<svg width="32" height="32" viewBox="0 0 32 32" fill="none" xmlns="http://www.w3.org/2000/svg">
<g id="Group">
<path id="Path" d="M19.4464 13.332C20.1641 14.5688 20.1641 16.0953 19.4464 17.332" stroke="white" stroke-linecap="round" stroke-linejoin="round"/>
<rect id="Rectangle" x="4" y="4" width="24" height="24" rx="5" stroke="white" stroke-linecap="round" stroke-linejoin="round"/>
<path id="Path_2" d="M12.553 13.332C11.8353 14.5688 11.8353 16.0953 12.553 17.332" stroke="white" stroke-linecap="round" stroke-linejoin="round"/>
<path id="Path_3" d="M22.4659 10.668C24.4791 13.4534 24.4791 17.2159 22.4658 20.0013" stroke="white" stroke-linecap="round" stroke-linejoin="round"/>
<path id="Path_4" d="M9.53432 10.668C7.52108 13.4534 7.52111 17.2159 9.5344 20.0013" stroke="white" stroke-linecap="round" stroke-linejoin="round"/>
<path id="Path_5" d="M15.9335 15.268C15.9703 15.2681 16 15.298 15.9999 15.3348C15.9998 15.3716 15.97 15.4013 15.9332 15.4013C15.8964 15.4013 15.8666 15.3714 15.8666 15.3346C15.8665 15.3169 15.8735 15.2998 15.8861 15.2873C15.8987 15.2748 15.9158 15.2678 15.9335 15.268" stroke="white" stroke-linecap="round" stroke-linejoin="round"/>
</g>
</svg>
