<svg width="7" height="24" viewBox="0 0 7 24" fill="none" xmlns="http://www.w3.org/2000/svg">
<path fill-rule="evenodd" clip-rule="evenodd" d="M0.367839 13.5121C-0.30773 16.0147 0.153991 20.534 0.153991 23.2782C0.153991 23.6751 0.478457 24 0.875083 24H6.14042C6.52875 24 6.84653 23.682 6.84653 23.2931C6.84653 20.4717 7.31522 16.0408 6.61447 13.4447C5.86433 10.6654 4.68599 7.5803 4.68599 4.73233V1.68246V1.55502H4.68984C4.77434 1.55502 4.84337 1.48583 4.84337 1.40134V0.848122C4.84337 0.763634 4.77434 0.694544 4.68984 0.694544H4.68599V0.530127V0.522425C4.68184 0.234417 4.44512 0 4.15648 0H2.72887C2.50096 0 2.31453 0.186707 2.31453 0.414843V0.522425V0.694544H2.31059C2.22618 0.694544 2.15716 0.763634 2.15716 0.848122V1.40134C2.15716 1.48583 2.22618 1.55502 2.31059 1.55502H2.31453V1.68246V4.73233C2.31453 7.59418 1.12203 10.7179 0.367839 13.5121Z" fill="white"/>
</svg>
