<svg width="75" height="21" viewBox="0 0 75 21" fill="none" xmlns="http://www.w3.org/2000/svg">
<path d="M4.04494 19.6346C2.8844 19.6346 1.99694 19.353 1.38254 18.7898C0.768138 18.2095 0.460938 17.3988 0.460938 16.3577C0.460938 15.8457 0.520671 15.3593 0.640137 14.8985L3.37934 2.07256L7.16814 1.56055L5.93934 7.3207C6.4172 7.03056 6.80974 6.84282 7.11694 6.75749C7.42414 6.65509 7.73134 6.60388 8.03854 6.60388C10.0524 6.60388 11.0593 8.06312 11.0593 10.9816C11.0593 12.1592 10.8289 13.4222 10.3681 14.7705C9.9244 16.1017 9.17347 17.2452 8.11534 18.201C7.07427 19.1568 5.71747 19.6346 4.04494 19.6346ZM5.47854 17.1514C6.0076 17.1514 6.50254 16.8271 6.96334 16.1785C7.42414 15.5129 7.79107 14.6937 8.06414 13.7209C8.3372 12.731 8.47374 11.7838 8.47374 10.8792C8.47374 10.1965 8.35427 9.61623 8.11534 9.13835C7.8764 8.66047 7.5436 8.42153 7.11694 8.42153C6.86094 8.42153 6.5708 8.4642 6.24654 8.54954C5.93934 8.61781 5.726 8.72874 5.60654 8.88235L4.19854 15.3849C4.14734 15.5897 4.12174 15.786 4.12174 15.9737C4.12174 16.7588 4.574 17.1514 5.47854 17.1514Z" fill="#61423D"/>
<path d="M14.1911 19.6346C13.3719 19.6346 12.7063 19.3786 12.1943 18.8666C11.6994 18.3546 11.4519 17.5866 11.4519 16.5626C11.4519 16.1359 11.5202 15.5812 11.6567 14.8985L13.3975 6.68069H17.0839L15.2407 15.3849C15.1895 15.6409 15.1639 15.8799 15.1639 16.1017C15.1639 16.8015 15.4199 17.1514 15.9319 17.1514C16.4098 17.1514 16.8194 16.9551 17.1607 16.5626C17.5021 16.1529 17.7751 15.5983 17.9799 14.8985L19.7207 6.68069H23.4071L21.5639 15.3849C21.4957 15.6409 21.4615 15.914 21.4615 16.2041C21.4615 16.5455 21.5383 16.793 21.6919 16.9466C21.8626 17.0831 22.1357 17.1514 22.5111 17.1514C22.989 17.1514 23.3986 16.9466 23.7399 16.537C24.0983 16.1273 24.3799 15.5812 24.5847 14.8985H25.6599C25.0285 16.7418 24.2434 17.9962 23.3047 18.6618C22.3831 19.3104 21.453 19.6346 20.5143 19.6346C19.7805 19.6346 19.1917 19.4298 18.7479 19.0202C18.3213 18.6106 18.0653 18.0047 17.9799 17.2026C17.3997 18.1413 16.7853 18.7813 16.1367 19.1226C15.5053 19.464 14.8567 19.6346 14.1911 19.6346Z" fill="#61423D"/>
<path d="M27.6281 19.6346C26.4676 19.6346 25.5801 19.353 24.9657 18.7898C24.3513 18.2095 24.0441 17.3988 24.0441 16.3577C24.0441 15.8457 24.1039 15.3593 24.2233 14.8985L26.9625 2.07256L30.7513 1.56055L29.5225 7.3207C30.0004 7.03056 30.3929 6.84282 30.7001 6.75749C31.0073 6.65509 31.3145 6.60388 31.6217 6.60388C33.6356 6.60388 34.6425 8.06312 34.6425 10.9816C34.6425 12.1592 34.4121 13.4222 33.9513 14.7705C33.5076 16.1017 32.7567 17.2452 31.6985 18.201C30.6575 19.1568 29.3007 19.6346 27.6281 19.6346ZM29.0617 17.1514C29.5908 17.1514 30.0857 16.8271 30.5465 16.1785C31.0073 15.5129 31.3743 14.6937 31.6473 13.7209C31.9204 12.731 32.0569 11.7838 32.0569 10.8792C32.0569 10.1965 31.9375 9.61623 31.6985 9.13835C31.4596 8.66047 31.1268 8.42153 30.7001 8.42153C30.4441 8.42153 30.154 8.4642 29.8297 8.54954C29.5225 8.61781 29.3092 8.72874 29.1897 8.88235L27.7817 15.3849C27.7305 15.5897 27.7049 15.786 27.7049 15.9737C27.7049 16.7588 28.1572 17.1514 29.0617 17.1514Z" fill="#61423D"/>
<path d="M38.6447 19.6346C37.4842 19.6346 36.5967 19.353 35.9823 18.7898C35.3679 18.2095 35.0607 17.3988 35.0607 16.3577C35.0607 15.8457 35.1205 15.3593 35.2399 14.8985L37.9791 2.07256L41.7679 1.56055L40.5391 7.3207C41.017 7.03056 41.4095 6.84282 41.7167 6.75749C42.0239 6.65509 42.3311 6.60388 42.6383 6.60388C44.6522 6.60388 45.6591 8.06312 45.6591 10.9816C45.6591 12.1592 45.4287 13.4222 44.9679 14.7705C44.5242 16.1017 43.7733 17.2452 42.7151 18.201C41.6741 19.1568 40.3173 19.6346 38.6447 19.6346ZM40.0783 17.1514C40.6074 17.1514 41.1023 16.8271 41.5631 16.1785C42.0239 15.5129 42.3909 14.6937 42.6639 13.7209C42.937 12.731 43.0735 11.7838 43.0735 10.8792C43.0735 10.1965 42.9541 9.61623 42.7151 9.13835C42.4762 8.66047 42.1434 8.42153 41.7167 8.42153C41.4607 8.42153 41.1706 8.4642 40.8463 8.54954C40.5391 8.61781 40.3258 8.72874 40.2063 8.88235L38.7983 15.3849C38.7471 15.5897 38.7215 15.786 38.7215 15.9737C38.7215 16.7588 39.1738 17.1514 40.0783 17.1514Z" fill="#61423D"/>
<path d="M49.6613 19.6346C48.5008 19.6346 47.6133 19.353 46.9989 18.7898C46.3845 18.2095 46.0773 17.3988 46.0773 16.3577C46.0773 15.8457 46.1371 15.3593 46.2565 14.8985L48.9957 2.07256L52.7845 1.56055L51.5557 7.3207C52.0336 7.03056 52.4261 6.84282 52.7333 6.75749C53.0405 6.65509 53.3477 6.60388 53.6549 6.60388C55.6688 6.60388 56.6757 8.06312 56.6757 10.9816C56.6757 12.1592 56.4453 13.4222 55.9845 14.7705C55.5408 16.1017 54.7899 17.2452 53.7317 18.201C52.6907 19.1568 51.3339 19.6346 49.6613 19.6346ZM51.0949 17.1514C51.624 17.1514 52.1189 16.8271 52.5797 16.1785C53.0405 15.5129 53.4075 14.6937 53.6805 13.7209C53.9536 12.731 54.0901 11.7838 54.0901 10.8792C54.0901 10.1965 53.9707 9.61623 53.7317 9.13835C53.4928 8.66047 53.16 8.42153 52.7333 8.42153C52.4773 8.42153 52.1872 8.4642 51.8629 8.54954C51.5557 8.61781 51.3424 8.72874 51.2229 8.88235L49.8149 15.3849C49.7637 15.5897 49.7381 15.786 49.7381 15.9737C49.7381 16.7588 50.1904 17.1514 51.0949 17.1514Z" fill="#61423D"/>
<path d="M59.8075 19.6346C58.9883 19.6346 58.3227 19.3786 57.8107 18.8666C57.3158 18.3546 57.0683 17.5866 57.0683 16.5626C57.0683 16.1359 57.1366 15.5812 57.2731 14.8985L60.0123 2.07256L63.8011 1.56055L60.8571 15.3849C60.7889 15.6409 60.7547 15.914 60.7547 16.2041C60.7547 16.5455 60.8315 16.793 60.9851 16.9466C61.1558 17.0831 61.4289 17.1514 61.8043 17.1514C62.2993 17.1514 62.7601 16.9466 63.1867 16.537C63.6134 16.1103 63.9206 15.5641 64.1083 14.8985H65.1835C64.5521 16.7418 63.7414 17.9962 62.7515 18.6618C61.7617 19.3104 60.7803 19.6346 59.8075 19.6346Z" fill="#61423D"/>
<path d="M67.3493 19.6346C66.1035 19.6346 65.1307 19.3104 64.4309 18.6618C63.7312 17.9962 63.3813 16.9636 63.3813 15.5641C63.3813 14.3865 63.6117 13.0894 64.0725 11.6728C64.5333 10.2562 65.2843 9.03595 66.3253 8.01192C67.3664 6.97083 68.6891 6.45028 70.2933 6.45028C72.1707 6.45028 73.1093 7.2695 73.1093 8.90795C73.1093 9.86371 72.8363 10.7427 72.2901 11.5448C71.744 12.347 71.0187 12.9955 70.1141 13.4905C69.2096 13.9684 68.2453 14.2414 67.2213 14.3097C67.1872 14.6852 67.1701 14.9412 67.1701 15.0777C67.1701 16.4943 67.6992 17.2026 68.7573 17.2026C69.2352 17.2026 69.7472 17.0746 70.2933 16.8186C70.8395 16.5626 71.3344 16.2383 71.7781 15.8457C71.3173 18.3717 69.8411 19.6346 67.3493 19.6346ZM67.4005 13.0809C68.0491 13.0638 68.6549 12.8505 69.2181 12.4408C69.7984 12.0312 70.2592 11.5107 70.6005 10.8792C70.9589 10.2306 71.1381 9.5565 71.1381 8.85675C71.1381 8.15699 70.9248 7.80712 70.4981 7.80712C69.9008 7.80712 69.3035 8.35326 68.7061 9.44556C68.1259 10.5208 67.6907 11.7326 67.4005 13.0809Z" fill="#61423D"/>
</svg>
