<svg width="17" height="18" viewBox="0 0 17 18" fill="none" xmlns="http://www.w3.org/2000/svg">
<g id="Group">
<path id="Path" fill-rule="evenodd" clip-rule="evenodd" d="M4.40805 11.1796L2.87305 3.93359H15.499C16.15 3.93359 16.627 4.54459 16.469 5.17659L15.121 10.5686C14.916 11.3876 14.22 11.9896 13.38 12.0736L6.56405 12.7556C5.54805 12.8566 4.61905 12.1776 4.40805 11.1796Z" stroke="white" stroke-linecap="round" stroke-linejoin="round"/>
<path id="Path_2" d="M2.874 3.93359L2.224 0.933594H0.5" stroke="white" stroke-linecap="round" stroke-linejoin="round"/>
<path id="Path_3" d="M14.1093 16.2004C13.9073 16.2004 13.7433 16.3644 13.7453 16.5664C13.7453 16.7684 13.9093 16.9324 14.1113 16.9324C14.3133 16.9324 14.4773 16.7684 14.4773 16.5664C14.4763 16.3644 14.3123 16.2004 14.1093 16.2004" stroke="white" stroke-linecap="round" stroke-linejoin="round"/>
<path id="Path_4" d="M5.69773 16.2009C5.49573 16.2009 5.33173 16.3649 5.33373 16.5669C5.33173 16.7699 5.49673 16.9339 5.69873 16.9339C5.90073 16.9339 6.06473 16.7699 6.06473 16.5679C6.06473 16.3649 5.90073 16.2009 5.69773 16.2009" stroke="white" stroke-linecap="round" stroke-linejoin="round"/>
</g>
</svg>
