<svg width="26" height="26" viewBox="0 0 26 26" fill="none" xmlns="http://www.w3.org/2000/svg">
<g id="Group">
<path id="Path" fill-rule="evenodd" clip-rule="evenodd" d="M1 1.03906H25V25.0391H1V1.03906Z" stroke="white"/>
<path id="Path_2" d="M4 16.539L6 16.5391" stroke="white" stroke-linecap="round" stroke-linejoin="round"/>
<path id="Path_3" d="M4 13.0389L5.99982 13.0392" stroke="white" stroke-linecap="round" stroke-linejoin="round"/>
<path id="Path_4" d="M4 9.53904L5.99964 9.53909" stroke="white" stroke-linecap="round" stroke-linejoin="round"/>
<path id="Path_5" d="M22 9.53909L20 9.53904" stroke="white" stroke-linecap="round" stroke-linejoin="round"/>
<path id="Path_6" d="M21.9998 13.0392L20 13.0389" stroke="white" stroke-linecap="round" stroke-linejoin="round"/>
<path id="Path_7" d="M21.9996 16.5391L20 16.539" stroke="white" stroke-linecap="round" stroke-linejoin="round"/>
<path id="Path_8" d="M9.50002 4.03906L9.49997 6.03906" stroke="white" stroke-linecap="round" stroke-linejoin="round"/>
<path id="Path_9" d="M13.0002 4.03906L12.9998 6.03888" stroke="white" stroke-linecap="round" stroke-linejoin="round"/>
<path id="Path_10" d="M16.5 4.03906L16.5 6.0387" stroke="white" stroke-linecap="round" stroke-linejoin="round"/>
<path id="Path_11" d="M16.4999 22.0391L16.5001 20.0391" stroke="white" stroke-linecap="round" stroke-linejoin="round"/>
<path id="Path_12" d="M12.9998 22.0389L13.0002 20.0391" stroke="white" stroke-linecap="round" stroke-linejoin="round"/>
<path id="Path_13" d="M9.49997 22.0387L9.50002 20.0391" stroke="white" stroke-linecap="round" stroke-linejoin="round"/>
<path id="Path_14" fill-rule="evenodd" clip-rule="evenodd" d="M16 20.0391H10C7.79086 20.0391 6 18.2482 6 16.0391V10.0391C6 7.82992 7.79086 6.03906 10 6.03906H16C18.2091 6.03906 20 7.82992 20 10.0391V16.0391C20 18.2482 18.2091 20.0391 16 20.0391Z" stroke="white" stroke-linecap="round" stroke-linejoin="round"/>
<path id="Path_15" d="M9.73242 14.418H13.2767" stroke="white" stroke-linecap="round" stroke-linejoin="round"/>
<path id="Path_16" d="M13.5795 15.3383L12.0895 10.7383H10.9295L9.43945 15.3383" stroke="white" stroke-linecap="round" stroke-linejoin="round"/>
<path id="Path_17" d="M16.1094 15.3383V10.7383" stroke="white" stroke-linecap="round" stroke-linejoin="round"/>
</g>
</svg>
