<svg width="84" height="21" viewBox="0 0 84 21" fill="none" xmlns="http://www.w3.org/2000/svg">
<path d="M12.0942 4.49078C12.0942 4.56545 12.0643 4.63266 12.0046 4.69239C11.9598 4.73719 11.9 4.75959 11.8254 4.75959H4.18696C4.1123 4.75959 4.07496 4.79693 4.07496 4.8716V9.06051C4.07496 9.13518 4.1123 9.17251 4.18696 9.17251H9.31656C9.39123 9.17251 9.45096 9.20238 9.49576 9.26212C9.5555 9.30692 9.58536 9.36665 9.58536 9.44132V11.1438C9.58536 11.2184 9.5555 11.2856 9.49576 11.3454C9.45096 11.3902 9.39123 11.4126 9.31656 11.4126H4.18696C4.1123 11.4126 4.07496 11.4499 4.07496 11.5246V15.8479C4.07496 15.9226 4.1123 15.9599 4.18696 15.9599H11.8254C11.9 15.9599 11.9598 15.9898 12.0046 16.0495C12.0643 16.0943 12.0942 16.154 12.0942 16.2287V17.9312C12.0942 18.0058 12.0643 18.073 12.0046 18.1328C11.9598 18.1776 11.9 18.2 11.8254 18.2H1.74536C1.6707 18.2 1.6035 18.1776 1.54376 18.1328C1.49896 18.073 1.47656 18.0058 1.47656 17.9312V2.78834C1.47656 2.71367 1.49896 2.65394 1.54376 2.60913C1.6035 2.5494 1.6707 2.51953 1.74536 2.51953H11.8254C11.9 2.51953 11.9598 2.5494 12.0046 2.60913C12.0643 2.65394 12.0942 2.71367 12.0942 2.78834V4.49078Z" fill="#61423D"/>
<path d="M19.6608 6.57404C20.8704 6.57404 21.8336 6.93245 22.5504 7.64927C23.2821 8.36609 23.648 9.34425 23.648 10.5838V17.9312C23.648 18.0058 23.6181 18.073 23.5584 18.1328C23.5136 18.1776 23.4539 18.2 23.3792 18.2H21.3184C21.2437 18.2 21.1765 18.1776 21.1168 18.1328C21.072 18.073 21.0496 18.0058 21.0496 17.9312V11.1214C21.0496 10.4344 20.8555 9.88187 20.4672 9.46372C20.0789 9.03064 19.5637 8.8141 18.9216 8.8141C18.2795 8.8141 17.7568 9.02318 17.3536 9.44132C16.9653 9.85946 16.7712 10.412 16.7712 11.099V17.9312C16.7712 18.0058 16.7413 18.073 16.6816 18.1328C16.6368 18.1776 16.5771 18.2 16.5024 18.2H14.4416C14.3669 18.2 14.2997 18.1776 14.24 18.1328C14.1952 18.073 14.1728 18.0058 14.1728 17.9312V7.02205C14.1728 6.94739 14.1952 6.88765 14.24 6.84285C14.2997 6.78311 14.3669 6.75325 14.4416 6.75325H16.5024C16.5771 6.75325 16.6368 6.78311 16.6816 6.84285C16.7413 6.88765 16.7712 6.94739 16.7712 7.02205V7.73887C16.7712 7.78368 16.7861 7.81354 16.816 7.82848C16.8459 7.84341 16.8683 7.82848 16.8832 7.78367C17.4955 6.97725 18.4213 6.57404 19.6608 6.57404Z" fill="#61423D"/>
<path d="M31.5097 6.57404C32.7193 6.57404 33.6825 6.93245 34.3993 7.64927C35.131 8.36609 35.4969 9.34425 35.4969 10.5838V17.9312C35.4969 18.0058 35.467 18.073 35.4073 18.1328C35.3625 18.1776 35.3028 18.2 35.2281 18.2H33.1673C33.0926 18.2 33.0254 18.1776 32.9657 18.1328C32.9209 18.073 32.8985 18.0058 32.8985 17.9312V11.1214C32.8985 10.4344 32.7044 9.88187 32.3161 9.46372C31.9278 9.03064 31.4126 8.8141 30.7705 8.8141C30.1284 8.8141 29.6057 9.02318 29.2025 9.44132C28.8142 9.85946 28.6201 10.412 28.6201 11.099V17.9312C28.6201 18.0058 28.5902 18.073 28.5305 18.1328C28.4857 18.1776 28.426 18.2 28.3513 18.2H26.2905C26.2158 18.2 26.1486 18.1776 26.0889 18.1328C26.0441 18.073 26.0217 18.0058 26.0217 17.9312V2.78834C26.0217 2.71367 26.0441 2.65394 26.0889 2.60913C26.1486 2.5494 26.2158 2.51953 26.2905 2.51953H28.3513C28.426 2.51953 28.4857 2.5494 28.5305 2.60913C28.5902 2.65394 28.6201 2.71367 28.6201 2.78834V7.73887C28.6201 7.78368 28.635 7.81354 28.6649 7.82848C28.6948 7.84341 28.7172 7.82848 28.7321 7.78367C29.3444 6.97725 30.2702 6.57404 31.5097 6.57404Z" fill="#61423D"/>
<path d="M42.2605 6.57404C43.2013 6.57404 44.0301 6.73831 44.7469 7.06686C45.4637 7.3954 46.0162 7.85088 46.4045 8.43329C46.7928 9.00077 46.9869 9.65039 46.9869 10.3821V17.9312C46.9869 18.0058 46.957 18.073 46.8973 18.1328C46.8525 18.1776 46.7928 18.2 46.7181 18.2H44.6573C44.5826 18.2 44.5154 18.1776 44.4557 18.1328C44.4109 18.073 44.3885 18.0058 44.3885 17.9312V17.2143C44.3885 17.1695 44.3736 17.1471 44.3437 17.1471C44.3138 17.1322 44.284 17.1397 44.2541 17.1695C43.5224 17.976 42.4621 18.3792 41.0733 18.3792C39.9533 18.3792 39.0274 18.0954 38.2957 17.5279C37.5789 16.9605 37.2205 16.1167 37.2205 14.9967C37.2205 13.8318 37.6237 12.9283 38.4301 12.2862C39.2514 11.6291 40.4013 11.3006 41.8797 11.3006H44.2765C44.3512 11.3006 44.3885 11.2632 44.3885 11.1886V10.651C44.3885 10.0685 44.2168 9.62052 43.8733 9.30692C43.5298 8.97837 43.0146 8.8141 42.3277 8.8141C41.7602 8.8141 41.2973 8.91864 40.9389 9.12771C40.5954 9.32185 40.3789 9.59812 40.2893 9.95653C40.2445 10.1357 40.14 10.2104 39.9757 10.1805L37.8029 9.91173C37.7282 9.8968 37.661 9.8744 37.6013 9.84453C37.5565 9.79973 37.5416 9.74746 37.5565 9.68773C37.676 8.77677 38.1613 8.03008 39.0125 7.44767C39.8786 6.86525 40.9613 6.57404 42.2605 6.57404ZM41.7229 16.3183C42.4546 16.3183 43.0818 16.1242 43.6045 15.7359C44.1272 15.3476 44.3885 14.8548 44.3885 14.2575V13.2046C44.3885 13.13 44.3512 13.0926 44.2765 13.0926H42.3949C41.6034 13.0926 40.9762 13.242 40.5133 13.5406C40.0653 13.8393 39.8413 14.2649 39.8413 14.8175C39.8413 15.2953 40.013 15.6687 40.3565 15.9375C40.7149 16.1914 41.1704 16.3183 41.7229 16.3183Z" fill="#61423D"/>
<path d="M54.77 6.57404C55.9796 6.57404 56.9428 6.93245 57.6596 7.64927C58.3913 8.36609 58.7572 9.34425 58.7572 10.5838V17.9312C58.7572 18.0058 58.7273 18.073 58.6676 18.1328C58.6228 18.1776 58.5631 18.2 58.4884 18.2H56.4276C56.3529 18.2 56.2857 18.1776 56.226 18.1328C56.1812 18.073 56.1588 18.0058 56.1588 17.9312V11.1214C56.1588 10.4344 55.9647 9.88187 55.5764 9.46372C55.1881 9.03064 54.6729 8.8141 54.0308 8.8141C53.3887 8.8141 52.866 9.02318 52.4628 9.44132C52.0745 9.85946 51.8804 10.412 51.8804 11.099V17.9312C51.8804 18.0058 51.8505 18.073 51.7908 18.1328C51.746 18.1776 51.6863 18.2 51.6116 18.2H49.5508C49.4761 18.2 49.4089 18.1776 49.3492 18.1328C49.3044 18.073 49.282 18.0058 49.282 17.9312V7.02205C49.282 6.94739 49.3044 6.88765 49.3492 6.84285C49.4089 6.78311 49.4761 6.75325 49.5508 6.75325H51.6116C51.6863 6.75325 51.746 6.78311 51.7908 6.84285C51.8505 6.88765 51.8804 6.94739 51.8804 7.02205V7.73887C51.8804 7.78368 51.8953 7.81354 51.9252 7.82848C51.9551 7.84341 51.9775 7.82848 51.9924 7.78367C52.6047 6.97725 53.5305 6.57404 54.77 6.57404Z" fill="#61423D"/>
<path d="M65.8365 18.3792C64.6866 18.3792 63.6936 18.088 62.8573 17.5055C62.021 16.9082 61.4386 16.1092 61.1101 15.1087C60.8712 14.4367 60.7517 13.5406 60.7517 12.4206C60.7517 11.3454 60.8712 10.4643 61.1101 9.77733C61.4237 8.7917 61.9986 8.01515 62.8349 7.44767C63.6861 6.86525 64.6866 6.57404 65.8365 6.57404C67.0013 6.57404 68.0168 6.86525 68.8829 7.44767C69.749 8.03008 70.324 8.76184 70.6077 9.64293C70.6824 9.88187 70.7346 10.1208 70.7645 10.3597V10.4045C70.7645 10.5539 70.6824 10.6435 70.5181 10.6734L68.5021 10.9646H68.4573C68.3229 10.9646 68.2333 10.8899 68.1885 10.7406C68.1885 10.6659 68.181 10.6062 68.1661 10.5613C68.1362 10.4419 68.1064 10.3373 68.0765 10.2477C67.9421 9.8296 67.6733 9.48612 67.2701 9.21731C66.8669 8.94851 66.389 8.8141 65.8365 8.8141C65.269 8.8141 64.7837 8.96344 64.3805 9.26212C63.9922 9.54586 63.7309 9.9416 63.5965 10.4493C63.4472 10.9272 63.3725 11.5918 63.3725 12.443C63.3725 13.2644 63.4397 13.9289 63.5741 14.4367C63.7234 14.9593 63.9922 15.3775 64.3805 15.6911C64.7688 15.9898 65.2541 16.1391 65.8365 16.1391C66.404 16.1391 66.8893 15.9972 67.2925 15.7135C67.7106 15.4148 67.9794 15.0191 68.0989 14.5263C68.1138 14.4964 68.1213 14.4591 68.1213 14.4143C68.1362 14.3993 68.1437 14.3769 68.1437 14.3471C68.1885 14.1678 68.293 14.0932 68.4573 14.123L70.4733 14.4367C70.548 14.4516 70.6077 14.4889 70.6525 14.5487C70.7122 14.5935 70.7346 14.6607 70.7197 14.7503C70.6749 14.9892 70.6376 15.1609 70.6077 15.2655C70.324 16.2212 69.749 16.9829 68.8829 17.5503C68.0168 18.1029 67.0013 18.3792 65.8365 18.3792Z" fill="#61423D"/>
<path d="M82.1967 11.1886C82.2564 11.5619 82.2863 11.9801 82.2863 12.443L82.2639 13.1374C82.2639 13.3166 82.1743 13.4062 81.9951 13.4062H74.9839C74.9092 13.4062 74.8719 13.4436 74.8719 13.5182C74.9167 14.011 74.9839 14.3471 75.0735 14.5263C75.4319 15.6015 76.3055 16.1466 77.6943 16.1615C78.7098 16.1615 79.5162 15.7434 80.1135 14.9071C80.1732 14.8175 80.2479 14.7727 80.3375 14.7727C80.3972 14.7727 80.4495 14.7951 80.4943 14.8399L81.8831 15.9823C82.0175 16.0868 82.0399 16.2063 81.9503 16.3407C81.4874 16.9978 80.8676 17.5055 80.0911 17.8639C79.3295 18.2224 78.4783 18.4016 77.5375 18.4016C76.3727 18.4016 75.3796 18.1402 74.5583 17.6175C73.7519 17.0949 73.162 16.3631 72.7887 15.4223C72.4452 14.6159 72.2735 13.4958 72.2735 12.0622C72.2735 11.196 72.3631 10.4941 72.5423 9.95653C72.841 8.91117 73.401 8.08982 74.2223 7.49247C75.0586 6.88018 76.0591 6.57404 77.2239 6.57404C80.1658 6.57404 81.8234 8.11222 82.1967 11.1886ZM77.2239 8.8141C76.6714 8.8141 76.2084 8.95597 75.8351 9.23972C75.4767 9.50852 75.2228 9.88933 75.0735 10.3821C74.9839 10.636 74.9242 10.9646 74.8943 11.3678C74.8644 11.4424 74.8943 11.4798 74.9839 11.4798H79.5311C79.6058 11.4798 79.6431 11.4424 79.6431 11.3678C79.6132 10.9944 79.5684 10.7107 79.5087 10.5165C79.3743 9.97893 79.1055 9.56079 78.7023 9.26212C78.314 8.96344 77.8212 8.8141 77.2239 8.8141Z" fill="#61423D"/>
</svg>
