<svg width="18" height="21" viewBox="0 0 18 21" fill="none" xmlns="http://www.w3.org/2000/svg">
<g id="Group">
<g id="Group 1">
<path id="Path" d="M3.44141 5H6.55667" stroke="#BF4D20" stroke-linecap="round" stroke-linejoin="round"/>
<path id="Path_2" d="M8.76752 11H1.23242" stroke="#BF4D20" stroke-linecap="round" stroke-linejoin="round"/>
<path id="Path_3" d="M9 16H1" stroke="#BF4D20" stroke-linecap="round" stroke-linejoin="round"/>
<path id="Path_4" fill-rule="evenodd" clip-rule="evenodd" d="M9 13V18C9 19.1046 8.10457 20 7 20H3C1.89543 20 1 19.1046 1 18V13C0.99981 11.4143 1.43197 9.85846 2.25 8.5V8.5C3.06782 7.14145 3.49997 5.58572 3.5 4V2C3.5 1.44772 3.94772 1 4.5 1H5.5C6.05228 1 6.5 1.44772 6.5 2V4C6.49981 5.58575 6.93197 7.14154 7.75 8.5V8.5C8.56782 9.85855 8.99997 11.4143 9 13Z" stroke="#BF4D20" stroke-linecap="round" stroke-linejoin="round"/>
</g>
<g id="Group 2">
<path id="Path_5" d="M11.4414 5H14.5567" stroke="#BF4D20" stroke-linecap="round" stroke-linejoin="round"/>
<path id="Path_6" d="M16.7675 11H9.23242" stroke="#BF4D20" stroke-linecap="round" stroke-linejoin="round"/>
<path id="Path_7" d="M17 16H9" stroke="#BF4D20" stroke-linecap="round" stroke-linejoin="round"/>
<path id="Path_8" fill-rule="evenodd" clip-rule="evenodd" d="M17 13V18C17 19.1046 16.1046 20 15 20H11C9.89543 20 9 19.1046 9 18V13C8.99981 11.4143 9.43197 9.85846 10.25 8.5V8.5C11.0678 7.14145 11.5 5.58572 11.5 4V2C11.5 1.44772 11.9477 1 12.5 1H13.5C14.0523 1 14.5 1.44772 14.5 2V4C14.4998 5.58575 14.932 7.14154 15.75 8.5V8.5C16.5678 9.85855 17 11.4143 17 13Z" stroke="#BF4D20" stroke-linecap="round" stroke-linejoin="round"/>
</g>
</g>
</svg>
