<svg width="94" height="119" viewBox="0 0 94 119" fill="none" xmlns="http://www.w3.org/2000/svg">
<path d="M53.4259 13.848C53.0455 13.3136 52.7799 12.7613 52.6292 12.191C52.4896 11.6225 52.4579 11.0608 52.5341 10.5057C52.6168 9.94597 52.8083 9.42176 53.1085 8.93305C53.4087 8.44434 53.8129 8.01903 54.3213 7.65712C54.8296 7.29521 55.3638 7.05238 55.9238 6.92863C56.4839 6.80487 57.0386 6.79782 57.5881 6.90747C58.1487 7.01901 58.6738 7.23929 59.1634 7.56833C59.6595 7.89273 60.0978 8.32212 60.4782 8.85652C60.8912 9.43654 61.1679 10.0252 61.3083 10.6224C61.4534 11.2262 61.4571 11.8177 61.3195 12.3969L59.9668 12.1521C60.0437 11.6946 60.0328 11.2654 59.9339 10.8644C59.8462 10.4653 59.6701 10.0801 59.4056 9.70859C59.1504 9.35016 58.8551 9.05955 58.5197 8.83676C58.1843 8.61398 57.8302 8.46836 57.4574 8.3999C57.0846 8.33143 56.7075 8.33969 56.3261 8.42466C55.9493 8.51614 55.5849 8.68717 55.233 8.93772C54.8876 9.18363 54.61 9.46964 54.4003 9.79574C54.1952 10.1284 54.0607 10.4843 53.9969 10.8637C53.9396 11.2384 53.959 11.6174 54.0551 12.0007C54.1512 12.384 54.3292 12.7581 54.5891 13.123C54.8303 13.4619 55.1145 13.7507 55.4414 13.9892C55.7796 14.2297 56.1778 14.4028 56.6361 14.5086L56.2029 15.9071C55.661 15.7528 55.1457 15.4912 54.6571 15.1221C54.1797 14.755 53.7693 14.3303 53.4259 13.848ZM55.5131 14.5864L58.0743 12.7629L58.9303 13.9653L56.2029 15.9071L55.5131 14.5864Z" fill="#F3E8CF"/>
<path d="M62.8074 20.6003L64.3087 24.4971L63.1105 24.9587L61.6092 21.0619L62.8074 20.6003ZM59.4912 22.0065L61.1953 26.4296L59.9747 26.8998L57.7098 21.021L65.5482 18.0011L67.7527 23.7231L66.5322 24.1934L64.8885 19.9271L59.4912 22.0065Z" fill="#F3E8CF"/>
<path d="M61.3565 33.6472L68.3729 32.7007L68.0007 29.9417L69.3089 29.7652L70.2618 36.8292L68.9537 37.0057L68.5815 34.2467L61.565 35.1932L61.3565 33.6472Z" fill="#F3E8CF"/>
<path d="M60.2565 52.3568C60.4167 51.7207 60.6592 51.1341 60.9842 50.5972C61.3169 50.0623 61.6697 49.6603 62.0427 49.3912L63.0862 50.2108C62.7481 50.4722 62.4332 50.8219 62.1414 51.2599C61.8496 51.6979 61.6402 52.169 61.5133 52.6733C61.4058 53.1 61.3654 53.4569 61.3921 53.7441C61.4188 54.0313 61.4941 54.2565 61.618 54.4197C61.7496 54.5849 61.9163 54.6928 62.118 54.7436C62.3663 54.8061 62.5866 54.7667 62.7789 54.6254C62.979 54.486 63.1578 54.2836 63.3154 54.018C63.4789 53.7622 63.6433 53.4695 63.8088 53.1399C63.9723 52.8181 64.1485 52.4954 64.3372 52.1717C64.5318 51.8577 64.7467 51.5776 64.9819 51.3316C65.2229 51.0953 65.5055 50.9231 65.8297 50.815C66.1539 50.7069 66.5332 50.7075 66.9676 50.8169C67.4098 50.9283 67.784 51.1462 68.09 51.4708C68.4018 51.805 68.6057 52.24 68.7019 52.7757C68.8038 53.3211 68.761 53.9662 68.5734 54.7109C68.4504 55.1997 68.2662 55.6689 68.021 56.1186C67.7757 56.5684 67.4918 56.9424 67.1692 57.2406L66.114 56.4676C66.4231 56.1576 66.6768 55.8214 66.8754 55.4589C67.0817 55.0984 67.2297 54.7397 67.3196 54.3828C67.4251 53.9639 67.4606 53.6099 67.4262 53.3207C67.3898 53.0393 67.3057 52.816 67.1741 52.6509C67.0405 52.4935 66.8689 52.3884 66.6595 52.3357C66.4112 52.2732 66.188 52.3077 65.9899 52.4393C65.7976 52.5806 65.6236 52.7802 65.4679 53.038C65.3103 53.3035 65.1449 53.6001 64.9716 53.9277C64.8062 54.2573 64.63 54.58 64.4432 54.896C64.2544 55.2197 64.0434 55.5007 63.8102 55.7389C63.575 55.985 63.2963 56.1581 62.974 56.2585C62.6498 56.3666 62.2744 56.3669 61.8477 56.2595C61.4133 56.1501 61.0401 55.9283 60.7283 55.594C60.4223 55.2695 60.2183 54.8345 60.1164 54.2891C60.0223 53.7457 60.069 53.1016 60.2565 52.3568Z" fill="#F3E8CF"/>
<path d="M56.9981 61.494L63.305 64.711L64.57 62.231L65.7459 62.8308L62.5071 69.1805L61.3312 68.5807L62.5962 66.1007L56.2893 62.8837L56.9981 61.494Z" fill="#F3E8CF"/>
<path d="M53.1638 68.2042L57.1091 76.5279L56.1133 77.6974L47.2593 75.139L48.3173 73.8964L56.1908 76.3292L55.7863 76.8043L52.1214 69.4285L53.1638 68.2042ZM53.516 70.7893L54.1757 71.9026L51.235 75.3563L50.0308 74.8826L53.516 70.7893Z" fill="#F3E8CF"/>
<path d="M44.4489 77.3396L49.3512 84.1607L46.5448 86.1777C45.9406 86.6119 45.3542 86.8856 44.7853 86.9989C44.21 87.1168 43.6747 87.0779 43.1794 86.8822C42.6841 86.6865 42.2566 86.3385 41.8971 85.8383C41.5376 85.3381 41.3441 84.822 41.3165 84.2901C41.2936 83.7648 41.4297 83.2482 41.7249 82.7405C42.0183 82.244 42.467 81.7786 43.0712 81.3444L45.176 79.8317L45.024 80.8128L43.1822 78.25L44.4489 77.3396ZM39.986 80.5471L43.4896 81.7826L42.1351 82.7561L38.6218 81.5276L39.986 80.5471ZM44.926 80.6764L45.9254 80.8744L43.879 82.3451C43.3203 82.7466 42.9877 83.1679 42.8811 83.609C42.768 84.0548 42.8655 84.4921 43.1737 84.9208C43.4865 85.3561 43.8698 85.5879 44.3238 85.6164C44.7712 85.6495 45.2742 85.4653 45.8329 85.0638L47.8793 83.5931L47.7623 84.6229L44.926 80.6764Z" fill="#F3E8CF"/>
<path d="M33.1534 84.0582L35.8419 90.6079L38.4174 89.5507L38.9186 90.7719L32.3246 93.4786L31.8233 92.2575L34.3988 91.2003L31.7103 84.6506L33.1534 84.0582Z" fill="#F3E8CF"/>
<path d="M24.0391 91.9082L19.9137 92.5564L19.7144 91.288L23.8397 90.6398L24.0391 91.9082ZM23.3617 88.3704L18.6792 89.1062L18.4761 87.8141L24.6998 86.8362L26.0036 95.1343L19.946 96.0862L19.7429 94.794L24.2595 94.0843L23.3617 88.3704Z" fill="#F3E8CF"/>
<path d="M13.3331 87.9295L12.5354 96.2916L8.87998 95.9429C7.9721 95.8562 7.19243 95.6051 6.54097 95.1893C5.88951 94.7736 5.40227 94.2369 5.07927 93.5792C4.75626 92.9216 4.63503 92.1707 4.71556 91.3265C4.79533 90.4903 5.05636 89.7759 5.49864 89.1832C5.94017 88.5985 6.52009 88.1636 7.23841 87.8785C7.95673 87.5934 8.76982 87.4942 9.6777 87.5808L13.3331 87.9295ZM11.6548 89.0954L9.62402 88.9017C8.99488 88.8417 8.44194 88.9095 7.96521 89.1051C7.48051 89.2999 7.09421 89.6006 6.80631 90.0071C6.51044 90.4128 6.33515 90.9024 6.28045 91.4758C6.22499 92.0572 6.30455 92.571 6.51913 93.0174C6.72498 93.471 7.04746 93.8393 7.48658 94.1223C7.91772 94.4045 8.44787 94.5756 9.07701 94.6357L11.1078 94.8294L11.6548 89.0954Z" fill="#F3E8CF"/>
</svg>
