<svg width="84" height="80" viewBox="0 0 84 80" fill="none" xmlns="http://www.w3.org/2000/svg">
<path d="M12.1941 39.1682C12.1841 39.1637 12.1737 39.1553 12.166 39.1424C10.6824 36.7682 10.0745 33.9178 9.95656 31.1489C9.90633 30.0147 9.94626 28.8595 10.0878 27.7162C10.0279 27.6619 9.96902 27.6078 9.91293 27.5483C9.79388 27.4106 9.666 27.2609 9.60755 27.0477C9.26306 28.3282 9.19073 29.7097 9.23257 31.0163C9.27528 32.3924 9.50929 33.7622 9.88726 35.0852C10.6186 37.6513 11.95 40.0251 13.6649 42.0616C13.0929 41.1377 12.6047 40.1703 12.1941 39.1682ZM11.0203 27.8072C11.0608 27.2796 11.1109 26.7526 11.1752 26.2287C11.1882 26.1263 11.3464 26.151 11.3333 26.2534C11.268 26.7966 11.2146 27.3447 11.1758 27.893C11.2116 27.9132 11.2474 27.9344 11.2844 27.9539C11.37 27.9994 11.4568 28.0433 11.5457 28.0864C11.6081 27.3749 11.71 26.6666 11.8493 25.968C11.6858 25.9962 11.52 26.0269 11.3572 26.0629C11.0543 26.1337 10.7411 26.2205 10.4725 26.3532C10.4099 26.6665 10.3557 26.9821 10.3101 27.299C10.5118 27.4886 10.7572 27.6548 11.0203 27.8072ZM12.573 38.5549C12.4445 38.1405 12.3253 37.7227 12.2174 37.3076C11.5522 34.7363 11.263 32.0392 11.3936 29.3852C11.3967 29.334 11.4377 29.315 11.4768 29.3211C11.4828 29.0829 11.4938 28.8436 11.5076 28.6056C11.3844 28.5444 11.2626 28.4805 11.1408 28.4165C10.9452 31.8617 11.3112 35.3545 12.573 38.5549ZM13.3857 40.3314C13.4103 40.3801 13.433 40.4286 13.4589 40.4756C12.9642 39.025 12.5924 37.5312 12.3266 36.0148C12.218 35.6289 12.1166 35.2412 12.0274 34.8495C11.8003 33.8546 11.6399 32.8379 11.5512 31.8129C11.6366 33.6465 11.916 35.4753 12.3672 37.2481C12.6293 38.2885 12.9644 39.3295 13.3857 40.3314ZM11.7879 30.1974C11.7792 29.7158 11.7812 29.2281 11.7931 28.74C11.7521 28.7209 11.709 28.7034 11.668 28.6844C11.5618 30.533 11.7063 32.4003 12.059 34.2103C11.8959 32.874 11.8078 31.5318 11.7879 30.1974ZM12.1408 28.357C12.2072 27.5319 12.3067 26.7081 12.4377 25.8882C12.3431 25.8997 12.2502 25.9077 12.1553 25.9212C12.0599 26.7066 12.0019 27.4969 11.9707 28.2836C12.0273 28.3091 12.0852 28.3318 12.1408 28.357ZM12.515 28.517C12.5453 28.5295 12.5785 28.5416 12.6089 28.5532C12.6648 27.6395 12.7681 26.7284 12.924 25.8304C12.8191 25.8394 12.712 25.8568 12.6047 25.8684C12.4682 26.7177 12.3616 27.5687 12.2937 28.4219C12.3677 28.454 12.4397 28.4867 12.515 28.517ZM11.9446 26.3392C11.8356 26.9429 11.7553 27.5511 11.7036 28.1628C11.7382 28.179 11.7758 28.1946 11.8092 28.2115C11.8354 27.588 11.8794 26.9625 11.9446 26.3392ZM10.2561 26.4765C10.1825 26.5285 10.1188 26.5869 10.0753 26.6464C10.0338 26.7122 10.0157 26.7465 10.0132 26.8378C10.0131 26.9071 10.0732 27.0346 10.1654 27.1505C10.2005 26.9198 10.2405 26.6888 10.2852 26.4586C10.2754 26.4649 10.2658 26.4703 10.2561 26.4765ZM12.7719 28.6157C12.8198 28.6339 12.8698 28.6515 12.9196 28.67C13.014 27.7224 13.0789 26.7633 13.174 25.8109C13.1473 25.8126 13.1188 25.814 13.0902 25.8163C12.9283 26.7398 12.8251 27.6753 12.7719 28.6157ZM13.4815 28.8778C13.6058 27.8265 13.7905 26.7817 14.0307 25.7564C13.9216 25.7608 13.8116 25.7651 13.7014 25.7713C13.5811 25.7788 13.4594 25.7891 13.336 25.7982C13.2372 26.7744 13.1697 27.7565 13.0729 28.7262C13.2084 28.7766 13.3449 28.8282 13.4815 28.8778ZM13.2768 24.9212C13.2387 25.0968 13.194 25.2704 13.1595 25.4475C13.1782 25.4465 13.1958 25.4463 13.2137 25.4442C13.2322 25.2695 13.2537 25.0942 13.2768 24.9212ZM13.6418 28.9331C13.7908 28.9847 13.9454 29.0323 14.0985 29.0835C14.2634 27.9215 14.5635 26.7815 15.0596 25.7238C14.7778 25.7286 14.4906 25.7364 14.199 25.7475C13.9531 26.7964 13.7662 27.8614 13.6418 28.9331ZM14.9925 29.3647C15.1865 28.1233 15.5044 26.9002 15.9325 25.7216C15.9208 25.7217 15.9102 25.721 15.8994 25.7213C15.6811 25.7194 15.4564 25.7204 15.2313 25.7243C15.2301 25.7319 15.2291 25.7386 15.225 25.7458C14.7176 26.8134 14.418 27.9632 14.2553 29.1354C14.4987 29.2144 14.7446 29.2899 14.9925 29.3647ZM38.2462 31.8037C38.2426 31.8344 38.2393 31.8651 38.236 31.8958C38.375 31.8551 38.5052 31.8051 38.6303 31.7495C38.6434 31.3797 38.6493 31.0097 38.6487 30.6407C38.5459 30.5563 38.436 30.4766 38.3237 30.4025C38.3142 30.8705 38.2896 31.3381 38.2462 31.8037ZM38.7923 31.6714C38.9451 31.584 39.0678 31.4723 39.1006 31.3672C39.1035 31.3578 39.11 31.3267 39.1098 31.3354C39.1104 31.314 39.1174 31.2693 39.1133 31.2686C39.1126 31.2558 39.1087 31.2132 39.0971 31.1821C39.0747 31.1132 39.0316 31.0372 38.9776 30.9653C38.927 30.9018 38.87 30.8422 38.8095 30.7829C38.8091 31.0786 38.8027 31.3753 38.7923 31.6714ZM18.4774 59.1085L18.6168 57.7911C18.7107 56.9029 18.8014 55.9909 18.8151 55.0599C18.8277 54.1297 18.7555 53.1795 18.5215 52.2469C18.2906 51.3139 17.8965 50.4061 17.3633 49.5585C17.0962 49.1313 16.7973 48.7332 16.4678 48.3245L15.4893 47.0843C14.8298 46.2512 14.1618 45.4041 13.4994 44.5335C12.1743 42.7941 10.9312 41.0421 9.91453 39.2279C8.90107 37.4181 8.11384 35.5285 7.81356 33.6144C7.6629 32.6607 7.63989 31.7084 7.75205 30.7967C7.80319 30.3382 7.90429 29.8972 8.00446 29.4746C8.10443 29.0471 8.21515 28.632 8.32754 28.225C8.78515 26.5952 9.32944 25.1166 9.88628 23.7952C11.0013 21.1496 12.1663 19.1345 13.0271 17.7854C13.4822 17.0776 13.8476 16.5568 14.0952 16.2149C14.0827 16.17 14.0721 16.1195 14.0709 16.0579C14.0688 16.0155 14.0822 15.9112 14.1134 15.8546C14.1416 15.7868 14.1831 15.7338 14.2246 15.6866C14.3098 15.5974 14.3994 15.5421 14.4887 15.4955C14.8427 15.3224 15.1821 15.2681 15.5154 15.2147C16.8464 15.042 18.0732 15.0989 19.1893 15.1523C21.4217 15.2824 23.2098 15.5383 24.4439 15.7233C25.675 15.9137 26.3514 16.0447 26.3516 16.0438C26.3514 16.0447 25.6694 15.9499 24.4317 15.8141C23.1938 15.6842 21.3969 15.503 19.1783 15.4473C18.0721 15.4306 16.8428 15.4152 15.5782 15.613C15.2708 15.6684 14.9435 15.7393 14.6901 15.8744C14.6294 15.9069 14.5764 15.9465 14.5446 15.9815C14.5142 16.0256 14.5107 16.0231 14.5105 16.0748C14.5138 16.0656 14.528 16.1312 14.5652 16.1741C14.6007 16.2216 14.6522 16.2736 14.711 16.3218C14.9458 16.5186 15.2543 16.68 15.5691 16.8268C15.886 16.9729 16.2188 17.104 16.5595 17.2284C17.9286 17.7176 19.4212 18.104 20.9767 18.4553C22.534 18.802 24.1597 19.1048 25.8324 19.3671C27.5048 19.6274 29.1451 19.8348 30.7344 19.9796C32.3216 20.1192 33.8603 20.2074 35.3141 20.1582C35.6769 20.1447 36.0336 20.1213 36.3799 20.0788C36.7235 20.0349 37.0671 19.9753 37.3512 19.8606C37.4924 19.8085 37.6125 19.7159 37.6235 19.6698C37.6261 19.6703 37.6274 19.647 37.627 19.6675C37.6299 19.6464 37.6315 19.6184 37.629 19.6297C37.6305 19.6348 37.6227 19.6043 37.6159 19.5867C37.5971 19.5437 37.5596 19.491 37.5114 19.4405C37.3122 19.2347 37.0228 19.0685 36.7454 18.9207C35.6018 18.3458 34.4262 17.9854 33.3681 17.664C31.2359 17.04 29.4706 16.6647 28.2521 16.4109C27.0308 16.1625 26.3514 16.0447 26.3516 16.0438C26.3514 16.0447 27.0365 16.1263 28.2692 16.3209C29.4996 16.5209 31.2809 16.8226 33.4471 17.3806C34.5266 17.6703 35.7123 17.9902 36.9275 18.5607C37.2287 18.7141 37.5352 18.8684 37.8195 19.1422C37.8895 19.2136 37.9578 19.2946 38.0125 19.4056C38.0368 19.467 38.0587 19.5173 38.0663 19.6102C38.0691 19.6633 38.0655 19.6784 38.066 19.6999C38.0586 19.7622 38.0506 19.7815 38.0378 19.8224C37.917 20.1042 37.7033 20.1918 37.5313 20.2772C37.1692 20.4305 36.8079 20.4951 36.444 20.5505C36.0782 20.6046 35.7095 20.6338 35.3371 20.6557C33.8458 20.7341 32.292 20.667 30.6855 20.542C29.0815 20.4124 27.4272 20.2126 25.7415 19.9492C24.0562 19.686 22.4196 19.3717 20.8498 19.0055C19.2837 18.6339 17.7811 18.2245 16.3853 17.6941C16.0373 17.5597 15.6961 17.4195 15.3644 17.2565C15.0329 17.0915 14.7092 16.9208 14.4115 16.6645C14.3389 16.5985 14.2663 16.5256 14.2016 16.4335C14.1627 16.3767 14.1289 16.3177 14.1044 16.2436C13.8711 16.5937 13.5274 17.1257 13.1064 17.8339C12.2953 19.2083 11.1974 21.2505 10.158 23.905C9.64123 25.2327 9.13608 26.7105 8.71735 28.3288C8.61303 28.7342 8.51354 29.1461 8.42318 29.5683C8.33062 29.9921 8.24424 30.4139 8.20283 30.8476C8.11086 31.7176 8.14798 32.6233 8.30534 33.5341C8.61916 35.3615 9.39923 37.1846 10.407 38.9496C11.4158 40.7206 12.6523 42.4461 13.9681 44.1762C14.6274 45.0415 15.2917 45.8871 15.9479 46.7226L16.9225 47.969C17.2463 48.3768 17.5687 48.8118 17.8414 49.2594C18.3972 50.1564 18.8095 51.1285 19.042 52.1204C19.2774 53.1127 19.3403 54.1112 19.3125 55.0702C19.2862 56.0295 19.1769 56.9533 19.0677 57.843L18.9038 59.1556C18.8496 59.5824 18.8169 60.0068 18.7577 60.4319C18.7332 60.6115 18.706 60.7898 18.6775 60.9679C19.2586 58.6049 19.6229 56.207 19.4649 53.7676C19.3498 51.9937 18.8605 50.2834 18.069 48.6957C17.2342 47.0231 16.0924 45.5164 14.9365 44.0562C14.6308 43.6698 14.3268 43.2855 14.0358 42.8867C13.9875 42.8206 14.0593 42.7489 14.1224 42.7636C14.0071 42.5953 13.896 42.4257 13.7869 42.2554C13.7721 42.3067 13.6914 42.342 13.6428 42.2846C11.8073 40.1385 10.4263 37.6261 9.66993 34.9019C9.29684 33.5602 9.09879 32.1725 9.06528 30.7813C9.03129 29.2807 9.166 27.6874 9.68383 26.272C9.68582 26.2655 9.68994 26.2641 9.69259 26.2597C10.2327 24.6457 10.8395 23.0539 11.5466 21.508C12.245 19.9803 13.0473 18.3868 14.2256 17.1674C14.2968 17.0926 14.4226 17.1933 14.3504 17.2679C13.151 18.5104 12.3535 20.129 11.643 21.6841C10.9645 23.1662 10.3863 24.6931 9.86773 26.2382C9.91533 26.1959 9.96439 26.1567 10.0146 26.1226C10.1413 26.0428 10.2695 25.9779 10.398 25.9238C10.6396 24.8713 10.9803 23.846 11.4391 22.8772C11.483 22.7836 11.6308 22.8496 11.5861 22.9422C11.1461 23.8719 10.8175 24.8503 10.5819 25.853C10.813 25.773 11.0439 25.7192 11.2714 25.6689C11.495 25.6247 11.7174 25.5882 11.9377 25.5583C12.0112 25.232 12.0949 24.9083 12.1852 24.5867C12.5153 22.7106 13.075 20.884 13.9599 19.2117C14.0083 19.1207 14.1551 19.1865 14.1066 19.2785C13.4565 20.5034 12.9867 21.8111 12.6532 23.1587C12.6872 23.0664 12.7202 22.9739 12.757 22.8821C12.7944 22.7864 12.9412 22.8523 12.9029 22.9478C12.6889 23.4863 12.5084 24.0359 12.3504 24.591C12.296 24.9017 12.2482 25.2144 12.2063 25.526C12.3066 25.5153 12.404 25.5101 12.5041 25.5003C12.6954 24.3756 12.9395 23.2571 13.2313 22.1509C13.207 22.1315 13.1936 22.0991 13.2095 22.0597C13.2504 21.9665 13.2904 21.8732 13.3313 21.78C13.3776 21.6086 13.4258 21.4375 13.4727 21.2682C13.4885 21.217 13.5381 21.1994 13.5788 21.2077C14.1028 19.9904 14.6212 18.7713 15.208 17.5824C15.2545 17.4911 15.3995 17.5567 15.3547 17.6493C14.6767 19.022 14.0898 20.4354 13.4812 21.8386C13.1537 23.0416 12.8775 24.2595 12.6663 25.4866C12.7734 25.476 12.8847 25.4631 12.993 25.4576C13.0787 25.0083 13.1774 24.5641 13.2903 24.1229C13.3048 24.0676 13.3606 24.0539 13.4031 24.0693C13.6162 22.8113 13.9557 21.5877 14.5794 20.4446C14.6038 20.4005 14.6507 20.3942 14.6873 20.4097C15.0407 19.5347 15.4397 18.6796 15.8968 17.853C15.946 17.7631 16.093 17.828 16.0418 17.9186C15.2419 19.371 14.6114 20.9083 14.1109 22.4874C14.0808 22.5862 13.9333 22.5183 13.965 22.4217C14.0859 22.0414 14.2144 21.6623 14.3512 21.2864C13.7855 22.6025 13.5355 24.009 13.3769 25.4366C13.4793 25.4311 13.5835 25.4259 13.6846 25.4222C13.8298 25.4175 13.9699 25.4141 14.1128 25.412C14.141 25.3002 14.1673 25.1882 14.1974 25.0767C14.2225 24.9782 14.3808 25.0019 14.3555 25.1014C14.3288 25.2036 14.3069 25.3066 14.2813 25.408C14.8417 25.4009 15.384 25.4095 15.9056 25.4256C15.9521 25.4279 15.9957 25.4299 16.0403 25.432C16.0702 25.3527 16.0983 25.2731 16.13 25.1951C16.1674 25.0995 16.3133 25.1652 16.2759 25.2609C16.252 25.3196 16.2309 25.3798 16.2092 25.4379C18.8923 25.5505 21.0535 25.8364 22.5566 26.0488C24.1166 26.2749 24.9729 26.4389 24.9733 26.4361C24.9729 26.4389 24.1104 26.312 22.5453 26.1398C21.0185 25.9793 18.8175 25.7604 16.1019 25.7246C15.6669 26.9158 15.3406 28.1551 15.1451 29.413C15.4164 29.4944 15.6902 29.5723 15.9649 29.6504C16.172 28.4246 16.5035 27.2153 16.8893 26.0448C16.9212 25.9473 17.0671 26.0131 17.0354 26.1096C16.6545 27.2731 16.3235 28.4736 16.1195 29.6921C16.7577 29.8679 17.4061 30.0346 18.0655 30.1932C20.0289 30.6581 22.0844 31.0524 24.2002 31.3849C26.3148 31.7133 28.3917 31.9645 30.4032 32.1206C32.4128 32.2725 34.3637 32.346 36.2 32.218C36.6587 32.1843 37.1075 32.1343 37.5431 32.0579C37.7219 32.0244 37.8986 31.9866 38.0703 31.9412C38.0721 31.9297 38.0741 31.9174 38.0751 31.9058C38.1318 31.3769 38.1654 30.8424 38.1724 30.3066C38.1332 30.282 38.0956 30.2585 38.0577 30.236C37.3588 29.8282 36.625 29.5193 35.9146 29.2424C35.2018 28.968 34.5036 28.734 33.8347 28.5231C31.1508 27.692 28.917 27.2152 27.3768 26.8945C25.8321 26.581 24.9729 26.4389 24.9733 26.4361C24.9729 26.4389 25.8379 26.5438 27.394 26.8045C28.9464 27.0714 31.1968 27.4756 33.9197 28.2397C34.5984 28.4345 35.3062 28.6535 36.0362 28.9149C36.7357 29.1676 37.4573 29.4512 38.1717 29.84C38.1536 28.375 37.941 26.909 37.5188 25.5146C37.4884 25.4162 37.6369 25.3564 37.6674 25.4559C38.1077 26.9038 38.3124 28.4145 38.3258 29.9255C38.4319 29.988 38.5381 30.0524 38.6437 30.1206C38.6335 29.5783 38.6136 29.0374 38.5846 28.5029C38.5805 28.3998 38.74 28.3817 38.745 28.484C38.7744 29.0625 38.7971 29.6468 38.806 30.2338C38.9489 30.3372 39.0868 30.4524 39.2158 30.5907C39.2048 29.365 39.0962 28.1397 38.9328 26.9282C38.6664 24.958 38.2627 22.9946 37.7235 21.0822C37.6959 20.9832 37.8452 20.9235 37.873 21.0235C38.7586 24.1603 39.3918 27.4948 39.3761 30.7846C39.4296 30.8622 39.4772 30.9477 39.5102 31.0466C39.5347 31.1168 39.5494 31.1815 39.5519 31.2776C39.5543 31.3307 39.5496 31.3407 39.5483 31.3737C39.5404 31.4339 39.5331 31.4562 39.5214 31.4993C39.4821 31.6171 39.4227 31.7142 39.3525 31.795C39.3426 32.0052 39.3304 32.2151 39.3156 32.4237C39.0423 36.0919 37.5501 39.4643 34.7605 41.9039C34.6825 41.9717 34.5887 41.8419 34.6657 41.7739C36.0634 40.5516 37.1842 39.0782 37.9513 37.3865C38.6797 35.7775 39.036 34.0265 39.1667 32.2745C39.1742 32.1673 39.1786 32.0587 39.1849 31.9503C39.1144 32.0037 39.0423 32.0501 38.9726 32.0909C38.9049 32.1272 38.8373 32.1596 38.7699 32.19C38.6582 34.1696 38.2879 36.1253 37.3566 37.889C37.3084 37.98 37.1626 37.9153 37.2106 37.8232C38.1204 36.0991 38.49 34.1921 38.6048 32.2589C38.464 32.3131 38.3226 32.3593 38.1781 32.3982C37.9325 34.307 37.3532 36.2077 36.3036 37.825C36.2464 37.9127 36.1228 37.8104 36.179 37.7245C37.205 36.1426 37.7528 34.3014 38.0085 32.442C37.8824 32.473 37.7563 32.4992 37.6317 32.5256C37.1737 32.6142 36.7099 32.6735 36.2398 32.7132C34.3609 32.8736 32.3932 32.82 30.3613 32.6841C28.3319 32.5428 26.2389 32.2997 24.1091 31.968C21.9779 31.6341 19.9098 31.2271 17.9319 30.7424C17.2902 30.5826 16.6586 30.4146 16.0373 30.2366C15.8944 31.3015 15.855 32.3788 15.9707 33.45C15.9819 33.5533 15.8219 33.5712 15.8106 33.4689C15.6935 32.375 15.735 31.2786 15.8822 30.1928C15.6095 30.1141 15.3372 30.0325 15.069 29.9496C14.8192 31.9486 14.9043 33.9842 15.4107 35.9412C15.4363 36.0399 15.2864 36.0995 15.261 35.9999C14.7447 34.0062 14.6575 31.9341 14.9149 29.8992C14.672 29.8232 14.4302 29.7464 14.1927 29.6673C14.1137 30.4231 14.0871 31.1871 14.0954 31.9399C14.1198 34.0706 14.4519 36.2307 15.1307 38.2517C15.1633 38.3496 15.0145 38.4083 14.981 38.3103C14.2964 36.2698 13.9744 34.1074 13.9364 31.958C13.9239 31.1821 13.9493 30.3945 14.0325 29.612C13.8852 29.5617 13.7344 29.5147 13.5885 29.4616C13.4735 30.654 13.4308 31.8518 13.4745 33.0464C13.5691 35.7463 14.1073 38.5926 15.6879 40.8394C15.7481 40.923 15.6181 41.0178 15.5582 40.9324C14.0005 38.7203 13.4577 35.9534 13.3242 33.2962C13.2607 32.0038 13.2967 30.6986 13.4249 29.4029C13.2864 29.352 13.1511 29.2996 13.0147 29.248C12.9825 29.5358 12.9474 29.8231 12.9048 30.1083C12.8896 30.2114 12.7305 30.1865 12.7466 30.0836C12.7908 29.788 12.8287 29.4894 12.8627 29.1902C12.825 29.1755 12.7852 29.1615 12.7467 29.1457C12.6887 30.6856 12.7615 32.2313 12.9396 33.7466C13.3151 36.9472 14.2184 40.318 16.2628 42.8764C16.3281 42.9579 16.1973 43.0516 16.1328 42.9713C14.1148 40.4443 13.2179 37.1506 12.8081 33.9945C12.5992 32.3826 12.5133 30.7275 12.5804 29.0797C12.496 29.045 12.4092 29.0129 12.325 28.9773C12.3021 28.9679 12.2812 28.9578 12.2594 28.9475C12.1011 31.5542 12.2955 34.1711 12.9935 36.7378C13.021 36.8368 12.8711 36.8964 12.8457 36.7967C12.1339 34.1869 11.9384 31.5269 12.1033 28.8783C12.0541 28.8559 12.0038 28.8344 11.9538 28.811C11.9428 29.3119 11.9403 29.8093 11.949 30.3036C11.9784 32.2017 12.1499 34.122 12.4854 36.0104C13.4203 39.3793 15.0654 42.5312 17.0004 45.4269C17.0582 45.513 16.9292 45.608 16.8705 45.5217C15.1957 43.0152 13.7585 40.332 12.7817 37.4817C13.0743 38.7699 13.4453 40.0372 13.9105 41.2645C13.9291 41.3143 13.8997 41.3526 13.8622 41.3672C14.3985 42.4329 15.0533 43.4332 15.8569 44.3122C15.927 44.3886 15.7963 44.4814 15.7279 44.4072C14.6734 43.2538 13.88 41.8971 13.2692 40.4586C11.3054 36.7347 10.7399 32.5011 10.9851 28.3327C10.727 28.185 10.474 28.0303 10.237 27.842C10.1141 28.8974 10.0775 29.9624 10.1107 31.012C10.188 33.4915 10.6896 36.0597 11.8545 38.2748C11.618 37.6083 11.4124 36.931 11.2432 36.2399C10.6207 33.6957 10.4807 31.0551 10.5665 28.444C10.5699 28.341 10.7289 28.3668 10.7247 28.4687C10.6419 31.0296 10.7917 33.6004 11.374 36.1022C11.963 38.6363 13.052 41.0308 14.5791 43.1385C14.6226 43.198 14.571 43.2592 14.5165 43.2644C15.5534 44.6435 16.6562 45.9626 17.557 47.4435C18.4178 48.8624 19.0647 50.3944 19.3968 52.0235C19.8072 54.0387 19.686 56.1203 19.3907 58.1424C19.0429 60.532 18.3597 62.8556 17.6391 65.1549C17.3415 66.1049 17.0361 67.0538 16.7411 68.0052C16.712 68.1041 16.5643 68.0371 16.5952 67.9395C16.8221 67.2058 17.0584 66.4677 17.2921 65.7273C17.0298 66.2885 16.7368 66.8079 16.4173 67.2724C16.4008 67.2971 16.3836 67.3198 16.3651 67.3442C16.1177 67.697 15.8545 68.0199 15.5761 68.3024C14.7709 69.1332 13.8542 69.6029 13.0732 69.7981C12.2895 70.0037 11.6535 69.9765 11.2354 69.9473C10.8155 69.911 10.5987 69.8615 10.5981 69.8653C10.5987 69.8615 10.8178 69.9026 11.2375 69.9213C11.6551 69.9348 12.2871 69.9379 13.0491 69.7085C13.8092 69.4915 14.6829 69.0033 15.4408 68.1749C15.6759 67.9198 15.8983 67.6334 16.1096 67.3239C16.0654 67.3199 16.0209 67.3168 15.9765 67.3138C15.2245 67.2607 14.3027 67.2192 13.2337 67.2338C12.167 67.2516 10.9488 67.3209 9.62751 67.544C8.97039 67.658 8.28481 67.8105 7.59729 68.0379C6.91329 68.2678 6.21211 68.5701 5.6222 69.0412C5.3305 69.2777 5.07417 69.5627 4.91885 69.8946C4.76066 70.2262 4.71807 70.6051 4.80315 70.9727C4.97232 71.7204 5.55991 72.3763 6.21425 72.9236C7.5615 74.0213 9.27056 74.8085 11.0736 75.4504C12.8865 76.0849 14.8327 76.5539 16.8493 76.8709C18.866 77.184 20.8612 77.3307 22.7821 77.2794C24.6932 77.2188 26.5622 76.9896 28.1791 76.3579C28.9691 76.0352 29.7297 75.5889 30.1202 74.9296C30.3136 74.6065 30.3887 74.2308 30.3403 73.8699C30.2946 73.5055 30.1377 73.155 29.9328 72.8419C29.5153 72.2125 28.9384 71.7095 28.3586 71.2841C27.7721 70.8558 27.167 70.5016 26.5741 70.1923C25.3846 69.577 24.2451 69.1394 23.2344 68.797C22.2213 68.4563 21.3306 68.2146 20.5979 68.0357C20.3969 67.9877 20.2108 67.944 20.0337 67.9037C20.0879 68.1181 20.1454 68.3282 20.213 68.5281C20.5603 69.5896 21.1151 70.4112 21.7122 70.9242C22.3078 71.4438 22.8972 71.6735 23.2923 71.7947C23.6924 71.9158 23.913 71.9415 23.9112 71.9451C23.913 71.9415 23.6918 71.9245 23.2849 71.8199C22.8837 71.7133 22.2801 71.5039 21.6535 70.9951C21.0247 70.4928 20.4263 69.6663 20.037 68.5904C19.9506 68.3553 19.874 68.1081 19.8046 67.8523C19.7993 67.83 19.7928 67.8085 19.786 67.7859C19.5518 66.8904 19.424 65.8778 19.3927 64.7876C19.3541 63.3556 19.4705 61.7857 19.773 60.1278C20.0983 58.4891 20.4596 56.7037 21.2828 54.9661C22.0907 53.2232 23.3783 51.6245 24.9123 50.242C25.6751 49.5442 26.5043 48.8929 27.3541 48.2634C28.2039 47.63 29.0787 47.0082 29.9628 46.3841C31.733 45.1321 33.4648 43.923 34.9934 42.5972C36.5215 41.2771 37.8431 39.8126 38.6647 38.1675C39.0778 37.3487 39.3621 36.4932 39.5257 35.6403C39.6076 35.2139 39.6517 34.7855 39.6921 34.3565C39.7326 33.9304 39.7636 33.5097 39.7865 33.0955C39.8776 31.4358 39.8424 29.8843 39.7542 28.4718C39.5715 25.644 39.1515 23.3803 38.8003 21.8331C38.4421 20.2867 38.162 19.4514 38.1688 19.4495C38.162 19.4514 38.4768 20.2746 38.8894 21.8119C39.2957 23.3482 39.7913 25.6081 40.0488 28.4486C40.1746 29.8688 40.2467 31.433 40.1887 33.1125C40.1752 33.533 40.1524 33.9599 40.1198 34.393C40.0882 34.8244 40.0506 35.2704 39.9716 35.7197C39.8174 36.617 39.5335 37.5214 39.1118 38.3876C38.2733 40.1287 36.9134 41.6634 35.3662 43.0224C33.8147 44.3876 32.0731 45.6147 30.305 46.866C29.4197 47.491 28.5468 48.1071 27.7023 48.7316C26.8533 49.3554 26.0417 49.9851 25.2905 50.6612C23.7828 52.0001 22.5332 53.5198 21.7306 55.1815C20.9164 56.8376 20.5251 58.5831 20.1688 60.2052C19.8381 61.8265 19.6858 63.3752 19.6869 64.7838C19.6907 65.8941 19.7965 66.9228 20.0157 67.8286C20.2028 67.8637 20.404 67.901 20.6181 67.9452C21.3577 68.0978 22.2601 68.3081 23.2905 68.6184C24.3196 68.9305 25.4812 69.3364 26.7063 69.929C27.3182 70.2266 27.9457 70.5716 28.5605 70.9975C29.1726 71.4259 29.7887 71.9311 30.2683 72.6171C30.5026 72.9601 30.6995 73.3599 30.7658 73.8114C30.837 74.2608 30.7474 74.7485 30.5135 75.155C30.2862 75.5656 29.9428 75.8916 29.5727 76.1598C29.2004 76.4267 28.7917 76.639 28.3692 76.818C26.6636 77.5139 24.7544 77.7642 22.7994 77.8443C20.8385 77.9128 18.8077 77.7723 16.7582 77.454C14.7082 77.1318 12.7305 76.6462 10.884 75.9829C9.04592 75.3093 7.30403 74.4886 5.89217 73.3047C5.5446 73.0054 5.21894 72.6784 4.94757 72.31C4.67604 71.9425 4.45016 71.5266 4.35921 71.0653C4.26085 70.6078 4.32637 70.1134 4.53106 69.7091C4.73348 69.3006 5.04319 68.98 5.37085 68.7257C6.03761 68.2188 6.77727 67.9264 7.49021 67.7049C8.20652 67.4869 8.90922 67.3498 9.58317 67.253C10.9305 67.0633 12.1595 67.0308 13.2354 67.0476C14.3091 67.066 15.2334 67.1411 15.9841 67.2213C16.0454 67.2289 16.1049 67.2353 16.1662 67.2429C16.6164 66.5665 17.0087 65.7738 17.3318 64.8922C17.8199 63.5629 18.1685 62.0371 18.3576 60.382C18.4059 59.9728 18.43 59.5432 18.4774 59.1085Z" fill="#BF4D20"/>
<path d="M8.10112 72.84C10.2652 74.3445 12.656 75.6286 15.3452 75.7461C15.448 75.7505 15.4222 75.9094 15.3203 75.9053C12.6031 75.7863 10.1856 74.4853 7.99964 72.9647C7.91422 72.9055 8.01665 72.781 8.10112 72.84Z" fill="#BF4D20"/>
<path d="M14.9437 75.1979C12.9329 74.8301 10.8962 74.4036 9.35404 72.9602C9.27898 72.8909 9.3787 72.7649 9.45537 72.8364C10.9789 74.2613 12.9834 74.676 14.9686 75.0388C15.0699 75.0585 15.0461 75.2169 14.9437 75.1979Z" fill="#BF4D20"/>
<path d="M10.4647 72.6156C11.6876 73.5778 13.1568 74.0015 14.6368 74.3928C14.7371 74.4192 14.7123 74.5783 14.6121 74.5509C13.1047 74.1534 11.6079 73.7195 10.3622 72.7402C10.2825 72.676 10.383 72.5512 10.4647 72.6156Z" fill="#BF4D20"/>
<path d="M11.4454 72.2277C12.2998 73.0503 13.4141 73.5396 14.5774 73.7341C14.6802 73.7511 14.6555 73.9093 14.5527 73.8922C13.3637 73.6938 12.2189 73.1929 11.3441 72.3515C11.2691 72.2812 11.3698 72.1554 11.4454 72.2277Z" fill="#BF4D20"/>
<path d="M12.2404 71.9722C12.8797 72.6284 13.6976 72.8909 14.5695 73.0827C14.6706 73.1043 14.6457 73.2635 14.5447 73.2418C13.6484 73.0432 12.7959 72.7715 12.1399 72.097C12.0683 72.0244 12.1688 71.8995 12.2404 71.9722Z" fill="#BF4D20"/>
<path d="M13.0238 71.8236C13.5063 72.1586 14.0314 72.3958 14.6004 72.5462C14.6988 72.5723 14.6759 72.7317 14.5757 72.7044C13.9804 72.5479 13.4286 72.2997 12.9213 71.9482C12.8359 71.8889 12.9382 71.7653 13.0238 71.8236Z" fill="#BF4D20"/>
<path d="M13.7676 71.5626C14.0648 71.7721 14.373 71.9608 14.7355 72.0272C14.8369 72.0469 14.8122 72.205 14.7107 72.1863C14.3208 72.1137 13.9871 71.9132 13.6661 71.6873C13.5818 71.6273 13.6831 71.5036 13.7676 71.5626Z" fill="#BF4D20"/>
<path d="M14.4158 71.2299C14.5865 71.399 14.7762 71.4843 15.0171 71.479C15.121 71.4767 15.14 71.6358 15.0352 71.638C14.7522 71.6445 14.5164 71.554 14.3134 71.3544C14.2416 71.2827 14.3421 71.1578 14.4158 71.2299Z" fill="#BF4D20"/>
<path d="M14.727 70.8365C14.8678 70.9102 15.0118 70.9815 15.1421 71.0722C15.2276 71.1314 15.1251 71.2559 15.0416 71.197C14.9217 71.1148 14.7895 71.0493 14.6612 70.9834C14.57 70.9359 14.6349 70.7889 14.727 70.8365Z" fill="#BF4D20"/>
<path d="M14.9782 70.396C15.1215 70.5218 15.2919 70.5865 15.483 70.5754C15.5867 70.5681 15.6054 70.7292 15.5011 70.7344C15.2687 70.7478 15.0518 70.674 14.8767 70.5207C14.7996 70.452 14.8999 70.3281 14.9782 70.396Z" fill="#BF4D20"/>
<path d="M15.4737 69.9897C15.5559 70.0445 15.6501 70.0602 15.7444 70.0749C15.8473 70.091 15.8226 70.2491 15.7197 70.2331C15.5949 70.2136 15.4803 70.1849 15.3741 70.1147C15.2875 70.0572 15.3889 69.9325 15.4737 69.9897Z" fill="#BF4D20"/>
<path d="M15.7911 69.4313L16.1599 69.4889C16.2637 69.5051 16.2389 69.6642 16.135 69.648L15.7663 69.5904C15.6653 69.5746 15.6901 69.4155 15.7911 69.4313Z" fill="#BF4D20"/>
<path d="M16.3119 68.8629C16.3398 68.8653 16.3722 68.8518 16.3994 68.8463C16.4419 68.8364 16.4886 68.8378 16.5325 68.8437C16.6341 68.8557 16.6094 69.0138 16.5078 69.0019C16.4312 68.9928 16.3632 69.0281 16.287 69.022C16.1847 69.0148 16.2095 68.8557 16.3119 68.8629Z" fill="#BF4D20"/>
<path d="M20.9006 68.3926C22.9591 69.1465 25.0588 69.8074 27.0172 70.8092C27.1079 70.8556 27.0426 71.0026 26.9502 70.9549C24.9922 69.9531 22.8926 69.2933 20.8332 68.5382C20.7366 68.5026 20.8028 68.3568 20.9006 68.3926Z" fill="#BF4D20"/>
<path d="M21.2545 69.0945C22.942 69.5358 24.6745 70.0729 26.1311 71.0578C26.2169 71.1161 26.1151 71.2408 26.03 71.1826C24.599 70.2143 22.886 69.6871 21.2298 69.2526C21.1315 69.2275 21.1548 69.0682 21.2545 69.0945Z" fill="#BF4D20"/>
<path d="M21.6039 69.635C22.4331 69.8768 23.2771 70.0731 24.0336 70.5046C24.1222 70.5555 24.0581 70.7017 23.9678 70.6504C23.2231 70.2257 22.3948 70.0318 21.5792 69.7932C21.4818 69.7653 21.5049 69.6069 21.6039 69.635Z" fill="#BF4D20"/>
<path d="M21.6511 70.0237C22.0992 70.1054 22.4908 70.3227 22.8478 70.6001C22.9286 70.6634 22.8275 70.7882 22.7455 70.7246C22.4112 70.4635 22.0489 70.2595 21.6264 70.1818C21.525 70.164 21.5499 70.0049 21.6511 70.0237Z" fill="#BF4D20"/>
<path d="M21.6303 70.2924C21.8292 70.3762 22.0321 70.4616 22.197 70.6064C22.2736 70.673 22.1726 70.7988 22.0952 70.7311C21.9409 70.5957 21.7506 70.5181 21.5652 70.4384C21.4696 70.3991 21.5355 70.2522 21.6303 70.2924Z" fill="#BF4D20"/>
<path d="M21.3711 77.0117C21.2677 77.0024 21.2938 76.8445 21.3958 76.8536C23.9937 77.0779 27.1075 76.7981 29.1499 75.004C29.2274 74.9351 29.3206 75.0658 29.2453 75.1331C27.1695 76.9571 24.0097 77.2394 21.3711 77.0117Z" fill="#BF4D20"/>
<path d="M28.4929 74.7493C26.5458 75.9179 24.3342 76.5924 22.0512 76.471C21.9483 76.4657 21.9728 76.3084 22.0759 76.3128C24.3136 76.4321 26.4905 75.7639 28.3985 74.6184C28.4864 74.5657 28.5822 74.6949 28.4929 74.7493Z" fill="#BF4D20"/>
<path d="M26.945 74.6137C25.6344 75.4592 24.0667 76.0059 22.5085 75.6229C22.4085 75.5985 22.4325 75.4402 22.5332 75.4647C24.0507 75.8374 25.5728 75.3071 26.8497 74.4846C26.9362 74.4289 27.0311 74.5579 26.945 74.6137Z" fill="#BF4D20"/>
<path d="M26.1074 74.0438C26.1949 73.9891 26.2908 74.1193 26.2028 74.1729C25.1902 74.7975 24.0236 75.1335 22.836 74.9158C22.7338 74.8969 22.7585 74.7387 22.8607 74.7576C24.0061 74.9678 25.1311 74.6458 26.1074 74.0438Z" fill="#BF4D20"/>
<path d="M22.9587 74.122C23.6888 74.2663 24.3841 73.9991 25.0396 73.7004C25.1335 73.6575 25.1925 73.8072 25.0989 73.8502C24.4165 74.1594 23.6911 74.4296 22.934 74.2801C22.8319 74.2603 22.8566 74.1021 22.9587 74.122Z" fill="#BF4D20"/>
<path d="M22.8405 73.5089C23.3261 73.5242 23.7956 73.4375 24.2469 73.2533C24.3415 73.2134 24.4005 73.3632 24.3049 73.4019C23.8263 73.5975 23.3317 73.6833 22.8158 73.6671C22.7124 73.6646 22.7388 73.5057 22.8405 73.5089Z" fill="#BF4D20"/>
<path d="M23.8496 72.8444C23.5041 72.9984 23.1461 73.0644 22.7673 73.0628C22.6663 73.0627 22.6471 72.9025 22.75 72.903C23.1139 72.9042 23.4568 72.8446 23.7918 72.6948C23.8852 72.6528 23.944 72.8035 23.8496 72.8444Z" fill="#BF4D20"/>
<path d="M23.2664 72.428C23.014 72.5086 22.7697 72.572 22.5043 72.5374C22.4021 72.5233 22.4268 72.3652 22.529 72.3792C22.7657 72.4094 22.9842 72.3508 23.207 72.2792C23.3053 72.2477 23.3642 72.3974 23.2664 72.428Z" fill="#BF4D20"/>
<path d="M22.3668 72.0274C22.2633 72.0112 22.2881 71.853 22.3915 71.8692L22.6025 71.9022C22.7045 71.9181 22.6798 72.0763 22.5778 72.0603L22.3668 72.0274Z" fill="#BF4D20"/>
<path d="M12.1009 69.4755C12.5527 69.2074 13.0525 69.0698 13.5672 68.9804C13.6705 68.9623 13.6864 69.1229 13.5853 69.1393C13.0996 69.2245 12.624 69.3513 12.1948 69.6054C12.1077 69.6571 12.0117 69.528 12.1009 69.4755Z" fill="#BF4D20"/>
<path d="M11.0621 69.2987C11.7908 68.9265 12.583 68.735 13.3966 68.6816C13.4993 68.6742 13.5182 68.8343 13.4157 68.8407C12.6148 68.8942 11.8379 69.0813 11.1217 69.4486C11.0285 69.4955 10.9718 69.3461 11.0621 69.2987Z" fill="#BF4D20"/>
<path d="M9.86522 69.2335C10.9118 68.6259 12.0544 68.2656 13.2606 68.173C13.3634 68.1646 13.3825 68.3238 13.2787 68.332C12.102 68.4234 10.9819 68.7706 9.96038 69.3616C9.87228 69.4132 9.77726 69.2842 9.86522 69.2335Z" fill="#BF4D20"/>
<path d="M12.7312 68.0302C11.369 68.0409 10.1043 68.4514 8.86677 68.9882C8.77158 69.0289 8.71393 68.8794 8.80802 68.8394C10.0593 68.296 11.3374 67.8808 12.7131 67.8712C12.8157 67.8706 12.8348 68.0298 12.7312 68.0302Z" fill="#BF4D20"/>
<path d="M12.2509 67.3668C12.353 67.3505 12.3708 67.5115 12.2681 67.5257C10.5826 67.7933 8.90555 68.076 7.37108 68.864C7.27786 68.911 7.22116 68.7615 7.31248 68.7143C8.85877 67.9193 10.5496 67.6359 12.2509 67.3668Z" fill="#BF4D20"/>
<path d="M13.8018 69.3668C13.5896 69.5133 13.3355 69.5712 13.0923 69.6474C12.9948 69.678 12.936 69.5293 13.0345 69.4988C13.2626 69.4261 13.5087 69.3748 13.7079 69.237C13.7932 69.1781 13.8882 69.3071 13.8018 69.3668Z" fill="#BF4D20"/>
<path d="M17.4313 46.4471C17.3625 46.369 17.4943 46.2754 17.5602 46.3531C19.7115 48.852 20.1655 52.426 20.067 55.6071C19.9331 59.9101 18.4384 64.0015 17.28 68.1024C17.6133 67.7699 18.0399 67.575 18.5356 67.75C19.1357 67.9628 19.4104 68.6763 19.4694 69.2536C19.4803 69.3568 19.3204 69.3747 19.3102 69.2716C19.2547 68.7359 19.0369 68.1924 18.5385 67.9271C17.9774 67.6286 17.4476 68.0837 17.1406 68.5189C17.0815 68.6043 16.9561 68.5018 17.016 68.4184C17.0611 68.3542 17.1087 68.2933 17.1588 68.2338C17.1194 68.2276 17.088 68.1964 17.1017 68.1477C18.2096 64.2117 19.6033 60.3202 19.8777 56.2081C20.0985 52.8987 19.675 49.0543 17.4313 46.4471Z" fill="#BF4D20"/>
<path d="M23.6964 49.4128C23.0069 50.1679 22.0832 50.8269 21.0185 50.5034C19.9487 50.1762 19.3554 48.9445 19.0183 47.9783C18.9837 47.8811 19.1334 47.8225 19.168 47.9197C19.4907 48.8466 19.9882 49.8545 20.9209 50.293C21.9237 50.7659 22.9237 50.0222 23.5724 49.3115C23.6418 49.2354 23.766 49.3358 23.6964 49.4128Z" fill="#BF4D20"/>
<path d="M18.0819 18.8878C17.3581 20.4096 16.7201 21.976 16.3697 23.6313C16.349 23.7325 16.1899 23.7076 16.2115 23.6066C16.564 21.9379 17.2044 20.3563 17.936 18.822C17.9809 18.7285 18.1269 18.7933 18.0819 18.8878Z" fill="#BF4D20"/>
<path d="M16.1225 20.5659L16.9312 18.5C16.9697 18.4036 17.1155 18.4703 17.077 18.5667L16.2684 20.6316C16.23 20.7271 16.0841 20.6614 16.1225 20.5659Z" fill="#BF4D20"/>
<path d="M7.98888 73.3927C8.07586 73.4482 7.97359 73.5718 7.88661 73.5163C6.70085 72.7532 5.1134 71.4374 5.98238 69.8797C6.03332 69.7911 6.17937 69.8558 6.12923 69.9456C5.29964 71.4323 6.8671 72.6699 7.98888 73.3927Z" fill="#BF4D20"/>
<path d="M29.5819 73.058C29.814 73.4925 29.8608 73.9839 29.6187 74.4253C29.57 74.5153 29.4235 74.4495 29.4731 74.3596C29.696 73.9523 29.6457 73.5159 29.4324 73.1166C29.3834 73.025 29.5333 72.9684 29.5819 73.058Z" fill="#BF4D20"/>
<path d="M20.2362 53.4577C20.3144 52.369 20.2639 51.2572 19.942 50.2055C19.9132 50.1073 20.0615 50.0485 20.0918 50.1479C20.4212 51.2261 20.4745 52.3637 20.3944 53.4824C20.387 53.5857 20.2294 53.5601 20.2362 53.4577Z" fill="#BF4D20"/>
<path d="M20.8262 50.6878C20.8303 51.2272 20.8235 51.7688 20.8165 52.3094C20.8143 52.4116 20.6569 52.4309 20.6562 52.3274C20.6644 51.7869 20.6719 51.2464 20.667 50.7059C20.6656 50.6032 20.8252 50.5842 20.8262 50.6878Z" fill="#BF4D20"/>
<path d="M19.7869 32.0405C21.2098 32.579 22.6774 33.0025 24.1735 33.2782C25.7009 33.5608 27.3437 33.7081 28.8627 33.3051C28.9612 33.2775 29.0209 33.4274 28.9211 33.4538C27.4481 33.8454 25.8833 33.7259 24.3952 33.4798C22.801 33.2171 21.2324 32.7592 19.721 32.1874C19.6244 32.1498 19.6901 32.0039 19.7869 32.0405Z" fill="#BF4D20"/>
<path d="M21.7374 33.967C23.1132 34.3332 24.5228 34.487 25.937 34.623C26.0402 34.6333 26.0138 34.7922 25.9121 34.7821C24.4981 34.6452 23.0884 34.4923 21.7125 34.1261C21.6132 34.0998 21.6369 33.9415 21.7374 33.967Z" fill="#BF4D20"/>
<path d="M22.2742 34.7001C22.9195 34.8839 23.5666 35.0592 24.2302 35.1677C24.3324 35.1847 24.3077 35.3428 24.2055 35.3259C23.5418 35.2173 22.8946 35.043 22.2495 34.8583C22.1505 34.8301 22.1752 34.672 22.2742 34.7001Z" fill="#BF4D20"/>
<path d="M22.6908 36.3096C22.9863 36.429 23.2952 36.4822 23.6089 36.5312C23.7102 36.547 23.6855 36.7051 23.5842 36.6893C23.2567 36.6381 22.9336 36.5808 22.6249 36.4555C22.5287 36.417 22.595 36.2712 22.6908 36.3096Z" fill="#BF4D20"/>
<path d="M22.6897 39.9616C23.0344 40.1052 23.3848 40.2244 23.7541 40.287C23.8557 40.3048 23.831 40.4629 23.7292 40.4461C23.3472 40.3796 22.9822 40.2562 22.6242 40.1075C22.5283 40.0672 22.5953 39.9214 22.6897 39.9616Z" fill="#BF4D20"/>
<path d="M23.335 41.9285C23.4369 41.9445 23.4122 42.1026 23.3103 42.0867L22.676 41.9876C22.5733 41.9716 22.598 41.8134 22.7007 41.8294L23.335 41.9285Z" fill="#BF4D20"/>
<path d="M71.8049 39.1682C71.8149 39.1637 71.8253 39.1553 71.8331 39.1424C73.3167 36.7682 73.9245 33.9179 74.0425 31.1489C74.0927 30.0147 74.0528 28.8595 73.9113 27.7162C73.9711 27.6619 74.03 27.6078 74.0861 27.5483C74.2052 27.4107 74.333 27.2609 74.3915 27.0477C74.736 28.3282 74.8083 29.7097 74.7665 31.0163C74.7238 32.3924 74.4897 33.7622 74.1118 35.0852C73.3804 37.6513 72.049 40.0251 70.3341 42.0616C70.9062 41.1377 71.3944 40.1703 71.8049 39.1682ZM72.9787 27.8072C72.9383 27.2796 72.8881 26.7526 72.8239 26.2287C72.8108 26.1263 72.6527 26.151 72.6657 26.2534C72.7311 26.7966 72.7845 27.3447 72.8233 27.893C72.7874 27.9132 72.7516 27.9344 72.7147 27.9539C72.6291 27.9995 72.5422 28.0433 72.4533 28.0864C72.391 27.3749 72.2891 26.6666 72.1497 25.968C72.3132 25.9962 72.479 26.0269 72.6418 26.0629C72.9447 26.1337 73.2579 26.2205 73.5266 26.3532C73.5892 26.6665 73.6433 26.9821 73.6889 27.299C73.4872 27.4886 73.2419 27.6548 72.9787 27.8072ZM71.426 38.5549C71.5546 38.1405 71.6738 37.7227 71.7817 37.3076C72.4468 34.7363 72.736 32.0392 72.6054 29.3852C72.6023 29.334 72.5613 29.315 72.5222 29.3211C72.5163 29.0829 72.5052 28.8436 72.4915 28.6056C72.6146 28.5444 72.7364 28.4805 72.8582 28.4165C73.0538 31.8617 72.6878 35.3545 71.426 38.5549ZM70.6133 40.3314C70.5887 40.3801 70.566 40.4286 70.5402 40.4756C71.0349 39.025 71.4067 37.5312 71.6724 36.0148C71.781 35.6289 71.8825 35.2412 71.9716 34.8495C72.1988 33.8546 72.3591 32.8379 72.4479 31.8129C72.3624 33.6465 72.083 35.4754 71.6318 37.2481C71.3698 38.2885 71.0346 39.3295 70.6133 40.3314ZM72.2111 30.1974C72.2198 29.7158 72.2178 29.2281 72.206 28.74C72.2469 28.7209 72.2901 28.7034 72.331 28.6844C72.4373 30.533 72.2927 32.4003 71.94 34.2103C72.1032 32.874 72.1912 31.5319 72.2111 30.1974ZM71.8582 28.357C71.7918 27.5319 71.6924 26.7081 71.5614 25.8882C71.6559 25.8997 71.7489 25.9077 71.8437 25.9212C71.9391 26.7066 71.9972 27.4969 72.0283 28.2836C71.9718 28.3091 71.9138 28.3318 71.8582 28.357ZM71.484 28.517C71.4538 28.5296 71.4205 28.5416 71.3901 28.5532C71.3342 27.6395 71.231 26.7284 71.0751 25.8304C71.1799 25.8394 71.2871 25.8568 71.3943 25.8684C71.5309 26.7177 71.6375 27.5687 71.7054 28.4219C71.6313 28.454 71.5593 28.4867 71.484 28.517ZM72.0544 26.3392C72.1634 26.9429 72.2438 27.5511 72.2954 28.1628C72.2608 28.179 72.2233 28.1946 72.1898 28.2116C72.1636 27.588 72.1196 26.9625 72.0544 26.3392ZM73.743 26.4765C73.8165 26.5285 73.8803 26.5869 73.9237 26.6464C73.9652 26.7122 73.9833 26.7465 73.9858 26.8378C73.9859 26.9071 73.9258 27.0346 73.8336 27.1505C73.7986 26.9198 73.7586 26.6888 73.7138 26.4587C73.7236 26.4649 73.7332 26.4703 73.743 26.4765ZM71.2271 28.6157C71.1792 28.6339 71.1292 28.6515 71.0794 28.67C70.9851 27.7224 70.9202 26.7633 70.8251 25.8109C70.8517 25.8126 70.8802 25.814 70.9089 25.8163C71.0707 26.7398 71.1739 27.6753 71.2271 28.6157ZM70.5175 28.8778C70.3933 27.8265 70.2086 26.7818 69.9684 25.7564C70.0774 25.7608 70.1874 25.7651 70.2977 25.7713C70.4179 25.7789 70.5396 25.7891 70.663 25.7982C70.7618 26.7744 70.8294 27.7565 70.9262 28.7262C70.7906 28.7766 70.6542 28.8282 70.5175 28.8778ZM70.7222 24.9212C70.7604 25.0968 70.805 25.2704 70.8395 25.4475C70.8208 25.4465 70.8032 25.4463 70.7854 25.4443C70.7668 25.2695 70.7453 25.0943 70.7222 24.9212ZM70.3573 28.9331C70.2082 28.9847 70.0536 29.0323 69.9006 29.0836C69.7356 27.9215 69.4355 26.7815 68.9394 25.7239C69.2213 25.7286 69.5085 25.7365 69.8001 25.7475C70.0459 26.7964 70.2328 27.8614 70.3573 28.9331ZM69.0065 29.3647C68.8126 28.1233 68.4946 26.9002 68.0665 25.7216C68.0782 25.7217 68.0888 25.721 68.0996 25.7213C68.318 25.7194 68.5426 25.7204 68.7677 25.7243C68.7689 25.7319 68.7699 25.7386 68.774 25.7458C69.2814 26.8134 69.5811 27.9632 69.7437 29.1354C69.5003 29.2144 69.2544 29.2899 69.0065 29.3647ZM45.7528 31.8037C45.7564 31.8344 45.7598 31.8651 45.763 31.8958C45.624 31.8551 45.4938 31.8051 45.3688 31.7495C45.3556 31.3797 45.3497 31.0097 45.3503 30.6407C45.4531 30.5563 45.5631 30.4766 45.6753 30.4025C45.6848 30.8705 45.7095 31.3381 45.7528 31.8037ZM45.2067 31.6714C45.0539 31.584 44.9312 31.4723 44.8984 31.3672C44.8955 31.3578 44.8891 31.3267 44.8893 31.3354C44.8886 31.314 44.8817 31.2693 44.8858 31.2686C44.8864 31.2558 44.8904 31.2132 44.9019 31.1821C44.9243 31.1132 44.9674 31.0372 45.0214 30.9653C45.0721 30.9018 45.129 30.8422 45.1896 30.7829C45.19 31.0786 45.1963 31.3753 45.2067 31.6714ZM65.5216 59.1085L65.3822 57.7911C65.2883 56.9029 65.1976 55.9909 65.1839 55.0599C65.1713 54.1297 65.2435 53.1795 65.4775 52.2469C65.7085 51.3139 66.1025 50.4061 66.6358 49.5586C66.9028 49.1313 67.2018 48.7332 67.5313 48.3245L68.5098 47.0843C69.1692 46.2512 69.8373 45.4041 70.4996 44.5335C71.8247 42.7941 73.0678 41.0421 74.0845 39.2279C75.098 37.4181 75.8852 35.5285 76.1855 33.6144C76.3361 32.6607 76.3591 31.7084 76.247 30.7967C76.1958 30.3382 76.0947 29.8972 75.9946 29.4746C75.8946 29.0471 75.7839 28.632 75.6715 28.225C75.2139 26.5952 74.6696 25.1166 74.1128 23.7952C72.9977 21.1496 71.8328 19.1345 70.972 17.7854C70.5168 17.0776 70.1515 16.5568 69.9038 16.2149C69.9163 16.17 69.927 16.1195 69.9281 16.0579C69.9303 16.0156 69.9169 15.9112 69.8856 15.8546C69.8574 15.7868 69.816 15.7338 69.7744 15.6866C69.6892 15.5974 69.5996 15.5421 69.5103 15.4955C69.1563 15.3224 68.8169 15.2681 68.4836 15.2147C67.1526 15.042 65.9258 15.0989 64.8098 15.1523C62.5774 15.2824 60.7892 15.5383 59.5551 15.7233C58.324 15.9137 57.6476 16.0447 57.6474 16.0438C57.6476 16.0447 58.3297 15.9499 59.5674 15.8141C60.8052 15.6842 62.6021 15.503 64.8207 15.4473C65.9269 15.4306 67.1563 15.4153 68.4209 15.613C68.7282 15.6684 69.0555 15.7393 69.3089 15.8745C69.3696 15.9069 69.4227 15.9465 69.4545 15.9815C69.4848 16.0256 69.4883 16.0231 69.4886 16.0748C69.4852 16.0656 69.471 16.1312 69.4338 16.1741C69.3983 16.2216 69.3469 16.2736 69.288 16.3218C69.0533 16.5186 68.7447 16.68 68.4299 16.8268C68.1131 16.9729 67.7802 17.104 67.4395 17.2284C66.0704 17.7176 64.5779 18.104 63.0223 18.4553C61.465 18.802 59.8394 19.1048 58.1666 19.3671C56.4942 19.6274 54.854 19.8348 53.2647 19.9796C51.6775 20.1192 50.1387 20.2074 48.685 20.1582C48.3221 20.1447 47.9654 20.1213 47.6191 20.0788C47.2755 20.0349 46.9319 19.9753 46.6478 19.8606C46.5066 19.8085 46.3866 19.7159 46.3756 19.6698C46.3729 19.6703 46.3716 19.647 46.3721 19.6675C46.3692 19.6464 46.3675 19.6184 46.37 19.6297C46.3685 19.6348 46.3764 19.6043 46.3832 19.5867C46.4019 19.5437 46.4395 19.491 46.4876 19.4405C46.6869 19.2347 46.9763 19.0685 47.2536 18.9207C48.3972 18.3458 49.5728 17.9855 50.6309 17.664C52.7631 17.04 54.5285 16.6647 55.747 16.4109C56.9682 16.1625 57.6476 16.0447 57.6474 16.0438C57.6476 16.0447 56.9626 16.1263 55.7299 16.3209C54.4995 16.5209 52.7181 16.8226 50.552 17.3806C49.4724 17.6703 48.2867 17.9902 47.0716 18.5607C46.7703 18.7141 46.4638 18.8684 46.1795 19.1422C46.1095 19.2136 46.0412 19.2946 45.9865 19.4056C45.9622 19.467 45.9403 19.5173 45.9327 19.6102C45.93 19.6633 45.9335 19.6784 45.933 19.6999C45.9404 19.7622 45.9484 19.7815 45.9613 19.8224C46.082 20.1042 46.2958 20.1918 46.4677 20.2772C46.8299 20.4305 47.1911 20.4951 47.5551 20.5505C47.9209 20.6046 48.2895 20.6338 48.6619 20.6557C50.1532 20.7341 51.707 20.6671 53.3136 20.542C54.9176 20.4124 56.5719 20.2126 58.2576 19.9492C59.9429 19.686 61.5794 19.3717 63.1492 19.0055C64.7153 18.6339 66.2179 18.2245 67.6138 17.6941C67.9617 17.5597 68.3029 17.4196 68.6347 17.2565C68.9661 17.0915 69.2899 16.9208 69.5875 16.6645C69.6602 16.5985 69.7327 16.5256 69.7974 16.4335C69.8364 16.3767 69.8701 16.3178 69.8946 16.2436C70.1279 16.5937 70.4716 17.1257 70.8927 17.8339C71.7037 19.2083 72.8016 21.2505 73.841 23.905C74.3578 25.2327 74.8629 26.7105 75.2817 28.3288C75.386 28.7342 75.4855 29.1461 75.5758 29.5683C75.6684 29.9921 75.7548 30.4139 75.7962 30.8476C75.8882 31.7176 75.851 32.6233 75.6937 33.5341C75.3799 35.3615 74.5998 37.1846 73.592 38.9496C72.5832 40.7206 71.3468 42.4461 70.031 44.1762C69.3717 45.0415 68.7073 45.8871 68.0511 46.7226L67.0765 47.969C66.7528 48.3768 66.4303 48.8118 66.1576 49.2594C65.6018 50.1564 65.1895 51.1285 64.957 52.1204C64.7216 53.1127 64.6588 54.1112 64.6866 55.0702C64.7129 56.0295 64.8221 56.9533 64.9313 57.843L65.0952 59.1556C65.1494 59.5824 65.1821 60.0068 65.2413 60.4319C65.2658 60.6115 65.293 60.7898 65.3215 60.9679C64.7405 58.6049 64.3761 56.207 64.5341 53.7676C64.6493 51.9937 65.1385 50.2834 65.93 48.6957C66.7648 47.0231 67.9066 45.5164 69.0625 44.0562C69.3682 43.6698 69.6722 43.2855 69.9633 42.8867C70.0115 42.8206 69.9398 42.7489 69.8767 42.7636C69.9919 42.5953 70.103 42.4257 70.2121 42.2554C70.227 42.3068 70.3076 42.342 70.3562 42.2846C72.1917 40.1385 73.5727 37.6261 74.3291 34.9019C74.7022 33.5602 74.9002 32.1725 74.9337 30.7813C74.9677 29.2807 74.833 27.6874 74.3152 26.272C74.3132 26.2655 74.3091 26.2641 74.3064 26.2597C73.7664 24.6457 73.1595 23.0539 72.4524 21.5081C71.7541 19.9803 70.9517 18.3869 69.7735 17.1674C69.7022 17.0926 69.5764 17.1933 69.6486 17.2679C70.848 18.5104 71.6455 20.129 72.356 21.6842C73.0345 23.1662 73.6127 24.6932 74.1313 26.2382C74.0837 26.1959 74.0346 26.1567 73.9844 26.1226C73.8578 26.0428 73.7295 25.9779 73.601 25.9238C73.3595 24.8713 73.0187 23.846 72.5599 22.8772C72.516 22.7836 72.3682 22.8496 72.4129 22.9422C72.853 23.8719 73.1815 24.8503 73.4172 25.853C73.186 25.773 72.9551 25.7192 72.7276 25.6689C72.5041 25.6248 72.2817 25.5882 72.0613 25.5583C71.9879 25.232 71.9041 24.9084 71.8139 24.5867C71.4837 22.7106 70.9241 20.884 70.0391 19.2117C69.9908 19.1207 69.8439 19.1865 69.8924 19.2785C70.5425 20.5034 71.0123 21.8111 71.3458 23.1587C71.3118 23.0664 71.2789 22.9739 71.2421 22.8821C71.2047 22.7864 71.0578 22.8523 71.0962 22.9478C71.3101 23.4863 71.4906 24.0359 71.6486 24.591C71.703 24.9017 71.7509 25.2144 71.7927 25.526C71.6925 25.5153 71.595 25.5101 71.4949 25.5003C71.3036 24.3756 71.0596 23.2571 70.7677 22.1509C70.792 22.1315 70.8055 22.0991 70.7895 22.0597C70.7486 21.9665 70.7087 21.8732 70.6678 21.78C70.6215 21.6086 70.5733 21.4375 70.5263 21.2682C70.5105 21.217 70.4609 21.1994 70.4202 21.2077C69.8963 19.9904 69.3779 18.7713 68.791 17.5824C68.7445 17.4911 68.5996 17.5567 68.6443 17.6493C69.3224 19.0221 69.9092 20.4354 70.5178 21.8386C70.8453 23.0416 71.1215 24.2595 71.3327 25.4866C71.2256 25.476 71.1143 25.4631 71.0061 25.4576C70.9203 25.0084 70.8216 24.5641 70.7088 24.123C70.6943 24.0676 70.6384 24.0539 70.5959 24.0693C70.3828 22.8113 70.0433 21.5877 69.4197 20.4446C69.3952 20.4006 69.3484 20.3942 69.3117 20.4097C68.9584 19.5347 68.5593 18.6796 68.1022 17.853C68.053 17.7631 67.906 17.828 67.9573 17.9186C68.7571 19.371 69.3877 20.9083 69.8881 22.4874C69.9182 22.5862 70.0657 22.5183 70.034 22.4217C69.9131 22.0414 69.7846 21.6623 69.6478 21.2864C70.2136 22.6025 70.4635 24.009 70.6221 25.4366C70.5198 25.4311 70.4155 25.4259 70.3144 25.4222C70.1692 25.4175 70.0291 25.4141 69.8863 25.412C69.8581 25.3002 69.8318 25.1882 69.8017 25.0767C69.7765 24.9782 69.6182 25.0019 69.6435 25.1014C69.6702 25.2037 69.6922 25.3066 69.7178 25.408C69.1574 25.4009 68.6151 25.4095 68.0934 25.4256C68.047 25.4279 68.0033 25.4299 67.9588 25.432C67.9288 25.3527 67.9008 25.2731 67.8691 25.1951C67.8317 25.0995 67.6858 25.1652 67.7232 25.2609C67.747 25.3196 67.7681 25.3798 67.7899 25.4379C65.1067 25.5505 62.9455 25.8364 61.4424 26.0488C59.8824 26.2749 59.0262 26.4389 59.0257 26.4361C59.0262 26.4389 59.8886 26.312 61.4537 26.1398C62.9806 25.9793 65.1815 25.7604 67.8971 25.7246C68.3321 26.9158 68.6585 28.1551 68.854 29.413C68.5827 29.4944 68.3089 29.5723 68.0341 29.6504C67.827 28.4246 67.4956 27.2153 67.1097 26.0448C67.0779 25.9473 66.932 26.0131 66.9636 26.1096C67.3445 27.2731 67.6755 28.4736 67.8796 29.6921C67.2414 29.8679 66.593 30.0346 65.9335 30.1933C63.9701 30.6581 61.9147 31.0524 59.7988 31.3849C57.6842 31.7133 55.6074 31.9645 53.5958 32.1206C51.5863 32.2725 49.6353 32.346 47.799 32.218C47.3404 32.1843 46.8915 32.1343 46.4559 32.0579C46.2772 32.0244 46.1005 31.9866 45.9287 31.9412C45.9269 31.9297 45.925 31.9174 45.924 31.9058C45.8672 31.3769 45.8337 30.8424 45.8266 30.3066C45.8659 30.282 45.9034 30.2585 45.9414 30.236C46.6402 29.8282 47.374 29.5193 48.0844 29.2424C48.7972 28.968 49.4954 28.734 50.1644 28.5231C52.8483 27.692 55.082 27.2152 56.6222 26.8945C58.1669 26.581 59.0262 26.4389 59.0257 26.4361C59.0262 26.4389 58.1611 26.5438 56.605 26.8045C55.0526 27.0714 52.8023 27.4756 50.0793 28.2397C49.4006 28.4345 48.6928 28.6535 47.9628 28.9149C47.2633 29.1676 46.5417 29.4512 45.8273 29.84C45.8455 28.375 46.058 26.909 46.4803 25.5146C46.5107 25.4162 46.3622 25.3564 46.3316 25.4559C45.8914 26.9038 45.6866 28.4145 45.6733 29.9255C45.5672 29.988 45.4609 30.0524 45.3553 30.1206C45.3655 29.5783 45.3855 29.0374 45.4144 28.5029C45.4185 28.3998 45.259 28.3817 45.254 28.484C45.2246 29.0625 45.2019 29.6468 45.193 30.2338C45.0501 30.3372 44.9123 30.4524 44.7833 30.5907C44.7942 29.365 44.9028 28.1397 45.0662 26.9282C45.3326 24.958 45.7363 22.9946 46.2756 21.0822C46.3032 20.9832 46.1539 20.9235 46.1261 21.0235C45.2404 24.1603 44.6073 27.4948 44.6229 30.7846C44.5695 30.8622 44.5218 30.9477 44.4889 31.0466C44.4643 31.1168 44.4496 31.1816 44.4472 31.2776C44.4447 31.3307 44.4494 31.3407 44.4507 31.3737C44.4586 31.4339 44.4659 31.4562 44.4776 31.4993C44.517 31.6171 44.5764 31.7142 44.6466 31.795C44.6565 32.0052 44.6687 32.2151 44.6834 32.4237C44.9567 36.0919 46.4489 39.4643 49.2385 41.9039C49.3166 41.9717 49.4103 41.8419 49.3333 41.7739C47.9357 40.5516 46.8148 39.0782 46.0477 37.3865C45.3194 35.7775 44.9631 34.0265 44.8324 32.2745C44.8248 32.1673 44.8204 32.0587 44.8141 31.9503C44.8846 32.0037 44.9567 32.0501 45.0264 32.0909C45.0942 32.1272 45.1618 32.1596 45.2291 32.19C45.3408 34.1696 45.7111 36.1253 46.6424 37.889C46.6906 37.98 46.8364 37.9153 46.7884 37.8232C45.8786 36.0991 45.5091 34.1921 45.3943 32.2589C45.535 32.3131 45.6764 32.3593 45.8209 32.3982C46.0665 34.307 46.6459 36.2077 47.6955 37.825C47.7526 37.9127 47.8762 37.8104 47.82 37.7245C46.794 36.1426 46.2463 34.3014 45.9905 32.442C46.1166 32.473 46.2427 32.4992 46.3674 32.5256C46.8253 32.6142 47.2891 32.6735 47.7592 32.7132C49.6381 32.8736 51.6058 32.82 53.6377 32.6841C55.6672 32.5428 57.7601 32.2997 59.8899 31.968C62.0212 31.6341 64.0893 31.2271 66.0671 30.7424C66.7088 30.5826 67.3404 30.4146 67.9617 30.2366C68.1046 31.3016 68.1441 32.3788 68.0284 33.45C68.0172 33.5533 68.1771 33.5712 68.1885 33.4689C68.3055 32.3751 68.264 31.2786 68.1169 30.1928C68.3896 30.1141 68.6618 30.0325 68.93 29.9496C69.1798 31.9486 69.0947 33.9842 68.5884 35.9412C68.5628 36.0399 68.7126 36.0995 68.7381 35.9999C69.2543 34.0062 69.3415 31.9341 69.0841 29.8992C69.327 29.8232 69.5688 29.7464 69.8063 29.6673C69.8853 30.4231 69.912 31.1871 69.9037 31.94C69.8793 34.0706 69.5472 36.2307 68.8683 38.2517C68.8357 38.3496 68.9845 38.4083 69.018 38.3103C69.7026 36.2698 70.0246 34.1074 70.0626 31.9581C70.0751 31.1821 70.0497 30.3945 69.9665 29.612C70.1138 29.5617 70.2646 29.5147 70.4106 29.4616C70.5256 30.654 70.5682 31.8518 70.5245 33.0464C70.4299 35.7463 69.8917 38.5926 68.3111 40.8394C68.251 40.923 68.381 41.0179 68.4408 40.9324C69.9985 38.7203 70.5414 35.9534 70.6748 33.2962C70.7384 32.0038 70.7024 30.6986 70.5741 29.4029C70.7126 29.352 70.8479 29.2996 70.9843 29.2481C71.0166 29.5358 71.0517 29.8232 71.0943 30.1083C71.1094 30.2114 71.2685 30.1865 71.2524 30.0836C71.2082 29.788 71.1703 29.4894 71.1363 29.1902C71.174 29.1755 71.2138 29.1615 71.2523 29.1457C71.3104 30.6856 71.2375 32.2313 71.0594 33.7466C70.6839 36.9472 69.7806 40.318 67.7363 42.8764C67.6709 42.9579 67.8017 43.0516 67.8663 42.9713C69.8843 40.4443 70.7811 37.1506 71.1909 33.9945C71.3998 32.3826 71.4858 30.7275 71.4187 29.0797C71.5031 29.045 71.5898 29.0129 71.674 28.9773C71.6969 28.9679 71.7178 28.9578 71.7396 28.9475C71.898 31.5542 71.7036 34.1711 71.0055 36.7378C70.978 36.8368 71.1279 36.8964 71.1533 36.7967C71.8651 34.1869 72.0606 31.5269 71.8957 28.8783C71.9449 28.8559 71.9953 28.8344 72.0453 28.811C72.0562 29.3119 72.0587 29.8093 72.0501 30.3036C72.0206 32.2017 71.8491 34.122 71.5136 36.0104C70.5788 39.3793 68.9336 42.5313 66.9986 45.4269C66.9408 45.513 67.0698 45.608 67.1286 45.5218C68.8033 43.0152 70.2406 40.332 71.2174 37.4817C70.9247 38.7699 70.5537 40.0372 70.0885 41.2645C70.07 41.3143 70.0994 41.3526 70.1368 41.3672C69.6005 42.4329 68.9457 43.4332 68.1421 44.3122C68.072 44.3886 68.2027 44.4814 68.2711 44.4072C69.3256 43.2538 70.119 41.8971 70.7298 40.4586C72.6936 36.7347 73.2591 32.5011 73.014 28.3327C73.272 28.185 73.525 28.0303 73.7621 27.842C73.885 28.8974 73.9215 29.9624 73.8883 31.012C73.8111 33.4915 73.3094 36.0597 72.1446 38.2748C72.3811 37.6083 72.5866 36.931 72.7559 36.2399C73.3784 33.6957 73.5183 31.0551 73.4325 28.444C73.4291 28.341 73.2701 28.3668 73.2743 28.4687C73.3572 31.0296 73.2073 33.6004 72.625 36.1022C72.0361 38.6363 70.9471 41.0308 69.4199 43.1385C69.3765 43.198 69.428 43.2592 69.4825 43.2644C68.4457 44.6435 67.3429 45.9626 66.442 47.4435C65.5812 48.8624 64.9343 50.3944 64.6022 52.0235C64.1918 54.0387 64.313 56.1203 64.6083 58.1424C64.9561 60.532 65.6394 62.8556 66.36 65.1549C66.6575 66.1049 66.9629 67.0538 67.2579 68.0052C67.287 68.1041 67.4347 68.0371 67.4038 67.9395C67.177 67.2058 66.9406 66.4677 66.7069 65.7273C66.9693 66.2885 67.2622 66.8079 67.5817 67.2724C67.5982 67.2971 67.6155 67.3198 67.6339 67.3442C67.8813 67.697 68.1445 68.0199 68.4229 68.3024C69.2281 69.1332 70.1448 69.6029 70.9259 69.7981C71.7095 70.0037 72.3456 69.9765 72.7636 69.9473C73.1835 69.911 73.4003 69.8615 73.4009 69.8653C73.4003 69.8615 73.1812 69.9026 72.7615 69.9213C72.3439 69.9348 71.7119 69.9379 70.9499 69.7085C70.1899 69.4915 69.3162 69.0033 68.5582 68.1749C68.3231 67.9198 68.1007 67.6334 67.8894 67.3239C67.9337 67.3199 67.9781 67.3168 68.0225 67.3138C68.7746 67.2607 69.6963 67.2192 70.7654 67.2338C71.832 67.2516 73.0502 67.3209 74.3715 67.544C75.0286 67.658 75.7142 67.8105 76.4017 68.0379C77.0857 68.2678 77.7869 68.5701 78.3768 69.0412C78.6685 69.2777 78.9249 69.5627 79.0802 69.8947C79.2384 70.2262 79.281 70.6051 79.1959 70.9727C79.0267 71.7204 78.4391 72.3763 77.7848 72.9236C76.4375 74.0213 74.7285 74.8085 72.9254 75.4504C71.1125 76.0849 69.1663 76.5539 67.1498 76.8709C65.133 77.184 63.1378 77.3307 61.217 77.2794C59.3058 77.2188 57.4369 76.9896 55.8199 76.3579C55.0299 76.0352 54.2693 75.5889 53.8788 74.9296C53.6854 74.6065 53.6103 74.2308 53.6588 73.8699C53.7044 73.5055 53.8613 73.155 54.0662 72.8419C54.4838 72.2125 55.0606 71.7095 55.6404 71.2842C56.2269 70.8558 56.832 70.5016 57.4249 70.1923C58.6145 69.577 59.7539 69.1394 60.7646 68.797C61.7777 68.4563 62.6684 68.2146 63.4011 68.0357C63.6022 67.9877 63.7882 67.944 63.9653 67.9037C63.9111 68.1181 63.8536 68.3282 63.786 68.5281C63.4388 69.5896 62.8839 70.4112 62.2868 70.9242C61.6912 71.4438 61.1018 71.6735 60.7068 71.7947C60.3066 71.9158 60.0861 71.9415 60.0878 71.9451C60.0861 71.9415 60.3072 71.9245 60.7141 71.8199C61.1153 71.7133 61.719 71.5039 62.3455 70.9951C62.9743 70.4928 63.5727 69.6663 63.962 68.5904C64.0484 68.3553 64.125 68.1081 64.1945 67.8523C64.1998 67.83 64.2062 67.8085 64.2131 67.7859C64.4472 66.8904 64.575 65.8778 64.6063 64.7876C64.6449 63.3556 64.5286 61.7857 64.226 60.1278C63.9008 58.4891 63.5395 56.7037 62.7163 54.9661C61.9083 53.2232 60.6208 51.6246 59.0867 50.242C58.3239 49.5442 57.4947 48.8929 56.6449 48.2634C55.7952 47.63 54.9203 47.0082 54.0362 46.3841C52.266 45.1321 50.5342 43.923 49.0056 42.5972C47.4775 41.2771 46.156 39.8126 45.3343 38.1675C44.9212 37.3487 44.637 36.4932 44.4733 35.6403C44.3914 35.2139 44.3474 34.7855 44.307 34.3565C44.2664 33.9304 44.2354 33.5097 44.2126 33.0955C44.1215 31.4358 44.1567 29.8843 44.2448 28.4718C44.4276 25.644 44.8476 23.3803 45.1987 21.8331C45.5569 20.2867 45.837 19.4514 45.8302 19.4495C45.837 19.4514 45.5222 20.2746 45.1096 21.8119C44.7033 23.3482 44.2077 25.6081 43.9503 28.4486C43.8245 29.8688 43.7524 31.433 43.8104 33.1125C43.8238 33.533 43.8466 33.9599 43.8792 34.393C43.9108 34.8244 43.9485 35.2704 44.0274 35.7197C44.1817 36.617 44.4655 37.5214 44.8872 38.3876C45.7257 40.1287 47.0857 41.6634 48.6328 43.0224C50.1843 44.3876 51.9259 45.6147 53.6941 46.866C54.5794 47.491 55.4523 48.1071 56.2967 48.7316C57.1457 49.3554 57.9573 49.9851 58.7085 50.6612C60.2162 52.0001 61.4659 53.5198 62.2684 55.1815C63.0826 56.8376 63.4739 58.5831 63.8303 60.2052C64.1609 61.8265 64.3133 63.3752 64.3121 64.7838C64.3083 65.8941 64.2025 66.9228 63.9833 67.8286C63.7963 67.8637 63.5951 67.901 63.3809 67.9452C62.6414 68.0978 61.739 68.3081 60.7085 68.6184C59.6794 68.9305 58.5178 69.3364 57.2927 69.929C56.6808 70.2266 56.0533 70.5716 55.4386 70.9975C54.8265 71.4259 54.2103 71.9311 53.7307 72.6171C53.4965 72.9601 53.2996 73.3599 53.2333 73.8114C53.162 74.2608 53.2516 74.7485 53.4855 75.155C53.7128 75.5656 54.0562 75.8916 54.4263 76.1598C54.7986 76.4267 55.2073 76.639 55.6299 76.818C57.3354 77.5139 59.2446 77.7642 61.1996 77.8444C63.1605 77.9128 65.1913 77.7723 67.2409 77.454C69.2908 77.1318 71.2685 76.6462 73.115 75.9829C74.9531 75.3093 76.695 74.4886 78.1069 73.3047C78.4544 73.0054 78.7801 72.6784 79.0515 72.31C79.323 71.9425 79.5489 71.5266 79.6398 71.0653C79.7382 70.6078 79.6727 70.1135 79.468 69.7091C79.2655 69.3006 78.9558 68.98 78.6282 68.7257C77.9614 68.2188 77.2218 67.9264 76.5088 67.7049C75.7925 67.4869 75.0898 67.3498 74.4159 67.253C73.0686 67.0633 71.8395 67.0308 70.7636 67.0476C69.6899 67.066 68.7656 67.1411 68.0149 67.2213C67.9536 67.2289 67.8941 67.2353 67.8328 67.2429C67.3826 66.5666 66.9904 65.7738 66.6672 64.8922C66.1791 63.5629 65.8306 62.0372 65.6414 60.3821C65.5931 59.9728 65.569 59.5432 65.5216 59.1085Z" fill="#BF4D20"/>
<path d="M75.8979 72.84C73.7338 74.3445 71.343 75.6286 68.6538 75.7461C68.5511 75.7505 68.5769 75.9094 68.6787 75.9053C71.396 75.7863 73.8134 74.4853 75.9994 72.9647C76.0848 72.9055 75.9824 72.781 75.8979 72.84Z" fill="#BF4D20"/>
<path d="M69.0553 75.1979C71.0661 74.8301 73.1029 74.4036 74.645 72.9602C74.72 72.8909 74.6203 72.7649 74.5437 72.8364C73.0201 74.2613 71.0157 74.676 69.0305 75.0388C68.9291 75.0585 68.9529 75.2169 69.0553 75.1979Z" fill="#BF4D20"/>
<path d="M73.5353 72.6156C72.3124 73.5778 70.8432 74.0015 69.3632 74.3928C69.2629 74.4192 69.2877 74.5783 69.3879 74.5509C70.8953 74.1534 72.3921 73.7195 73.6378 72.7402C73.7175 72.676 73.617 72.5512 73.5353 72.6156Z" fill="#BF4D20"/>
<path d="M72.5536 72.2277C71.6993 73.0503 70.5849 73.5396 69.4216 73.7341C69.3189 73.7511 69.3436 73.9093 69.4463 73.8922C70.6354 73.6938 71.7801 73.1929 72.655 72.3515C72.7299 72.2812 72.6292 72.1554 72.5536 72.2277Z" fill="#BF4D20"/>
<path d="M71.7576 71.9722C71.1184 72.6284 70.3004 72.8909 69.4285 73.0827C69.3275 73.1043 69.3523 73.2635 69.4534 73.2418C70.3496 73.0432 71.2022 72.7715 71.8581 72.097C71.9298 72.0244 71.8292 71.8995 71.7576 71.9722Z" fill="#BF4D20"/>
<path d="M70.9743 71.8236C70.4917 72.1586 69.9666 72.3958 69.3976 72.5462C69.2992 72.5723 69.3222 72.7317 69.4223 72.7044C70.0177 72.5479 70.5694 72.2997 71.0767 71.9482C71.1621 71.8889 71.0599 71.7653 70.9743 71.8236Z" fill="#BF4D20"/>
<path d="M70.2314 71.5626C69.9342 71.7721 69.626 71.9608 69.2635 72.0272C69.1622 72.0469 69.1869 72.205 69.2884 72.1863C69.6782 72.1137 70.0119 71.9132 70.3329 71.6873C70.4172 71.6273 70.3159 71.5036 70.2314 71.5626Z" fill="#BF4D20"/>
<path d="M69.5832 71.2299C69.4125 71.399 69.2228 71.4843 68.9819 71.479C68.8781 71.4767 68.859 71.6358 68.9638 71.638C69.2469 71.6445 69.4826 71.554 69.6857 71.3544C69.7574 71.2827 69.6569 71.1578 69.5832 71.2299Z" fill="#BF4D20"/>
<path d="M69.272 70.8365C69.1312 70.9102 68.9872 70.9815 68.8569 71.0722C68.7715 71.1314 68.8739 71.2559 68.9574 71.197C69.0773 71.1148 69.2096 71.0493 69.3379 70.9834C69.429 70.9359 69.3641 70.7889 69.272 70.8365Z" fill="#BF4D20"/>
<path d="M69.0209 70.396C68.8775 70.5218 68.7071 70.5865 68.516 70.5754C68.4124 70.5681 68.3936 70.7292 68.4979 70.7344C68.7303 70.7478 68.9472 70.674 69.1223 70.5207C69.1995 70.452 69.0991 70.3281 69.0209 70.396Z" fill="#BF4D20"/>
<path d="M68.5263 69.9897C68.4441 70.0445 68.3499 70.0602 68.2556 70.0749C68.1527 70.091 68.1774 70.2491 68.2803 70.2331C68.4051 70.2136 68.5197 70.1849 68.6259 70.1147C68.7125 70.0572 68.6111 69.9325 68.5263 69.9897Z" fill="#BF4D20"/>
<path d="M68.2079 69.4313L67.8392 69.4889C67.7353 69.5051 67.7602 69.6642 67.864 69.648L68.2328 69.5904C68.3337 69.5746 68.3089 69.4155 68.2079 69.4313Z" fill="#BF4D20"/>
<path d="M67.6871 68.8629C67.6592 68.8653 67.6268 68.8518 67.5996 68.8463C67.5571 68.8364 67.5105 68.8378 67.4665 68.8437C67.3649 68.8557 67.3896 69.0138 67.4912 69.0019C67.5679 68.9928 67.6358 69.0281 67.712 69.022C67.8143 69.0148 67.7895 68.8557 67.6871 68.8629Z" fill="#BF4D20"/>
<path d="M63.0984 68.3926C61.0399 69.1465 58.9402 69.8074 56.9818 70.8092C56.8911 70.8556 56.9564 71.0026 57.0488 70.9549C59.0068 69.9531 61.1064 69.2933 63.1658 68.5382C63.2624 68.5026 63.1962 68.3568 63.0984 68.3926Z" fill="#BF4D20"/>
<path d="M62.7445 69.0945C61.057 69.5358 59.3246 70.0729 57.868 71.0578C57.7821 71.1161 57.884 71.2408 57.9691 71.1826C59.4001 70.2143 61.113 69.6871 62.7692 69.2526C62.8675 69.2275 62.8442 69.0682 62.7445 69.0945Z" fill="#BF4D20"/>
<path d="M62.3951 69.635C61.5659 69.8768 60.7219 70.0731 59.9654 70.5046C59.8769 70.5555 59.9409 70.7017 60.0313 70.6504C60.7759 70.2257 61.6042 70.0318 62.4198 69.7932C62.5173 69.7653 62.4941 69.6069 62.3951 69.635Z" fill="#BF4D20"/>
<path d="M62.347 70.0237C61.8988 70.1054 61.5072 70.3227 61.1503 70.6001C61.0694 70.6634 61.1705 70.7882 61.2525 70.7246C61.5868 70.4635 61.9492 70.2595 62.3717 70.1818C62.473 70.164 62.4482 70.0049 62.347 70.0237Z" fill="#BF4D20"/>
<path d="M62.3687 70.2924C62.1698 70.3762 61.967 70.4616 61.802 70.6064C61.7254 70.673 61.8264 70.7988 61.9039 70.7311C62.0581 70.5957 62.2484 70.5181 62.4338 70.4384C62.5295 70.3991 62.4635 70.2522 62.3687 70.2924Z" fill="#BF4D20"/>
<path d="M62.6279 77.0117C62.7313 77.0024 62.7052 76.8445 62.6032 76.8536C60.0053 77.0779 56.8916 76.7981 54.8491 75.004C54.7716 74.9351 54.6784 75.0658 54.7537 75.1331C56.8295 76.9571 59.9894 77.2394 62.6279 77.0117Z" fill="#BF4D20"/>
<path d="M55.5062 74.7493C57.4532 75.9179 59.6648 76.5924 61.9478 76.471C62.0507 76.4657 62.0262 76.3085 61.9231 76.3128C59.6854 76.4321 57.5085 75.7639 55.6005 74.6184C55.5126 74.5657 55.4169 74.6949 55.5062 74.7493Z" fill="#BF4D20"/>
<path d="M57.054 74.6137C58.3646 75.4592 59.9323 76.0059 61.4906 75.6229C61.5905 75.5985 61.5666 75.4402 61.4659 75.4647C59.9484 75.8374 58.4262 75.3071 57.1493 74.4846C57.0628 74.4289 56.9679 74.5579 57.054 74.6137Z" fill="#BF4D20"/>
<path d="M57.8916 74.0438C57.8041 73.9891 57.7082 74.1193 57.7962 74.1729C58.8089 74.7975 59.9754 75.1335 61.163 74.9158C61.2653 74.8969 61.2406 74.7387 61.1383 74.7576C59.9929 74.9678 58.8679 74.6458 57.8916 74.0438Z" fill="#BF4D20"/>
<path d="M61.0403 74.122C60.3103 74.2663 59.615 73.9991 58.9594 73.7004C58.8655 73.6575 58.8065 73.8072 58.9001 73.8502C59.5825 74.1594 60.308 74.4296 61.0651 74.2801C61.1672 74.2603 61.1425 74.1021 61.0403 74.122Z" fill="#BF4D20"/>
<path d="M61.1595 73.5089C60.6739 73.5242 60.2044 73.4375 59.7531 73.2533C59.6585 73.2134 59.5995 73.3632 59.6951 73.4019C60.1737 73.5975 60.6683 73.6833 61.1842 73.6671C61.2876 73.6646 61.2612 73.5057 61.1595 73.5089Z" fill="#BF4D20"/>
<path d="M60.1494 72.8444C60.4949 72.9984 60.853 73.0644 61.2317 73.0628C61.3327 73.0627 61.3519 72.9025 61.249 72.903C60.8851 72.9042 60.5422 72.8446 60.2073 72.6948C60.1138 72.6528 60.055 72.8035 60.1494 72.8444Z" fill="#BF4D20"/>
<path d="M60.7326 72.428C60.985 72.5086 61.2293 72.572 61.4947 72.5374C61.5969 72.5233 61.5722 72.3652 61.47 72.3792C61.2333 72.4094 61.0148 72.3508 60.792 72.2792C60.6937 72.2477 60.6348 72.3974 60.7326 72.428Z" fill="#BF4D20"/>
<path d="M61.6322 72.0274C61.7357 72.0112 61.711 71.853 61.6075 71.8692L61.3966 71.9022C61.2945 71.9181 61.3192 72.0763 61.4213 72.0603L61.6322 72.0274Z" fill="#BF4D20"/>
<path d="M71.8981 69.4755C71.4463 69.2074 70.9465 69.0698 70.4318 68.9804C70.3285 68.9623 70.3126 69.1229 70.4137 69.1393C70.8994 69.2245 71.3751 69.3513 71.8042 69.6054C71.8913 69.6571 71.9873 69.528 71.8981 69.4755Z" fill="#BF4D20"/>
<path d="M72.9369 69.2987C72.2082 68.9265 71.416 68.735 70.6024 68.6816C70.4997 68.6742 70.4808 68.8343 70.5833 68.8407C71.3842 68.8942 72.1611 69.0813 72.8773 69.4486C72.9705 69.4955 73.0272 69.3461 72.9369 69.2987Z" fill="#BF4D20"/>
<path d="M74.1338 69.2335C73.0872 68.6259 71.9446 68.2656 70.7384 68.173C70.6356 68.1646 70.6165 68.3238 70.7203 68.332C71.897 68.4234 73.0171 68.7706 74.0386 69.3616C74.1267 69.4132 74.2218 69.2842 74.1338 69.2335Z" fill="#BF4D20"/>
<path d="M71.2678 68.0302C72.6301 68.0409 73.8947 68.4514 75.1323 68.9882C75.2274 69.0289 75.2851 68.8794 75.191 68.8394C73.9397 68.296 72.6617 67.8808 71.2859 67.8712C71.1833 67.8706 71.1643 68.0298 71.2678 68.0302Z" fill="#BF4D20"/>
<path d="M71.7481 67.3668C71.646 67.3505 71.6282 67.5115 71.7309 67.5257C73.4164 67.7933 75.0935 68.076 76.6279 68.864C76.7212 68.911 76.7779 68.7615 76.6865 68.7143C75.1403 67.9193 73.4494 67.6359 71.7481 67.3668Z" fill="#BF4D20"/>
<path d="M70.1982 69.3668C70.4104 69.5133 70.6645 69.5712 70.9077 69.6474C71.0052 69.678 71.064 69.5293 70.9655 69.4988C70.7374 69.4261 70.4913 69.3748 70.2921 69.237C70.2068 69.1781 70.1118 69.3071 70.1982 69.3668Z" fill="#BF4D20"/>
<path d="M66.5677 46.4471C66.6365 46.369 66.5047 46.2754 66.4388 46.3531C64.2876 48.852 63.8335 52.426 63.9321 55.6071C64.0659 59.9101 65.5606 64.0015 66.7191 68.1024C66.3857 67.7699 65.9591 67.575 65.4634 67.75C64.8634 67.9628 64.5886 68.6763 64.5296 69.2536C64.5187 69.3568 64.6786 69.3747 64.6888 69.2716C64.7443 68.7359 64.9621 68.1924 65.4605 67.9271C66.0216 67.6286 66.5514 68.0837 66.8584 68.5189C66.9175 68.6043 67.0429 68.5018 66.9831 68.4184C66.9379 68.3542 66.8903 68.2933 66.8402 68.2338C66.8797 68.2276 66.911 68.1964 66.8973 68.1477C65.7895 64.2117 64.3957 60.3202 64.1213 56.2081C63.9005 52.8987 64.324 49.0543 66.5677 46.4471Z" fill="#BF4D20"/>
<path d="M60.3026 49.4128C60.9921 50.1679 61.9159 50.8269 62.9806 50.5034C64.0503 50.1762 64.6436 48.9445 64.9807 47.9783C65.0153 47.8811 64.8656 47.8225 64.831 47.9197C64.5083 48.8466 64.0108 49.8545 63.0781 50.293C62.0753 50.7659 61.0753 50.0222 60.4267 49.3115C60.3572 49.2354 60.233 49.3358 60.3026 49.4128Z" fill="#BF4D20"/>
<path d="M65.9171 18.8878C66.6409 20.4096 67.279 21.976 67.6293 23.6313C67.65 23.7325 67.8091 23.7076 67.7875 23.6066C67.4351 21.9379 66.7946 20.3563 66.063 18.822C66.0182 18.7285 65.8721 18.7933 65.9171 18.8878Z" fill="#BF4D20"/>
<path d="M67.8766 20.5659L67.0678 18.5C67.0293 18.4036 66.8835 18.4703 66.922 18.5667L67.7307 20.6316C67.769 20.7271 67.9149 20.6614 67.8766 20.5659Z" fill="#BF4D20"/>
<path d="M76.0101 73.3927C75.9232 73.4482 76.0254 73.5718 76.1124 73.5163C77.2982 72.7532 78.8856 71.4374 78.0166 69.8797C77.9657 69.7911 77.8197 69.8558 77.8698 69.9456C78.6994 71.4324 77.1319 72.6699 76.0101 73.3927Z" fill="#BF4D20"/>
<path d="M54.4171 73.058C54.185 73.4925 54.1382 73.9839 54.3803 74.4253C54.429 74.5153 54.5755 74.4495 54.5259 74.3596C54.303 73.9523 54.3533 73.5159 54.5667 73.1166C54.6156 73.025 54.4657 72.9684 54.4171 73.058Z" fill="#BF4D20"/>
<path d="M63.7638 53.4577C63.6856 52.369 63.7361 51.2572 64.058 50.2055C64.0868 50.1073 63.9385 50.0485 63.9082 50.1479C63.5788 51.2261 63.5255 52.3637 63.6056 53.4824C63.613 53.5857 63.7706 53.5601 63.7638 53.4577Z" fill="#BF4D20"/>
<path d="M63.1728 50.6878C63.1687 51.2272 63.1755 51.7688 63.1826 52.3094C63.1847 52.4116 63.3422 52.4309 63.3428 52.3274C63.3346 51.7869 63.3272 51.2464 63.332 50.7059C63.3335 50.6032 63.1738 50.5842 63.1728 50.6878Z" fill="#BF4D20"/>
<path d="M64.2131 32.0405C62.7902 32.579 61.3226 33.0025 59.8265 33.2782C58.2991 33.5608 56.6563 33.7081 55.1373 33.3051C55.0388 33.2775 54.9791 33.4274 55.0789 33.4538C56.5519 33.8454 58.1167 33.7259 59.6048 33.4798C61.199 33.2171 62.7676 32.7592 64.279 32.1874C64.3756 32.1498 64.3099 32.0039 64.2131 32.0405Z" fill="#BF4D20"/>
<path d="M62.2616 33.967C60.8858 34.3332 59.4762 34.487 58.062 34.623C57.9588 34.6333 57.9852 34.7922 58.0869 34.7821C59.5009 34.6452 60.9107 34.4923 62.2865 34.1261C62.3858 34.0998 62.3621 33.9415 62.2616 33.967Z" fill="#BF4D20"/>
<path d="M61.7258 34.7001C61.0805 34.8839 60.4334 35.0592 59.7698 35.1677C59.6676 35.1847 59.6923 35.3428 59.7945 35.3259C60.4582 35.2173 61.1054 35.043 61.7505 34.8583C61.8495 34.8301 61.8248 34.672 61.7258 34.7001Z" fill="#BF4D20"/>
<path d="M61.3082 36.3096C61.0127 36.429 60.7038 36.4822 60.3901 36.5312C60.2888 36.547 60.3135 36.7051 60.4148 36.6893C60.7423 36.6381 61.0654 36.5808 61.3742 36.4555C61.4703 36.417 61.404 36.2712 61.3082 36.3096Z" fill="#BF4D20"/>
<path d="M61.3103 39.9616C60.9656 40.1052 60.6152 40.2244 60.2459 40.287C60.1443 40.3048 60.169 40.4629 60.2708 40.4461C60.6528 40.3796 61.0178 40.2562 61.3758 40.1075C61.4717 40.0672 61.4047 39.9214 61.3103 39.9616Z" fill="#BF4D20"/>
<path d="M60.6641 41.9285C60.5621 41.9445 60.5868 42.1026 60.6888 42.0867L61.323 41.9876C61.4258 41.9716 61.401 41.8134 61.2983 41.8294L60.6641 41.9285Z" fill="#BF4D20"/>
<line x1="0.266667" y1="-0.266667" x2="4.84756" y2="-0.266667" transform="matrix(0.293588 -0.955932 -0.955932 -0.293588 45.6123 8.59082)" stroke="#BF4D20" stroke-width="0.533333" stroke-linecap="round"/>
<line x1="0.266667" y1="-0.266667" x2="7.00275" y2="-0.266667" transform="matrix(0.0559531 -0.998433 -0.998433 -0.0559531 41.9785 7.25781)" stroke="#BF4D20" stroke-width="0.533333" stroke-linecap="round"/>
<line x1="0.266667" y1="-0.266667" x2="4.84756" y2="-0.266667" transform="matrix(-0.205463 -0.978665 -0.978665 0.205464 38.21 8.64844)" stroke="#BF4D20" stroke-width="0.533333" stroke-linecap="round"/>
</svg>
