<svg width="91" height="120" viewBox="0 0 91 120" fill="none" xmlns="http://www.w3.org/2000/svg">
<path d="M40.7353 105.182C41.1372 105.7 41.425 106.241 41.5988 106.805C41.7613 107.367 41.8158 107.927 41.7623 108.485C41.7024 109.048 41.5324 109.579 41.2523 110.08C40.9723 110.58 40.5856 111.022 40.0924 111.404C39.5992 111.786 39.0754 112.05 38.5208 112.197C37.9663 112.343 37.4123 112.373 36.8588 112.286C36.2941 112.197 35.7605 111.998 35.2579 111.689C34.7491 111.385 34.2937 110.974 33.8918 110.456C33.4556 109.893 33.1552 109.316 32.9906 108.725C32.8211 108.128 32.7933 107.537 32.9072 106.953L34.2688 107.142C34.2105 107.602 34.2389 108.031 34.354 108.427C34.4579 108.823 34.6495 109.2 34.9289 109.561C35.1985 109.909 35.5053 110.187 35.8495 110.396C36.1936 110.605 36.5534 110.736 36.9287 110.789C37.304 110.842 37.6804 110.819 38.0581 110.718C38.4308 110.612 38.7879 110.426 39.1294 110.161C39.4645 109.902 39.7302 109.605 39.9265 109.27C40.1179 108.929 40.2378 108.568 40.2862 108.187C40.3282 107.81 40.2934 107.432 40.1818 107.053C40.0701 106.674 39.8771 106.307 39.6026 105.953C39.3478 105.625 39.0521 105.348 38.7157 105.122C38.3681 104.896 37.9631 104.739 37.5009 104.652L37.8769 103.237C38.4246 103.369 38.9501 103.61 39.4533 103.959C39.9453 104.306 40.3726 104.714 40.7353 105.182ZM38.6199 104.529L36.1349 106.455L35.2307 105.288L37.8769 103.237L38.6199 104.529Z" fill="#F3E8CF"/>
<path d="M31.0864 98.8168L29.4279 94.9843L30.6063 94.4743L32.2648 98.3069L31.0864 98.8168ZM34.3427 97.2769L32.4602 92.9268L33.6606 92.4073L36.1627 98.1891L28.4536 101.525L26.0182 95.8976L27.2186 95.3781L29.0344 99.5741L34.3427 97.2769Z" fill="#F3E8CF"/>
<path d="M32.0055 85.7203L25.0333 86.9514L25.5174 89.693L24.2175 89.9225L22.9781 82.9031L24.278 82.6735L24.7621 85.4151L31.7342 84.1841L32.0055 85.7203Z" fill="#F3E8CF"/>
<path d="M32.3449 66.9843C32.2107 67.6264 31.9922 68.2223 31.6894 68.772C31.3787 69.32 31.0425 69.7361 30.6807 70.0201L29.6048 69.2436C29.932 68.9687 30.2324 68.6065 30.5061 68.157C30.7799 67.7074 30.9699 67.2282 31.0763 66.7192C31.1663 66.2885 31.1921 65.9302 31.1538 65.6443C31.1155 65.3584 31.0311 65.1365 30.9007 64.9784C30.7624 64.8188 30.5915 64.7177 30.3879 64.6751C30.1373 64.6228 29.9188 64.6711 29.7323 64.8201C29.5381 64.9675 29.3676 65.1771 29.2209 65.4488C29.068 65.7111 28.9156 66.0102 28.7637 66.3462C28.6134 66.6744 28.4505 67.0041 28.2751 67.3352C28.0934 67.6569 27.8901 67.9454 27.6651 68.2007C27.4339 68.4467 27.1586 68.6302 26.839 68.7514C26.5195 68.8726 26.1404 68.8874 25.7019 68.7957C25.2555 68.7025 24.8729 68.4999 24.5539 68.1881C24.2288 67.8668 24.0073 67.4405 23.8895 66.9091C23.7655 66.3683 23.782 65.722 23.9391 64.9703C24.0422 64.4769 24.2071 64.0006 24.4339 63.5413C24.6606 63.0819 24.9291 62.6967 25.2393 62.3856L26.3251 63.1151C26.0289 63.4373 25.789 63.7836 25.6054 64.1538C25.4139 64.5225 25.2805 64.8869 25.2053 65.2471C25.1169 65.67 25.0958 66.0252 25.142 66.3127C25.1898 66.5924 25.2828 66.8121 25.4211 66.9717C25.561 67.1236 25.7366 67.2216 25.9481 67.2657C26.1986 67.3181 26.4203 67.2745 26.6129 67.135C26.7993 66.986 26.965 66.7795 27.1101 66.5156C27.2568 66.2438 27.41 65.9408 27.5698 65.6064C27.7217 65.2704 27.8846 64.9407 28.0584 64.6174C28.2338 64.2863 28.4332 63.997 28.6566 63.7494C28.8816 63.4941 29.153 63.3097 29.471 63.1963C29.7905 63.0751 30.1656 63.0595 30.5963 63.1495C31.0349 63.2412 31.4167 63.4476 31.7418 63.7689C32.0608 64.0808 32.2823 64.5071 32.4063 65.0479C32.5225 65.5871 32.502 66.2325 32.3449 66.9843Z" fill="#F3E8CF"/>
<path d="M35.2283 57.7217L28.7958 54.7637L27.6327 57.2931L26.4334 56.7417L29.4114 50.2655L30.6106 50.817L29.4475 53.3464L35.88 56.3043L35.2283 57.7217Z" fill="#F3E8CF"/>
<path d="M38.7864 50.8589L34.506 42.7025L35.4534 41.4935L44.4042 43.6897L43.3976 44.9743L35.4316 42.8637L35.8165 42.3725L39.7782 49.5932L38.7864 50.8589ZM38.3295 48.2902L37.6251 47.2047L40.4229 43.6343L41.6454 44.0586L38.3295 48.2902Z" fill="#F3E8CF"/>
<path d="M47.1229 41.3778L41.9474 34.7616L44.6695 32.6322C45.2555 32.1738 45.8303 31.8765 46.3941 31.7402C46.9641 31.599 47.5006 31.6161 48.0035 31.7915C48.5063 31.9669 48.9475 32.2972 49.3271 32.7824C49.7066 33.2676 49.921 33.7753 49.9702 34.3056C50.0144 34.8296 49.8994 35.3513 49.6251 35.8706C49.3522 36.3786 48.9227 36.8618 48.3367 37.3202L46.2951 38.9173L46.4071 37.9308L48.3516 40.4166L47.1229 41.3778ZM51.4518 37.9915L47.9009 36.8994L49.2146 35.8717L52.775 36.9564L51.4518 37.9915ZM46.5106 38.0631L45.504 37.9059L47.4889 36.3533C48.0308 35.9294 48.346 35.4949 48.4346 35.0498C48.5294 34.5998 48.4142 34.1668 48.0889 33.7509C47.7586 33.3288 47.3662 33.1127 46.9115 33.1027C46.4631 33.0879 45.9679 33.2924 45.426 33.7163L43.4412 35.2689L43.5162 34.2352L46.5106 38.0631Z" fill="#F3E8CF"/>
<path d="M58.136 34.2042L55.1834 27.7692L52.653 28.9303L52.1026 27.7305L58.5811 24.7579L59.1316 25.9577L56.6013 27.1187L59.5538 33.5536L58.136 34.2042Z" fill="#F3E8CF"/>
<path d="M66.9239 25.9912L71.0195 25.1758L71.2702 26.4351L67.1746 27.2505L66.9239 25.9912ZM67.7445 29.4985L72.3932 28.5729L72.6486 29.8557L66.4699 31.0859L64.8297 22.8476L70.8437 21.6502L71.0991 22.9331L66.6151 23.8258L67.7445 29.4985Z" fill="#F3E8CF"/>
<path d="M77.7829 29.5299L78.24 21.1424L81.9066 21.3422C82.8172 21.3918 83.6065 21.6111 84.2743 22C84.9421 22.3889 85.4508 22.9053 85.8002 23.5493C86.1497 24.1933 86.3014 24.9386 86.2552 25.7854C86.2095 26.6241 85.9778 27.3486 85.56 27.9588C85.1426 28.561 84.5808 29.0191 83.8747 29.3331C83.1685 29.6472 82.3601 29.7794 81.4495 29.7297L77.7829 29.5299ZM79.4125 28.2968L81.4494 28.4078C82.0805 28.4422 82.6302 28.3519 83.0986 28.1371C83.575 27.9227 83.9487 27.6066 84.2199 27.1887C84.499 26.7713 84.6542 26.275 84.6856 25.6998C84.7174 25.1167 84.617 24.6065 84.3844 24.1692C84.1603 23.7243 83.8231 23.3695 83.3728 23.1046C82.9306 22.8401 82.3939 22.6907 81.7629 22.6563L79.7259 22.5453L79.4125 28.2968Z" fill="#F3E8CF"/>
</svg>
