<svg width="16" height="16" viewBox="0 0 16 16" fill="none" xmlns="http://www.w3.org/2000/svg">
<path d="M7.76934 8.26287L5.10156 5.59509" stroke="#BF4D20" stroke-linecap="round" stroke-linejoin="round"/>
<path d="M7.5957 3.10071L10.2635 5.76849" stroke="#BF4D20" stroke-linecap="round" stroke-linejoin="round"/>
<path d="M1.99609 14.0025H9.05637" stroke="#BF4D20" stroke-linecap="round" stroke-linejoin="round"/>
<path d="M2.59766 14.0025L2.96114 12.9141C3.14226 12.3703 3.65051 12.003 4.22367 12.0017H6.83142C7.40629 12.001 7.91695 12.3687 8.09861 12.9141L8.45943 14.0025" stroke="#BF4D20" stroke-linecap="round" stroke-linejoin="round"/>
<path fill-rule="evenodd" clip-rule="evenodd" d="M5.92673 4.86538L4.45945 6.03587C4.18815 6.25284 4.02185 6.57489 4.002 6.92171C3.98215 7.26853 4.11063 7.60745 4.35541 7.85396L5.4732 8.97709C5.71596 9.22112 6.05117 9.35019 6.3949 9.33198C6.73863 9.31378 7.05833 9.15002 7.27395 8.88172L8.45845 7.41044C8.7387 7.062 9.05628 6.74531 9.40551 6.46605L10.8728 5.29556C11.1441 5.07858 11.3104 4.75654 11.3302 4.40971C11.3501 4.06289 11.2216 3.72398 10.9768 3.47747L9.86103 2.355C9.61827 2.11097 9.28306 1.9819 8.93934 2.00011C8.59561 2.01831 8.27591 2.18207 8.06028 2.45037L6.87445 3.92165C6.59414 4.27005 6.27631 4.58654 5.92673 4.86538Z" stroke="#BF4D20" stroke-linecap="round" stroke-linejoin="round"/>
<path d="M9.5836 6.32397L13.5346 9.66737C13.9106 9.98685 14.0778 10.4888 13.9686 10.97C13.8594 11.4511 13.4918 11.8317 13.0147 11.9575C12.5376 12.0833 12.0301 11.9335 11.6978 11.5688L8.20703 7.72456" stroke="#BF4D20" stroke-linecap="round" stroke-linejoin="round"/>
</svg>
