<svg xmlns="http://www.w3.org/2000/svg" width="16" height="16" viewBox="0 0 16 16" fill="none">
<g clip-path="url(#clip0_1284_49430)">
<path d="M15.0412 15.1783C15.0412 15.2069 15.0374 15.2355 15.0346 15.2736H12.0091V15.0716C12.0091 13.4781 12.0134 11.8846 12.0029 10.2911C12.0027 9.92873 11.9708 9.5671 11.9076 9.21031C11.7236 8.21294 11.0741 7.87604 10.1444 7.98373C9.29765 8.0838 8.83209 8.57891 8.70009 9.4948C8.6531 9.83014 8.62937 10.1683 8.62909 10.5069C8.62146 12.0294 8.62575 13.5515 8.62575 15.0735V15.3041H5.60886V5.56632H8.49375V6.87772C8.53426 6.85532 8.55332 6.85103 8.56047 6.83959C9.19663 5.81411 10.1483 5.36236 11.3243 5.32519C11.9957 5.3047 12.6524 5.38571 13.2719 5.67735C14.0701 6.05332 14.517 6.71331 14.7644 7.5358C14.9612 8.19102 15.0293 8.86531 15.0341 9.5434C15.0446 11.4204 15.0398 13.2994 15.0412 15.1783ZM0.672528 15.2975H3.68608V5.56203H0.672528V15.2975ZM2.16501 0.693359C1.70246 0.699465 1.26076 0.886768 0.934817 1.21503C0.608876 1.54328 0.424705 1.9863 0.421875 2.44888C0.421875 3.42052 1.22482 4.22537 2.18931 4.21965C3.1538 4.21393 3.93387 3.40956 3.92863 2.44221C3.92757 2.21169 3.88111 1.98364 3.7919 1.77109C3.70269 1.55853 3.57247 1.36563 3.4087 1.2034C3.24493 1.04118 3.0508 0.912804 2.8374 0.825617C2.62401 0.738429 2.39553 0.694135 2.16501 0.695264V0.693359Z" fill="#ACA7AA"/>
</g>
<defs>
<clipPath id="clip0_1284_49430">
<rect width="14.6198" height="14.6108" fill="white" transform="translate(0.419922 0.695312)"/>
</clipPath>
</defs>
</svg>
