<svg width="32" height="105" viewBox="0 0 32 105" fill="none" xmlns="http://www.w3.org/2000/svg">
<path fill-rule="evenodd" clip-rule="evenodd" d="M29.6307 60.3564C32.5903 71.5349 30.5676 91.7213 30.5676 103.979C30.5676 105.752 29.1461 107.203 27.4085 107.203H4.3413C2.64005 107.203 1.24785 105.783 1.24785 104.046C1.24785 91.443 -0.805435 71.6517 2.26451 60.0555C5.55083 47.6412 10.7131 33.8608 10.7131 21.1397V7.51681V6.94756H10.6962C10.326 6.94756 10.0236 6.63851 10.0236 6.26112V3.79004C10.0236 3.41265 10.326 3.10404 10.6962 3.10404H10.7131V2.36964V2.33524C10.7313 1.04878 11.7683 0.00170898 13.0328 0.00170898H19.2871C20.2856 0.00170898 21.1023 0.835678 21.1023 1.8547V2.33524V3.10404H21.1196C21.4894 3.10404 21.7918 3.41265 21.7918 3.79004V6.26112C21.7918 6.63851 21.4894 6.94756 21.1196 6.94756H21.1023V7.51681V21.1397C21.1023 33.9228 26.3266 47.8756 29.6307 60.3564Z" fill="#BF4D20"/>
</svg>
