<svg width="125" height="21" viewBox="0 0 125 21" fill="none" xmlns="http://www.w3.org/2000/svg">
<g clip-path="url(#clip0_473_35299)">
<path d="M16.8402 10.9534C16.8402 15.5486 13.1152 19.2737 8.5202 19.2737C3.92519 19.2737 0.200195 15.5486 0.200195 10.9534C0.200195 6.35831 3.92519 2.63322 8.5202 2.63322C13.1152 2.63322 16.8402 6.35831 16.8402 10.9534Z" fill="#61423D"/>
<path d="M27.0802 10.9534C27.0802 15.5486 25.2177 19.2737 22.9202 19.2737C20.6227 19.2737 18.7602 15.5486 18.7602 10.9534C18.7602 6.35831 20.6227 2.63322 22.9202 2.63322C25.2177 2.63322 27.0802 6.35831 27.0802 10.9534Z" fill="#61423D"/>
<path d="M33.9909 18.6337V18.0986L34.4773 17.9527C34.7854 17.8554 34.9961 17.7014 35.1096 17.4906C35.2231 17.2636 35.2799 16.9717 35.2799 16.615V4.57631C35.2799 4.25203 35.2393 3.99261 35.1583 3.79805C35.0772 3.58727 34.8745 3.42513 34.5503 3.31163L33.9909 3.09275V2.55769H38.636L43.2082 14.4505L47.5128 2.55769H52.2552V3.09275L51.8661 3.21435C51.5581 3.31163 51.3473 3.46567 51.2338 3.67644C51.1203 3.87101 51.0636 4.13043 51.0636 4.45471C51.0473 5.3951 51.0392 6.3355 51.0392 7.2759C51.0392 8.20009 51.0392 9.14049 51.0392 10.0971V11.0942C51.0392 12.0346 51.0392 12.975 51.0392 13.9154C51.0392 14.8558 51.0473 15.7881 51.0636 16.7123C51.0636 17.0528 51.1041 17.3122 51.1852 17.4906C51.2662 17.6689 51.4608 17.8149 51.7688 17.9284L52.2552 18.0986V18.6337H46.3455V18.0986L46.8805 17.9284C47.1886 17.8149 47.375 17.6689 47.4399 17.4906C47.5209 17.296 47.5615 17.0366 47.5615 16.7123V11.4347L47.6101 4.9168L42.6488 18.6337H41.2869L36.0581 5.06272L36.1554 10.6078V16.6394C36.1554 16.9961 36.204 17.2798 36.3013 17.4906C36.3986 17.7014 36.6013 17.8473 36.9093 17.9284L37.3957 18.0986V18.6337H33.9909Z" fill="#61423D"/>
<path d="M58.0563 6.59492C59.0778 6.59492 59.9533 6.8057 60.6829 7.22726C61.4125 7.64882 61.9718 8.23251 62.361 8.97835C62.7663 9.70797 62.969 10.5511 62.969 11.5077C62.969 11.7185 62.9608 11.9211 62.9446 12.1157C62.9284 12.2941 62.896 12.4643 62.8474 12.6264H55.527C55.5432 14.2965 55.8513 15.4963 56.4512 16.2259C57.0673 16.9555 57.959 17.3203 59.1264 17.3203C59.9371 17.3203 60.5937 17.1906 61.0963 16.9312C61.5989 16.6556 62.061 16.2745 62.4826 15.7881L62.8717 16.1529C62.3853 17.0447 61.7205 17.7419 60.8774 18.2445C60.0506 18.7309 59.0615 18.9741 57.9104 18.9741C56.7592 18.9741 55.7459 18.7309 54.8704 18.2445C53.9949 17.7581 53.3058 17.0609 52.8032 16.1529C52.3168 15.2288 52.0736 14.1262 52.0736 12.8453C52.0736 11.5158 52.3573 10.3889 52.9248 9.46476C53.5085 8.54058 54.2543 7.83528 55.1622 7.34886C56.0864 6.84624 57.0511 6.59492 58.0563 6.59492ZM57.9347 7.30022C57.4645 7.30022 57.0511 7.43804 56.6944 7.71367C56.3539 7.97309 56.0783 8.44329 55.8675 9.12427C55.673 9.78904 55.5595 10.7294 55.527 11.9455H59.8803C60.0587 10.3079 59.9938 9.12427 59.6858 8.39465C59.3777 7.66503 58.794 7.30022 57.9347 7.30022Z" fill="#61423D"/>
<path d="M68.5852 18.9741C67.6286 18.9741 66.7693 18.7634 66.0072 18.3418C65.2452 17.904 64.6453 17.2393 64.2076 16.3475C63.786 15.4395 63.5752 14.2884 63.5752 12.894C63.5752 11.4996 63.8184 10.3403 64.3048 9.41612C64.7912 8.47572 65.4398 7.77042 66.2504 7.30022C67.0611 6.83002 67.9528 6.59492 68.9256 6.59492C69.5093 6.59492 70.0687 6.66789 70.6037 6.81381C71.1388 6.94352 71.609 7.14619 72.0143 7.42183V4.26014C72.0143 3.91965 71.9575 3.67644 71.844 3.53052C71.7468 3.36838 71.536 3.24678 71.2117 3.16571L70.7253 3.06843V2.60633L74.957 1.56055L75.2732 1.77943L75.1759 5.20865V16.9069C75.1759 17.2149 75.2326 17.4744 75.3461 17.6851C75.4596 17.8797 75.6623 18.0175 75.9541 18.0986L76.2216 18.1716V18.6337L72.1845 18.9012L71.9656 17.8797C71.5279 18.2202 71.0253 18.4877 70.4578 18.6823C69.8903 18.8769 69.2661 18.9741 68.5852 18.9741ZM69.9228 17.8554C70.6199 17.8554 71.2766 17.6284 71.8927 17.1744V8.12713C71.2928 7.75421 70.6443 7.56775 69.9471 7.56775C69.1526 7.56775 68.4717 7.98931 67.9042 8.83242C67.3367 9.65933 67.053 10.997 67.053 12.8453C67.053 14.6937 67.3205 15.9908 67.8556 16.7366C68.3906 17.4825 69.0797 17.8554 69.9228 17.8554Z" fill="#61423D"/>
<path d="M79.4157 5.25729C78.8807 5.25729 78.4267 5.08704 78.0538 4.74655C77.6809 4.40606 77.4945 3.9764 77.4945 3.45756C77.4945 2.9225 77.6809 2.49284 78.0538 2.16856C78.4267 1.82807 78.8807 1.65783 79.4157 1.65783C79.9508 1.65783 80.4047 1.82807 80.7777 2.16856C81.1506 2.49284 81.337 2.9225 81.337 3.45756C81.337 3.9764 81.1506 4.40606 80.7777 4.74655C80.4047 5.08704 79.9508 5.25729 79.4157 5.25729ZM76.6189 18.6337V18.1716L76.9837 18.0743C77.308 17.977 77.5269 17.8311 77.6404 17.6365C77.7539 17.4419 77.8187 17.1825 77.8349 16.8582V12.3832C77.8349 11.8806 77.8349 11.4185 77.8349 10.997C77.8349 10.5592 77.8268 10.1133 77.8106 9.65933C77.8106 9.33505 77.7458 9.08374 77.6161 8.90539C77.5026 8.71082 77.2837 8.58111 76.9594 8.51626L76.6189 8.44329V8.00552L80.8749 6.59492L81.1668 6.86245L81.0938 10.316V16.8826C81.0938 17.2068 81.1506 17.4663 81.2641 17.6608C81.3938 17.8554 81.6126 18.0013 81.9207 18.0986L82.1882 18.1716V18.6337H76.6189Z" fill="#61423D"/>
<path d="M86.0652 18.9741C85.141 18.9741 84.3547 18.7147 83.7061 18.1959C83.0738 17.6608 82.7576 16.8988 82.7576 15.9097C82.7576 15.1315 83.1306 14.4181 83.8764 13.7695C84.6384 13.1048 85.8301 12.6183 87.4514 12.3103C87.727 12.2454 88.0432 12.1887 88.3999 12.14C88.7728 12.0752 89.1376 12.0103 89.4943 11.9455V10.2187C89.4943 9.11617 89.3565 8.35412 89.0808 7.93256C88.8052 7.511 88.3675 7.30022 87.7676 7.30022H87.6946C87.3217 7.30022 87.0218 7.42183 86.7948 7.66503C86.584 7.89203 86.4462 8.27305 86.3813 8.8081L86.3084 9.12427C86.2597 9.77282 86.0895 10.2511 85.7976 10.5592C85.5058 10.851 85.141 10.997 84.7032 10.997C84.2979 10.997 83.9574 10.8754 83.6818 10.6322C83.4224 10.3727 83.2927 10.0404 83.2927 9.63501C83.2927 8.97024 83.5197 8.41087 83.9736 7.95688C84.4276 7.5029 85.0275 7.16241 85.7733 6.93541C86.5354 6.70842 87.3541 6.59492 88.2296 6.59492C89.6726 6.59492 90.7751 6.94352 91.5372 7.64071C92.2992 8.3379 92.6802 9.47287 92.6802 11.0456V16.4691C92.6802 17.1663 93.0126 17.5149 93.6773 17.5149H94.2367L94.4799 17.7824C94.188 18.1553 93.8638 18.4391 93.5071 18.6337C93.1504 18.8444 92.664 18.9498 92.0479 18.9498C91.3507 18.9498 90.7914 18.7877 90.3698 18.4634C89.9645 18.1229 89.697 17.677 89.5672 17.1258C89.0484 17.677 88.5377 18.1229 88.0351 18.4634C87.5325 18.8039 86.8758 18.9741 86.0652 18.9741ZM87.4757 17.4176C87.8 17.4176 88.108 17.3447 88.3999 17.1987C88.6917 17.0528 89.0565 16.8096 89.4943 16.4691V12.5778C89.0727 12.6427 88.6431 12.7237 88.2053 12.821C87.5081 12.9832 86.9407 13.2831 86.5029 13.7209C86.0814 14.1586 85.8706 14.7505 85.8706 15.4963C85.8706 16.1448 86.0165 16.6313 86.3084 16.9555C86.6164 17.2636 87.0055 17.4176 87.4757 17.4176Z" fill="#61423D"/>
<path d="M98.8738 18.9741C97.8686 18.9741 97.0742 18.7309 96.4905 18.2445C95.923 17.7419 95.6393 16.9312 95.6393 15.8125C95.6393 15.4233 95.6393 15.0585 95.6393 14.718C95.6555 14.3613 95.6636 13.9479 95.6636 13.4777V7.71367H93.9369V7.17862L94.5935 7.08134C95.0637 7.00027 95.4609 6.85434 95.7852 6.64356C96.1257 6.43279 96.4337 6.14094 96.7093 5.76802L98.2901 3.57916H99.0197L98.9468 6.95973H101.719V7.71367H98.9225V16.007C98.9225 16.5907 99.0441 17.0285 99.2873 17.3203C99.5467 17.6122 99.8628 17.7581 100.236 17.7581C100.56 17.7581 100.852 17.6851 101.111 17.5392C101.371 17.3771 101.63 17.1663 101.89 16.9069L102.206 17.2717C101.898 17.8067 101.468 18.2283 100.917 18.5364C100.365 18.8282 99.6845 18.9741 98.8738 18.9741Z" fill="#61423D"/>
<path d="M108.321 18.9741C107.121 18.9741 106.067 18.7228 105.159 18.2202C104.267 17.7176 103.57 17.0042 103.068 16.08C102.581 15.1558 102.338 14.0533 102.338 12.7724C102.338 11.4915 102.598 10.3889 103.116 9.46476C103.651 8.54058 104.365 7.83528 105.256 7.34886C106.164 6.84624 107.186 6.59492 108.321 6.59492C109.456 6.59492 110.469 6.84624 111.361 7.34886C112.269 7.83528 112.982 8.54058 113.501 9.46476C114.036 10.3727 114.304 11.4753 114.304 12.7724C114.304 14.0533 114.052 15.1639 113.55 16.1043C113.063 17.0285 112.374 17.7419 111.482 18.2445C110.591 18.7309 109.537 18.9741 108.321 18.9741ZM108.321 18.2932C108.904 18.2932 109.375 18.1391 109.731 17.8311C110.104 17.5068 110.372 16.9474 110.534 16.1529C110.696 15.3585 110.777 14.2478 110.777 12.821C110.777 11.378 110.696 10.2592 110.534 9.46476C110.372 8.65407 110.104 8.0947 109.731 7.78664C109.375 7.46236 108.904 7.30022 108.321 7.30022C107.737 7.30022 107.267 7.46236 106.91 7.78664C106.554 8.0947 106.286 8.65407 106.108 9.46476C105.946 10.2592 105.865 11.378 105.865 12.821C105.865 14.2478 105.946 15.3585 106.108 16.1529C106.286 16.9474 106.554 17.5068 106.91 17.8311C107.267 18.1391 107.737 18.2932 108.321 18.2932Z" fill="#61423D"/>
<path d="M114.692 18.6337V18.1716L115.057 18.05C115.382 17.9689 115.6 17.8311 115.714 17.6365C115.844 17.4419 115.908 17.1825 115.908 16.8582V9.73229C115.892 9.37559 115.827 9.10806 115.714 8.92971C115.6 8.73514 115.382 8.60543 115.057 8.54058L114.692 8.44329V8.00552L118.657 6.59492L118.948 6.86245L119.167 9.00267V9.17291C119.411 8.71893 119.719 8.29737 120.091 7.90824C120.464 7.51911 120.87 7.20294 121.307 6.95973C121.745 6.71653 122.183 6.59492 122.621 6.59492C123.237 6.59492 123.699 6.75706 124.007 7.08134C124.315 7.40561 124.469 7.81906 124.469 8.32169C124.469 8.87296 124.315 9.29452 124.007 9.58637C123.699 9.862 123.326 9.99982 122.888 9.99982C122.24 9.99982 121.68 9.70797 121.21 9.12427L121.162 9.07563C120.999 8.88107 120.813 8.77568 120.602 8.75946C120.408 8.72704 120.213 8.82432 120.019 9.05131C119.856 9.21345 119.702 9.40801 119.556 9.63501C119.427 9.84579 119.305 10.0971 119.192 10.3889V16.761C119.192 17.069 119.257 17.3284 119.386 17.5392C119.516 17.7338 119.735 17.8716 120.043 17.9527L120.772 18.1716V18.6337H114.692Z" fill="#61423D"/>
</g>
<defs>
<clipPath id="clip0_473_35299">
<rect width="124.8" height="19.2005" fill="white" transform="translate(0.200195 0.919922)"/>
</clipPath>
</defs>
</svg>
