<svg width="24" height="24" viewBox="0 0 24 24" fill="none" xmlns="http://www.w3.org/2000/svg">
<g id="Group">
<g id="Group_2">
<path id="Path" d="M11.9972 17.5039C11.7221 17.5039 11.497 17.729 11.5 18.0041C11.5 18.2792 11.7251 18.5043 12.0002 18.5043C12.2754 18.5043 12.5004 18.2792 12.5004 18.0041C12.5004 17.729 12.2754 17.5039 11.9972 17.5039" stroke="#2F222B" stroke-width="1.5" stroke-linecap="round" stroke-linejoin="round"/>
<path id="Path_2" d="M11.9972 11.5039C11.7221 11.5039 11.497 11.729 11.5 12.0041C11.5 12.2792 11.7251 12.5043 12.0002 12.5043C12.2754 12.5043 12.5004 12.2792 12.5004 12.0041C12.5004 11.729 12.2754 11.5039 11.9972 11.5039" stroke="#2F222B" stroke-width="1.5" stroke-linecap="round" stroke-linejoin="round"/>
<path id="Path_3" d="M11.9972 5.5C11.7221 5.5 11.497 5.72509 11.5 6.00021C11.5 6.27532 11.7251 6.50042 12.0002 6.50042C12.2754 6.50042 12.5004 6.27532 12.5004 6.00021C12.5004 5.72509 12.2754 5.5 11.9972 5.5" stroke="#2F222B" stroke-width="1.5" stroke-linecap="round" stroke-linejoin="round"/>
</g>
</g>
</svg>
