<svg width="32" height="32" viewBox="0 0 32 32" fill="none" xmlns="http://www.w3.org/2000/svg">
<g id="Vinesia Icons/NFC">
<path id="Path" d="M17.5293 9.33203C19.1548 11.1686 20.0355 13.5463 19.9986 15.9987C20.0355 18.4511 19.1548 20.8288 17.5293 22.6654" stroke="white" stroke-linecap="round" stroke-linejoin="round"/>
<path id="Path_2" d="M14.8877 11.5547C15.8776 12.8217 16.4007 14.3911 16.369 15.9987C16.4007 17.6063 15.8776 19.1757 14.8877 20.4427" stroke="white" stroke-linecap="round" stroke-linejoin="round"/>
<path id="Path_3" fill-rule="evenodd" clip-rule="evenodd" d="M5.56209 9.10457L9.10457 5.56209C10.1048 4.5619 11.4613 4 12.8758 4H19.1229C20.5374 4 21.8939 4.5619 22.8941 5.56209L26.4379 9.10591C27.4381 10.1061 28 11.4626 28 12.8771V19.1215C28 20.536 27.4381 21.8926 26.4379 22.8928L22.8928 26.4379C21.8926 27.4381 20.536 28 19.1215 28H12.8771C11.463 28 10.1068 27.4384 9.10667 26.4387L5.5628 22.8961C4.56218 21.8959 4 20.539 4 19.1242V12.8758C4 11.4613 4.5619 10.1048 5.56209 9.10457Z" stroke="white" stroke-linecap="round" stroke-linejoin="round"/>
<path id="Path_4" d="M12.0001 13.7773C12.9885 15.0943 12.9885 16.9057 12.0001 18.2227" stroke="white" stroke-linecap="round" stroke-linejoin="round"/>
</g>
</svg>
