<svg width="24" height="25" viewBox="0 0 24 25" fill="none" xmlns="http://www.w3.org/2000/svg">
<g id="Group">
<path id="Path" fill-rule="evenodd" clip-rule="evenodd" d="M11.4116 17.4808V17.4808C8.84645 16.9678 7 14.7155 7 12.0995V10.3168C7 9.58013 7.29265 8.87359 7.81359 8.35265C8.33453 7.83172 9.04107 7.53906 9.77778 7.53906H14.2222C14.9589 7.53906 15.6655 7.83172 16.1864 8.35265C16.7073 8.87359 17 9.58013 17 10.3168V12.0995C17 14.7154 15.1536 16.9677 12.5885 17.4808H12.5884C12.2 17.5585 11.8 17.5585 11.4116 17.4808Z" stroke="white" stroke-linecap="round" stroke-linejoin="round"/>
<circle id="Oval" cx="12" cy="12.0391" r="9.5" stroke="white" stroke-linecap="round" stroke-linejoin="round"/>
<path id="Path_2" d="M13.75 11.2891L11.75 13.2891" stroke="white" stroke-linecap="round" stroke-linejoin="round"/>
<path id="Path_3" d="M11.7508 13.2898L10.5508 12.0898" stroke="white" stroke-linecap="round" stroke-linejoin="round"/>
</g>
</svg>
