<svg width="40" height="40" viewBox="0 0 40 40" fill="none" xmlns="http://www.w3.org/2000/svg">
<g id="Vinesia Icons/Sensor">
<path id="Path" d="M21.9121 11.6667C23.944 13.9624 25.0449 16.9345 24.9988 20C25.0449 23.0655 23.944 26.0376 21.9121 28.3333" stroke="#BF4D20" stroke-linecap="round" stroke-linejoin="round"/>
<path id="Path_2" d="M18.6094 14.445C19.8467 16.0288 20.5007 17.9905 20.461 20C20.5007 22.0095 19.8467 23.9712 18.6094 25.555" stroke="#BF4D20" stroke-linecap="round" stroke-linejoin="round"/>
<path id="Path_3" fill-rule="evenodd" clip-rule="evenodd" d="M6.95262 11.3807L11.3807 6.95262C12.631 5.70238 14.3266 5 16.0947 5H23.9036C25.6717 5 27.3674 5.70238 28.6176 6.95262L33.0474 11.3824C34.2976 12.6326 35 14.3283 35 16.0964V23.9019C35 25.67 34.2976 27.3657 33.0474 28.6159L28.616 33.0474C27.3657 34.2976 25.67 35 23.9019 35H16.0964C14.3288 35 12.6335 34.298 11.3833 33.0483L6.9535 28.6202C5.70272 27.3699 5 25.6738 5 23.9052V16.0948C5 14.3267 5.70237 12.631 6.95262 11.3807Z" stroke="#BF4D20" stroke-linecap="round" stroke-linejoin="round"/>
<path id="Path_4" d="M14.9999 17.2217C16.2354 18.8678 16.2354 21.1322 14.9999 22.7783" stroke="#BF4D20" stroke-linecap="round" stroke-linejoin="round"/>
</g>
</svg>
