<svg width="24" height="24" viewBox="0 0 24 24" fill="none" xmlns="http://www.w3.org/2000/svg">
<path d="M13.1465 7C14.3656 8.37746 15.0262 10.1607 14.9985 12C15.0262 13.8393 14.3656 15.6225 13.1465 17" stroke="white" stroke-linecap="round" stroke-linejoin="round"/>
<path d="M11.166 8.66699C11.9084 9.61727 12.3008 10.7943 12.277 12C12.3008 13.2057 11.9084 14.3827 11.166 15.333" stroke="white" stroke-linecap="round" stroke-linejoin="round"/>
<path fill-rule="evenodd" clip-rule="evenodd" d="M4.17157 6.82843L6.82843 4.17157C7.57857 3.42143 8.59599 3 9.65685 3H14.3421C15.403 3 16.4204 3.42143 17.1706 4.17157L19.8284 6.82943C20.5786 7.57957 21 8.59699 21 9.65785V14.3411C21 15.402 20.5786 16.4194 19.8284 17.1696L17.1696 19.8284C16.4194 20.5786 15.402 21 14.3412 21H9.65786C8.59727 21 7.5801 20.5788 6.83 19.829L4.1721 17.1721C3.42163 16.4219 3 15.4043 3 14.3432V9.65686C3 8.59599 3.42142 7.57858 4.17157 6.82843Z" stroke="white" stroke-linecap="round" stroke-linejoin="round"/>
<path d="M8.99934 10.333C9.74068 11.3207 9.74068 12.6793 8.99934 13.667" stroke="white" stroke-linecap="round" stroke-linejoin="round"/>
</svg>
