<svg width="26" height="26" viewBox="0 0 48 48" fill="none" xmlns="http://www.w3.org/2000/svg">
<path d="M0 12C0 5.37258 5.37258 0 12 0H36C42.6274 0 48 5.37258 48 12V36C48 42.6274 42.6274 48 36 48H12C5.37258 48 0 42.6274 0 36V12Z" fill="black"/>
<path d="M25.905 22.4695L33.3512 14H31.5869L25.1184 21.3524L19.9558 14H14L21.8086 25.1192L14 34H15.7643L22.591 26.2338L28.0442 34H34L25.905 22.4695ZM23.4877 25.2168L22.6954 24.1089L16.4005 15.3015H19.1108L24.1925 22.412L24.9815 23.5199L31.5861 32.7619H28.8758L23.4877 25.2168Z" fill="white"/>
</svg>
