<svg width="25" height="24" viewBox="0 0 25 24" fill="none" xmlns="http://www.w3.org/2000/svg">
<path d="M6.29602 13.682V5.444C6.29602 4.094 7.39002 3 8.74002 3C10.09 3 11.184 4.094 11.184 5.444V13.682V13.684C12.168 14.428 12.814 15.596 12.814 16.924C12.814 19.176 10.99 21 8.74002 21C6.49002 21 4.66602 19.176 4.66602 16.926C4.66602 15.598 5.31202 14.428 6.29602 13.686" stroke="white" stroke-linecap="round" stroke-linejoin="round"/>
<path d="M15.666 7H20.666" stroke="white" stroke-linecap="round" stroke-linejoin="round"/>
<path d="M15.666 4H20.666" stroke="white" stroke-linecap="round" stroke-linejoin="round"/>
<path d="M15.666 10H20.666" stroke="white" stroke-linecap="round" stroke-linejoin="round"/>
<path d="M15.666 13H20.666" stroke="white" stroke-linecap="round" stroke-linejoin="round"/>
<path fill-rule="evenodd" clip-rule="evenodd" d="M8.66602 18.5C9.49444 18.5 10.166 17.8284 10.166 17C10.166 16.1716 9.49444 15.5 8.66602 15.5C7.83759 15.5 7.16602 16.1716 7.16602 17C7.16602 17.8284 7.83759 18.5 8.66602 18.5Z" stroke="white" stroke-linecap="round" stroke-linejoin="round"/>
<path d="M8.66602 15.5V9" stroke="white" stroke-linecap="round" stroke-linejoin="round"/>
</svg>
