<svg width="20" height="20" viewBox="0 0 20 20" fill="none" xmlns="http://www.w3.org/2000/svg">
<g id="Group">
<path id="Path" d="M14.5 19.0391H18" stroke="white" stroke-linecap="round" stroke-linejoin="round"/>
<path id="Path_2" d="M16.25 16.0391V19.0391" stroke="white" stroke-linecap="round" stroke-linejoin="round"/>
<path id="Path_3" fill-rule="evenodd" clip-rule="evenodd" d="M13.5137 13.0158L13.7212 10.9396C13.7724 10.4284 14.2025 10.0391 14.7163 10.0391H17.7832C18.297 10.0391 18.7271 10.4284 18.7782 10.9396L18.9858 13.0158C19.0631 13.7888 18.8098 14.5584 18.2885 15.1344C17.7672 15.7104 17.0266 16.0391 16.2498 16.0391V16.0391C15.4729 16.0391 14.7323 15.7104 14.211 15.1344C13.6897 14.5584 13.4364 13.7888 13.5137 13.0158V13.0158Z" stroke="white" stroke-linecap="round" stroke-linejoin="round"/>
<path id="Path_4" d="M18 6.03906V3.03906C18 1.93449 17.1046 1.03906 16 1.03906H3C1.89543 1.03906 1 1.93449 1 3.03906V17.0391C1 18.1436 1.89543 19.0391 3 19.0391H10" stroke="white" stroke-linecap="round" stroke-linejoin="round"/>
<path id="Path_5" d="M5 6.03906H14" stroke="white" stroke-linecap="round" stroke-linejoin="round"/>
<path id="Path_6" d="M5 10.0391H10" stroke="white" stroke-linecap="round" stroke-linejoin="round"/>
<path id="Path_7" d="M5 14.0391H10" stroke="white" stroke-linecap="round" stroke-linejoin="round"/>
</g>
</svg>
