<svg width="24" height="24" viewBox="0 0 24 24" fill="none" xmlns="http://www.w3.org/2000/svg">
<g id="Group">
<g id="Group_2">
<path id="Path" d="M6.49039 15.578C7.27144 16.359 7.27144 17.6254 6.49039 18.4064C5.70934 19.1875 4.44301 19.1875 3.66196 18.4064C2.88091 17.6254 2.88091 16.359 3.66196 15.578C4.44301 14.7969 5.70934 14.7969 6.49039 15.578" stroke="#BF4D20" stroke-linecap="round" stroke-linejoin="round"/>
<path id="Path_2" d="M13.4142 3.58579C14.1953 4.36684 14.1953 5.63317 13.4142 6.41422C12.6332 7.19527 11.3668 7.19527 10.5858 6.41422C9.80474 5.63317 9.80474 4.36684 10.5858 3.58579C11.3668 2.80474 12.6332 2.80474 13.4142 3.58579" stroke="#BF4D20" stroke-linecap="round" stroke-linejoin="round"/>
<path id="Path_3" d="M20.3361 15.5741C21.1171 16.3551 21.1171 17.6214 20.3361 18.4025C19.555 19.1835 18.2887 19.1835 17.5077 18.4025C16.7266 17.6214 16.7266 16.3551 17.5077 15.5741C18.2887 14.793 19.555 14.793 20.3361 15.5741" stroke="#BF4D20" stroke-linecap="round" stroke-linejoin="round"/>
<path id="Path_4" d="M17.7171 18.5742C16.2661 20.0632 14.2441 20.9922 12.0001 20.9922C10.8551 20.9922 9.77011 20.7462 8.78711 20.3122" stroke="#BF4D20" stroke-linecap="round" stroke-linejoin="round"/>
<path id="Path_5" d="M4.29765 15.1478C3.73765 13.1498 3.94565 10.9388 5.06565 8.99878C5.63965 8.00378 6.39865 7.18578 7.26965 6.55078" stroke="#BF4D20" stroke-linecap="round" stroke-linejoin="round"/>
<path id="Path_6" d="M13.9727 5.25391C15.9887 5.76591 17.8037 7.05191 18.9267 8.99591C19.4957 9.98091 19.8247 11.0359 19.9437 12.0979" stroke="#BF4D20" stroke-linecap="round" stroke-linejoin="round"/>
</g>
</g>
</svg>
