<svg width="25" height="24" viewBox="0 0 25 24" fill="none" xmlns="http://www.w3.org/2000/svg">
<path d="M19.0023 6.95113L16.6365 3.79672C15.9993 2.94719 14.8095 2.74338 13.926 3.33243L8.42773 6.99791" stroke="#BF4D20" stroke-linecap="round" stroke-linejoin="round"/>
<path fill-rule="evenodd" clip-rule="evenodd" d="M19.001 11.4998H21.5021C22.0546 11.4998 22.5025 11.9477 22.5025 12.5002V15.5015C22.5025 16.054 22.0546 16.5019 21.5021 16.5019H19.001C17.6198 16.5019 16.5 15.3821 16.5 14.0008V14.0008C16.5 12.6195 17.6198 11.4998 19.001 11.4998V11.4998Z" stroke="#BF4D20" stroke-linecap="round" stroke-linejoin="round"/>
<path d="M21.5036 11.4998V9.49895C21.5036 8.11766 20.3838 6.99791 19.0026 6.99791H5.99714C4.61585 6.99791 3.49609 8.11766 3.49609 9.49895V18.5027C3.49609 19.884 4.61585 21.0037 5.99714 21.0037H19.0026C20.3838 21.0037 21.5036 19.884 21.5036 18.5027V16.5019" stroke="#BF4D20" stroke-linecap="round" stroke-linejoin="round"/>
</svg>
