<svg width="101" height="24" viewBox="0 0 101 24" fill="none" xmlns="http://www.w3.org/2000/svg">
<path d="M2.91204 17.2805H6.8058L10.4 10.1609L11.8746 17.2805H15.6071L21.321 5.87536H17.2199L14.0864 13.1792L12.8192 5.87536H8.94852L5.40036 13.1792L4.3866 5.87536H0.700195L2.91204 17.2805Z" fill="#61423D"/>
<path d="M27.898 5.46063C24.0503 5.46063 21.3547 8.29463 20.8939 11.2669C20.2948 14.8612 22.714 17.557 26.0318 17.58C28.1284 17.603 30.0868 16.8197 31.4462 15.3681L29.2574 13.4788C28.5892 14.1469 27.5755 14.5847 26.4926 14.5847C25.3636 14.5847 24.3499 13.8935 24.1655 12.6032H32.7364C32.8286 12.2346 32.8977 11.8659 32.9207 11.4973C33.1742 7.85685 31.1006 5.46063 27.898 5.46063ZM24.5572 10.2531C25.1793 8.91672 26.3313 8.31767 27.4372 8.31767C28.4971 8.31767 29.4647 8.89368 29.7182 10.2531H24.5572Z" fill="#61423D"/>
<path d="M41.0738 17.4878C44.4607 17.4878 46.7417 14.9303 47.2486 11.5664C47.7785 8.20246 45.7279 5.66799 42.8249 5.66799C41.4194 5.66799 40.1983 6.26705 39.1846 7.23476L40.3366 0H36.6041L33.8623 17.2805H37.5948L37.8022 15.9211C38.4473 16.8427 39.5302 17.4878 41.0738 17.4878ZM40.613 14.2852C39.1615 14.2852 38.2399 13.1332 38.4934 11.5664C38.7238 9.99963 40.037 8.8476 41.4655 8.8476C42.894 8.8476 43.7465 9.99963 43.493 11.5664C43.2626 13.1332 42.0415 14.2852 40.613 14.2852Z" fill="#61423D"/>
<path d="M47.2678 23.0406H51.0003L52.1293 15.9441C52.7974 16.8427 53.8573 17.4878 55.4009 17.4878C58.7417 17.4878 61.0688 14.9303 61.5757 11.5894C62.1056 8.2255 60.1011 5.66799 57.152 5.66799C55.7005 5.66799 54.4793 6.31313 53.5117 7.23476L53.7421 5.87536H49.9865L47.2678 23.0406ZM54.9401 14.2852C53.4886 14.2852 52.567 13.1562 52.8205 11.5894C53.0509 10.0227 54.3641 8.8476 55.7926 8.8476C57.2211 8.8476 58.0736 10.0227 57.8201 11.5664C57.5897 13.1562 56.3686 14.2852 54.9401 14.2852Z" fill="#61423D"/>
<path d="M67.1476 17.4878C68.7604 17.4878 69.9584 16.9349 70.857 15.9902L70.6496 17.2805H74.3821L76.1792 5.87536H72.4468L72.2394 7.2578C71.5482 6.26705 70.5114 5.66799 68.9908 5.66799C65.8803 5.66799 63.346 8.20246 62.816 11.5664C62.2861 14.9303 64.2676 17.4878 67.1476 17.4878ZM68.553 14.2852C67.1476 14.2852 66.2029 13.1332 66.4564 11.5664C66.7328 9.99963 68 8.8476 69.4285 8.8476C70.88 8.8476 71.8247 9.99963 71.5482 11.5664C71.2948 13.1792 70.0045 14.2852 68.553 14.2852Z" fill="#61423D"/>
<path d="M82.6519 17.3266C83.3431 17.3266 84.1495 17.2113 85.0019 16.9349L85.4858 13.9626C85.0711 14.1239 84.6333 14.2161 84.2186 14.2161C83.0205 14.2161 82.3754 13.5248 82.5597 12.3498L83.0896 9.07801H86.2L86.7069 5.87536H83.5735L84.1034 2.55751H80.44L79.9101 5.87536H77.6061L77.0762 9.07801H79.4032L78.7811 12.9949C78.3434 15.5294 79.8179 17.3266 82.6519 17.3266Z" fill="#61423D"/>
<path d="M86.9407 17.2805H90.6502L91.5718 11.5434C91.8713 9.93051 92.885 8.87064 94.2674 8.87064C95.6498 8.87064 96.318 9.86139 96.0415 11.6355L95.1429 17.2805H98.8754L99.8201 11.336C100.373 7.92598 98.4377 5.73712 95.6729 5.73712C94.3135 5.73712 93.1385 6.24401 92.2629 7.09651L93.3919 0H89.6825L86.9407 17.2805Z" fill="#61423D"/>
</svg>
