<svg width="1251" height="158" viewBox="0 0 1251 158" fill="none" xmlns="http://www.w3.org/2000/svg">
<g id="Frame 1000002827">
<path id="Subtract" fill-rule="evenodd" clip-rule="evenodd" d="M660.344 45.5588C662.405 43.4983 664.888 42.1172 667.514 41.4157L663.78 37.6811C663.078 40.3079 661.697 42.791 659.636 44.8517L637.009 67.4792C630.761 73.7275 620.63 73.7275 614.382 67.4792L591.754 44.8517C589.979 43.0766 588.708 40.9881 587.942 38.7644L584.959 41.7466C587.183 42.5131 589.271 43.7839 591.046 45.5588L613.674 68.1862C619.922 74.4346 619.922 84.5653 613.674 90.8137L591.046 113.441C588.986 115.502 586.503 116.883 583.877 117.584L587.611 121.318C588.312 118.692 589.694 116.209 591.754 114.148L614.382 91.5207C620.63 85.2724 630.761 85.2724 637.009 91.5207L659.636 114.148C661.411 115.923 662.682 118.011 663.449 120.235L666.431 117.253C664.207 116.487 662.119 115.216 660.344 113.441L637.717 90.8137C631.469 84.5653 631.469 74.4346 637.717 68.1862L660.344 45.5588Z" fill="#CB220D"/>
<line id="Line 61" opacity="0.1" x1="748.195" y1="79.5" x2="1250.2" y2="79.5" stroke="#CB220D"/>
<line id="Line 62" opacity="0.1" x1="0.195312" y1="79.5" x2="502.195" y2="79.5" stroke="#CB220D"/>
</g>
</svg>
